<svg width="23" height="23" viewBox="0 0 23 23" fill="none" xmlns="http://www.w3.org/2000/svg" style="">
    <g clip-path="url(#cliph)">
        <path fill-rule="evenodd" clip-rule="evenodd"
              d="M16.0512 0H6.27476C1.69207 0 0 1.69857 0 6.29888V16.0893C0 20.7132 1.69207 22.4117 6.27476 22.4117H16.0277C20.6338 22.4117 22.3259 20.7132 22.3259 16.1129V6.29888C22.3259 1.69857 20.6338 0 16.0512 0Z"
              fill="#C8102E" style=""/>
        <path d="M4.41829 11.2058H5.00581V14.1311H4.41829V12.9516H3.07874V14.1311H2.49121V11.2058H3.07874V12.3854H4.41829V11.2058ZM7.75543 12.8808C7.75543 13.3526 7.52042 13.6121 7.0974 13.6121C6.67438 13.6121 6.43937 13.3526 6.43937 12.8572V11.2058H5.85185V12.8808C5.85185 13.7065 6.29837 14.1783 7.0974 14.1783C7.89643 14.1783 8.36645 13.7065 8.36645 12.8572V11.2058H7.75543V12.8808ZM14.5942 13.2111L13.9362 11.2058H13.4427L12.7846 13.2111L12.1501 11.2058H11.5156L12.5261 14.1311H13.0196L13.6777 12.1966L14.3357 14.1311H14.8292L15.8398 11.2058H15.2287L14.5942 13.2111ZM16.9208 12.8808H18.0018V12.3382H16.9208V11.7484H18.4954V11.2058H16.3568V14.1311H18.5659V13.5885H16.9208V12.8808ZM19.2474 14.1311H19.8349V11.2058H19.2474V14.1311ZM9.518 13.5178L9.25949 14.1311H8.64846L9.94102 11.2058H10.458L11.7506 14.1311H11.1396L10.8811 13.5178H9.518ZM9.72951 12.9988H10.6225L10.176 11.9607L9.72951 12.9988Z"
              fill="white" style=""/>
        <path d="M11.1633 7.47853C9.11876 7.47853 7.4502 5.80354 7.4502 3.7511H7.96722C7.96722 5.52045 9.40077 6.95952 11.1633 6.95952C12.9259 6.95952 14.3595 5.52045 14.3595 3.7511H14.8765C14.8765 5.80354 13.2079 7.47853 11.1633 7.47853Z"
              fill="white"/>
    </g>
    <defs>
        <clipPath>
            <rect width="22.3259" height="22.4118" fill="white"/>
        </clipPath>
    </defs>
</svg>
