<svg width="68" height="14" viewBox="0 0 68 14" fill="none" xmlns="http://www.w3.org/2000/svg" style="">
    <path d="M6.46887 8.69253H2.62615L1.82218 11.0111H0.0302734L3.77761 1.05278H5.32423L9.07838 11.0111H7.27966L6.46887 8.69253ZM3.1099 7.29726H5.98513L4.54751 3.16619L3.1099 7.29726Z"
          fill="white" style=""/>
    <path d="M16.1779 7.38618C16.1779 8.53066 15.919 9.44487 15.4012 10.1288C14.8833 10.8082 14.1884 11.1479 13.3163 11.1479C12.5078 11.1479 11.8605 10.8812 11.3745 10.3477V13.8564H9.71883V3.61076H11.245L11.3132 4.36311C11.7992 3.77035 12.4601 3.47397 13.2958 3.47397C14.1952 3.47397 14.8992 3.81139 15.408 4.48622C15.9212 5.15649 16.1779 6.08895 16.1779 7.28358V7.38618ZM14.529 7.24255C14.529 6.50388 14.3814 5.91796 14.0862 5.48479C13.7955 5.05162 13.3776 4.83503 12.8325 4.83503C12.1557 4.83503 11.6697 5.11546 11.3745 5.6763V8.95927C11.6743 9.53379 12.1648 9.82105 12.8462 9.82105C13.3731 9.82105 13.7841 9.60902 14.0794 9.18497C14.3792 8.75636 14.529 8.10889 14.529 7.24255Z"
          fill="white"/>
    <path d="M24.0405 7.38618C24.0405 8.53066 23.7816 9.44487 23.2637 10.1288C22.7459 10.8082 22.051 11.1479 21.1789 11.1479C20.3703 11.1479 19.7231 10.8812 19.2371 10.3477V13.8564H17.5814V3.61076H19.1076L19.1757 4.36311C19.6618 3.77035 20.3227 3.47397 21.1584 3.47397C22.0578 3.47397 22.7618 3.81139 23.2706 4.48622C23.7838 5.15649 24.0405 6.08895 24.0405 7.28358V7.38618ZM22.3916 7.24255C22.3916 6.50388 22.244 5.91796 21.9488 5.48479C21.6581 5.05162 21.2402 4.83503 20.6951 4.83503C20.0183 4.83503 19.5323 5.11546 19.2371 5.6763V8.95927C19.5368 9.53379 20.0274 9.82105 20.7087 9.82105C21.2356 9.82105 21.6467 9.60902 21.942 9.18497C22.2417 8.75636 22.3916 8.10889 22.3916 7.24255Z"
          fill="white" style=""/>
    <path d="M33.2112 9.71846C32.8524 10.1881 32.355 10.5438 31.7191 10.7854C31.0832 11.0271 30.361 11.1479 29.5524 11.1479C28.7212 11.1479 27.9854 10.9587 27.3449 10.5802C26.7045 10.2018 26.2094 9.66146 25.8596 8.95927C25.5144 8.25252 25.335 7.42949 25.3214 6.4902V5.71049C25.3214 4.2058 25.6802 3.03168 26.3979 2.18814C27.1155 1.34004 28.1171 0.915987 29.4026 0.915987C30.5063 0.915987 31.383 1.18957 32.0325 1.73673C32.682 2.28389 33.0727 3.07272 33.2044 4.10321H31.5147C31.3239 2.90401 30.6312 2.30441 29.4366 2.30441C28.6644 2.30441 28.0762 2.58483 27.672 3.14567C27.2722 3.70195 27.0656 4.52042 27.052 5.60106V6.36709C27.052 7.44317 27.2768 8.27988 27.7265 8.87719C28.1807 9.46995 28.8098 9.76633 29.6138 9.76633C30.495 9.76633 31.1218 9.56571 31.4942 9.16445V7.21519H29.4502V5.902H33.2112V9.71846Z"
          fill="white" style=""/>
    <path d="M39.35 11.0111C39.2773 10.8698 39.2138 10.6395 39.1592 10.3203C38.6323 10.8721 37.9874 11.1479 37.2243 11.1479C36.4839 11.1479 35.8798 10.9359 35.4119 10.5118C34.9441 10.0878 34.7101 9.56343 34.7101 8.93875C34.7101 8.14992 35.0008 7.54577 35.5822 7.12628C36.1682 6.70223 37.004 6.4902 38.0896 6.4902H39.1047V6.00459C39.1047 5.62158 38.998 5.31608 38.7845 5.0881C38.571 4.85555 38.2463 4.73928 37.8102 4.73928C37.4332 4.73928 37.1243 4.83503 36.8836 5.02654C36.6429 5.21349 36.5225 5.45287 36.5225 5.74469H34.8668C34.8668 5.33888 35.0008 4.96043 35.2688 4.60933C35.5368 4.25367 35.9002 3.97553 36.359 3.77491C36.8223 3.57428 37.3378 3.47397 37.9056 3.47397C38.7686 3.47397 39.4568 3.69283 39.97 4.13056C40.4833 4.56373 40.7467 5.17473 40.7604 5.96356V9.30124C40.7604 9.96696 40.8535 10.4982 41.0397 10.8949V11.0111H39.35ZM37.5309 9.81421C37.8579 9.81421 38.1645 9.73442 38.4507 9.57483C38.7414 9.41524 38.9594 9.20093 39.1047 8.93191V7.53665H38.2122C37.599 7.53665 37.138 7.6438 36.8291 7.8581C36.5202 8.07241 36.3658 8.37563 36.3658 8.76776C36.3658 9.08694 36.4702 9.34228 36.6792 9.53379C36.8927 9.72074 37.1766 9.81421 37.5309 9.81421Z"
          fill="white" style=""/>
    <path d="M44.2556 11.0111H42.6V0.505615H44.2556V11.0111Z" fill="white"/>
    <path d="M47.8258 11.0111H46.1702V0.505615H47.8258V11.0111Z" fill="white" style=""/>
    <path d="M52.8813 11.1479C51.832 11.1479 50.9804 10.8173 50.3263 10.1562C49.6768 9.49047 49.352 8.60589 49.352 7.50245V7.29726C49.352 6.5586 49.4928 5.89972 49.7744 5.32064C50.0606 4.737 50.4603 4.28331 50.9736 3.95958C51.4868 3.63584 52.0592 3.47397 52.6905 3.47397C53.6944 3.47397 54.4688 3.79543 55.0139 4.43834C55.5635 5.08126 55.8383 5.99091 55.8383 7.16731V7.83759H51.0213C51.0712 8.44858 51.2733 8.93191 51.6276 9.28757C51.9865 9.64322 52.4362 9.82105 52.9767 9.82105C53.7352 9.82105 54.353 9.51327 54.8299 8.89771L55.7225 9.75265C55.4272 10.1949 55.032 10.5392 54.5369 10.7854C54.0464 11.0271 53.4945 11.1479 52.8813 11.1479ZM52.6837 4.80768C52.2295 4.80768 51.8616 4.96727 51.58 5.28644C51.3029 5.60562 51.1257 6.05019 51.0485 6.62015H54.2031V6.49704C54.1667 5.94076 54.0191 5.52127 53.7602 5.23857C53.5013 4.95131 53.1425 4.80768 52.6837 4.80768Z"
          fill="white"/>
    <path d="M60.9892 5.12913C60.7711 5.09266 60.5463 5.07442 60.3146 5.07442C59.5561 5.07442 59.0451 5.36624 58.7816 5.94988V11.0111H57.126V3.61076H58.7067L58.7476 4.43834C59.1473 3.79543 59.7014 3.47397 60.41 3.47397C60.6462 3.47397 60.8415 3.50589 60.996 3.56972L60.9892 5.12913Z"
          fill="white"/>
    <path d="M64.7365 8.63097L66.2354 3.61076H68.0001L65.0704 12.1328C64.6207 13.3776 63.8576 14 62.7811 14C62.5403 14 62.2746 13.959 61.9839 13.8769V12.5911L62.2973 12.6116C62.7152 12.6116 63.0286 12.5341 63.2376 12.379C63.451 12.2286 63.6191 11.9732 63.7417 11.613L63.9802 10.9769L61.3912 3.61076H63.1762L64.7365 8.63097Z"
          fill="white"/>
</svg>
