<svg class="f-btn-ua" width="43" height="9" viewBox="0 0 43 9" fill="none" xmlns="http://www.w3.org/2000/svg" style="">
    <path d="M5.08252 8.22363H4.26221V7H0.984375V8.22363H0.150391L0.123047 6.30957H0.522949C0.721191 6.11816 0.879557 5.84017 0.998047 5.47559C1.11654 5.10872 1.19287 4.69401 1.22705 4.23145L1.35693 2.02344H4.49463V6.30957H5.12695L5.08252 8.22363ZM1.50049 6.30957H3.6333V2.7207H2.18066L2.09863 4.12207C2.03711 5.05859 1.83773 5.78776 1.50049 6.30957Z"
          fill="white"/>
    <path d="M9.66602 4.6416C9.66602 5.12923 9.58171 5.55762 9.41309 5.92676C9.24447 6.29362 9.00293 6.57617 8.68848 6.77441C8.3763 6.97038 8.01628 7.06836 7.6084 7.06836C7.20508 7.06836 6.84505 6.97038 6.52832 6.77441C6.21387 6.57617 5.97005 6.29476 5.79688 5.93018C5.62598 5.56559 5.53939 5.14518 5.53711 4.66895V4.38867C5.53711 3.90332 5.62256 3.47493 5.79346 3.10352C5.96663 2.7321 6.20931 2.4484 6.52148 2.25244C6.83594 2.0542 7.19596 1.95508 7.60156 1.95508C8.00716 1.95508 8.36605 2.05306 8.67822 2.24902C8.99268 2.44271 9.23535 2.72298 9.40625 3.08984C9.57715 3.45443 9.66374 3.87939 9.66602 4.36475V4.6416ZM8.80127 4.38184C8.80127 3.8304 8.69645 3.40771 8.48682 3.11377C8.27946 2.81982 7.98438 2.67285 7.60156 2.67285C7.22786 2.67285 6.93506 2.81982 6.72314 3.11377C6.51351 3.40544 6.40641 3.81901 6.40186 4.35449V4.6416C6.40186 5.18848 6.50781 5.61117 6.71973 5.90967C6.93392 6.20817 7.23014 6.35742 7.6084 6.35742C7.99121 6.35742 8.28516 6.21159 8.49023 5.91992C8.69759 5.62826 8.80127 5.20215 8.80127 4.6416V4.38184Z"
          fill="white"/>
    <path d="M14.3247 5.37988C14.2746 5.91081 14.0786 6.32552 13.7368 6.62402C13.395 6.92025 12.9404 7.06836 12.373 7.06836C11.9766 7.06836 11.6268 6.97494 11.3237 6.78809C11.0229 6.59896 10.7905 6.33122 10.6265 5.98486C10.4624 5.63851 10.377 5.23633 10.3701 4.77832V4.31348C10.3701 3.84408 10.4533 3.4305 10.6196 3.07275C10.786 2.71501 11.0241 2.43929 11.334 2.24561C11.6462 2.05192 12.0062 1.95508 12.4141 1.95508C12.9632 1.95508 13.4053 2.10433 13.7402 2.40283C14.0752 2.70133 14.27 3.12288 14.3247 3.66748H13.4634C13.4224 3.30973 13.3175 3.05225 13.1489 2.89502C12.9826 2.73551 12.7376 2.65576 12.4141 2.65576C12.0381 2.65576 11.7487 2.79362 11.5459 3.06934C11.3454 3.34277 11.2428 3.74495 11.2383 4.27588V4.7168C11.2383 5.25456 11.334 5.66471 11.5254 5.94727C11.7191 6.22982 12.0016 6.37109 12.373 6.37109C12.7126 6.37109 12.9678 6.29476 13.1387 6.14209C13.3096 5.98942 13.4178 5.73535 13.4634 5.37988H14.3247Z"
          fill="white" style=""/>
    <path d="M19.0142 2.02344V7H18.1528V2.7207H16.6284L16.5396 4.64502C16.5054 5.24658 16.4313 5.7137 16.3174 6.04639C16.2057 6.37679 16.0428 6.61833 15.8286 6.771C15.6144 6.92367 15.3273 7 14.9673 7H14.7485V6.30957L14.8853 6.29932C15.0835 6.28109 15.2362 6.21159 15.3433 6.09082C15.4526 5.97005 15.5347 5.78776 15.5894 5.54395C15.6463 5.29785 15.6862 4.93669 15.709 4.46045L15.8047 2.02344H19.0142Z"
          fill="white"/>
    <path d="M20.9692 7H20.1079V2.02344H20.9692V7Z" fill="white"/>
    <path d="M26.6841 8.22363H25.8638V7H22.5859V8.22363H21.752L21.7246 6.30957H22.1245C22.3228 6.11816 22.4811 5.84017 22.5996 5.47559C22.7181 5.10872 22.7944 4.69401 22.8286 4.23145L22.9585 2.02344H26.0962V6.30957H26.7285L26.6841 8.22363ZM23.1021 6.30957H25.2349V2.7207H23.7822L23.7002 4.12207C23.6387 5.05859 23.4393 5.78776 23.1021 6.30957Z"
          fill="white"/>
    <path d="M31.2437 4.85352H30.6865V7H29.8252V4.85352H29.2441L28.0239 7H26.9473L28.5503 4.35107L27.0532 2.02344H28.0991L29.2886 4.10156H29.8252V2.02344H30.6865V4.10156H31.1992L32.3784 2.02344H33.4209L31.9375 4.34424L33.5269 7H32.4536L31.2437 4.85352Z"
          fill="white"/>
    <path d="M35.8477 4.62451L36.8457 2.02344H37.8062L36.0732 6.15234L35.916 6.46338C35.6882 6.86898 35.319 7.07178 34.8086 7.07178L34.4531 7.05127L34.46 6.36768C34.5146 6.37679 34.6115 6.38135 34.7505 6.38135C34.9966 6.38135 35.1698 6.27653 35.27 6.06689L35.4478 5.64648L33.7456 2.02344H34.689L35.8477 4.62451Z"
          fill="white"/>
    <path d="M41.5146 2.02344H42.3794V7H41.5146V3.45557L39.3306 7H38.4658V2.02344H39.3306V5.57129L41.5146 2.02344ZM41.542 0.755371C41.542 1.04248 41.4417 1.2749 41.2412 1.45264C41.0407 1.63037 40.7729 1.71924 40.438 1.71924C40.103 1.71924 39.8353 1.63037 39.6348 1.45264C39.4342 1.2749 39.334 1.04248 39.334 0.755371H39.9561C39.9561 0.905762 39.9982 1.02311 40.0825 1.10742C40.1691 1.18945 40.2876 1.23047 40.438 1.23047C40.5884 1.23047 40.7057 1.18945 40.79 1.10742C40.8743 1.02311 40.9165 0.905762 40.9165 0.755371H41.542Z"
          fill="white"/>
</svg>
