<svg data-tag="symbol" id="svg_social_s_instagram" width="100%" height="100%" viewBox="0 0 24 24" xmlns="http://www.w3.org/2000/svg" fill="#ffffff">
    <path d="M18,24H6c-3.3,0-6-2.7-6-6V6c0-3.3,2.7-6,6-6h12c3.3,0,6,2.7,6,6v12C24,21.3,21.3,24,18,24z M6,2 C3.8,2,2,3.8,2,6v12c0,2.2,1.8,4,4,4h12c2.2,0,4-1.8,4-4V6c0-2.2-1.8-4-4-4H6z"/>
    <path d="M12,18c-3.3,0-6-2.7-6-6s2.7-6,6-6s6,2.7,6,6S15.3,18,12,18z M12,8c-2.2,0-4,1.8-4,4c0,2.2,1.8,4,4,4 c2.2,0,4-1.8,4-4C16,9.8,14.2,8,12,8z"/>
    <circle cx="18.5" cy="5.5" r="1.5"/>
</svg>
