<svg xmlns="http://www.w3.org/2000/svg" width="24" height="24" viewBox="0 0 24 24" fill="none">
    <path d="M21.1 6.7998L14.1 2.3998C12.8 1.5998 11.1 1.5998 9.8 2.3998L2.8 6.7998C1.7 7.5998 1 8.7998 1 10.1998V17.9998C1 19.6998 2.3 20.9998 4 20.9998H20C21.7 20.9998 23 19.6998 23 17.9998V10.1998C23 8.7998 22.3 7.5998 21.1 6.7998ZM21.7 19.0998L17.2 15.2998L22 11.1998V17.9998C22 18.3998 21.9 18.6998 21.7 19.0998ZM2.4 19.0998C2.1 18.7998 2 18.3998 2 17.9998V11.1998L6.8 15.2998L2.4 19.0998ZM4 19.9998C3.7 19.9998 3.4 19.8998 3.1 19.7998L10.4 13.5998C11.3 12.7998 12.7 12.7998 13.7 13.5998L21.1 19.7998C20.8 19.9998 20.4 20.0998 20.1 20.0998H4V19.9998Z"
          fill="#256799"/>
</svg>
