<svg fill="none" viewBox="0 0 460 37" aria-label="16 видів перевірок авто"
     focusable="false" xmlns="http://www.w3.org/2000/svg">
    <path d="m0.30078 0.59998h67.4v34.9h-58.6c-4.8 0-8.7-3.9-8.7-8.7v-26.2h-0.1z" clip-rule="evenodd" fill="#E55E4C"
          fill-rule="evenodd"/>
    <path d="m17.801 23.1c-0.2 0.2-0.4 0.3-0.6 0.5s-0.5 0.3-0.8 0.5-0.6 0.3-1 0.4-0.7 0.1-1.2 0.1c-0.6 0-1.1-0.1-1.6-0.3s-0.9-0.4-1.3-0.8c-0.3-0.3-0.6-0.7-0.8-1.2s-0.3-1-0.3-1.6 0.1-1.2 0.3-1.7 0.6-0.9 1-1.3c0.4-0.3 0.9-0.6 1.5-0.8s1.2-0.3 1.9-0.3c0.5 0 1 0 1.4 0.1s0.8 0.1 1.1 0.2v-0.5c0-0.3 0-0.5-0.1-0.8s-0.2-0.5-0.4-0.7-0.5-0.4-0.8-0.5-0.7-0.2-1.2-0.2c-0.6 0-1.2 0.1-1.8 0.2s-1.2 0.3-1.9 0.6v-2.3c0.6-0.3 1.2-0.5 1.9-0.6s1.4-0.2 2.1-0.2c0.9 0 1.6 0.1 2.3 0.3 0.6 0.2 1.2 0.5 1.6 0.9s0.8 0.8 1 1.3 0.3 1.1 0.3 1.6v4.4 2c0 0.6 0 1.1 0.1 1.5h-2.6l-0.1-0.8zm-0.2-3.8c-0.3-0.1-0.6-0.1-0.9-0.2-0.4-0.1-0.7-0.1-1.1-0.1-0.7 0-1.3 0.1-1.7 0.4s-0.6 0.7-0.6 1.3c0 0.3 0 0.5 0.1 0.7s0.2 0.4 0.4 0.5 0.3 0.2 0.6 0.3c0.2 0.1 0.4 0.1 0.7 0.1s0.6 0 0.8-0.1c0.3-0.1 0.5-0.2 0.7-0.3s0.4-0.3 0.6-0.4 0.3-0.3 0.4-0.4v-1.8z"
          fill="#fff"/>
    <path d="m28.902 24.7c-1.2 0-2.2-0.2-2.9-0.6-0.8-0.4-1.4-0.9-1.8-1.6-0.2-0.4-0.4-0.8-0.5-1.2s-0.1-0.9-0.1-1.5v-7.2h2.9v6.9c0 0.4 0 0.7 0.1 1s0.1 0.5 0.3 0.7c0.2 0.4 0.5 0.6 0.8 0.8 0.4 0.2 0.8 0.3 1.3 0.3s1-0.1 1.3-0.3c0.4-0.2 0.6-0.5 0.8-0.9s0.3-0.9 0.3-1.6v-7h2.9v7.2c0 1-0.2 1.8-0.5 2.4-0.2 0.4-0.4 0.7-0.7 1s-0.6 0.6-1 0.8-0.9 0.4-1.4 0.5c-0.6 0.2-1.2 0.3-1.8 0.3z"
          fill="#fff"/>
    <path d="m44.501 24.4c-0.3 0.1-0.7 0.1999-1.2 0.1999-0.4 0.1-0.9 0.1001-1.3 0.1001-1 0-1.8-0.2-2.4-0.5s-1.1-0.8-1.3-1.4001c-0.2-0.3999-0.3-0.9999-0.3-1.7999v-6.1h-2.2v-2.4h2.2v-3.3h2.9v3.3h3.4v2.4h-3.4v5.7c0 0.5 0.1 0.8 0.2 1 0.2 0.4 0.7 0.6 1.4 0.6 0.3 0 0.7-1e-4 1-0.1001s0.6-0.0999 0.9-0.1999v2.5h0.1z"
          fill="#fff"/>
    <path d="m55.002 18.5c0-0.6-0.1-1.2-0.2-1.7s-0.3-0.9-0.6-1.2-0.6-0.6-0.9-0.7c-0.4-0.2-0.8-0.2-1.2-0.2s-0.8 0.1-1.2 0.2c-0.4 0.2-0.7 0.4-0.9 0.7-0.3 0.3-0.5 0.7-0.6 1.2s-0.2 1-0.2 1.7c0 0.6 0.1 1.2 0.2 1.7s0.3 0.9 0.6 1.2 0.6 0.6 0.9 0.7c0.4 0.2 0.8 0.2 1.2 0.2s0.8-0.1 1.2-0.2c0.4-0.2 0.7-0.4 0.9-0.7 0.3-0.3 0.5-0.7 0.6-1.2 0.2-0.5 0.2-1.1 0.2-1.7zm3 0c0 0.9-0.1 1.8-0.4 2.5-0.3 0.8-0.7 1.4-1.2 2-0.5 0.5-1.1 1-1.9 1.3-0.7 0.3-1.5 0.4-2.4 0.4s-1.8-0.1-2.5-0.4-1.4-0.7-1.9-1.3c-0.5-0.5-0.9-1.2-1.2-2s-0.4-1.6-0.4-2.5 0.1-1.8 0.4-2.5c0.3-0.8 0.7-1.4 1.2-2 0.5-0.5 1.1-1 1.9-1.3 0.7-0.3 1.5-0.4 2.4-0.4s1.8 0.1 2.5 0.4 1.4 0.7 1.9 1.3c0.5 0.5 0.9 1.2 1.2 2 0.3 0.7 0.4 1.5 0.4 2.5z"
          fill="#fff"/>
    <path d="m117 0.59998h-47.9v34.9h47.9v-34.9z" fill="#003B59"/>
    <path d="m100.2 32.2 0.1-0.7h0.7l-0.1 0.7h-0.7z" fill="#fff"/>
    <path d="m104.6 29.5c-0.1-0.1-0.2-0.1-0.4-0.1h-0.4c-0.2 0-0.3 0-0.4 0.1s-0.2 0.1-0.3 0.2-0.2 0.2-0.2 0.3c-0.1 0.1-0.1 0.2-0.2 0.4 0 0.1-0.1 0.2-0.1 0.4v0.3c0 0.2 0 0.3 0.1 0.4 0 0.1 0.1 0.2 0.2 0.3s0.2 0.1 0.3 0.1h0.3c0.2 0 0.3 0 0.5-0.1 0.2 0 0.3-0.1 0.4-0.1l-0.1 0.5s-0.1 0-0.2 0.1c-0.1 0-0.1 0-0.2 0.1h-0.2-0.2c-0.2 0-0.3 0-0.5-0.1-0.1 0-0.3-0.1-0.4-0.2s-0.2-0.2-0.3-0.4-0.1-0.4-0.1-0.6v-0.5c0-0.2 0.1-0.3 0.1-0.5 0.1-0.2 0.1-0.3 0.2-0.5 0.1-0.1 0.2-0.3 0.3-0.4s0.3-0.2 0.5-0.3 0.4-0.1 0.6-0.1h0.2 0.2c0.1 0 0.1 0 0.2 0.1 0.1 0 0.1 0 0.2 0.1l-0.1 0.5z"
          fill="#fff"/>
    <path d="m107.9 30.2v0.5c0 0.2-0.1 0.3-0.1 0.5-0.1 0.2-0.1 0.3-0.2 0.5-0.1 0.1-0.2 0.3-0.3 0.4s-0.3 0.2-0.4 0.3c-0.2 0.1-0.4 0.1-0.6 0.1s-0.3 0-0.5-0.1c-0.1-0.1-0.3-0.1-0.4-0.2s-0.2-0.2-0.2-0.4c-0.1-0.2-0.1-0.3-0.1-0.5v-0.5c0-0.2 0.1-0.3 0.1-0.5 0.1-0.2 0.1-0.3 0.2-0.5 0.1-0.1 0.2-0.3 0.3-0.4s0.3-0.2 0.4-0.3c0.2-0.1 0.4-0.1 0.6-0.1s0.3 0 0.5 0.1c0.1 0.1 0.3 0.1 0.4 0.2s0.2 0.2 0.2 0.4c0.1 0.1 0.1 0.2 0.1 0.5zm-1.2-0.9c-0.1 0-0.3 0-0.4 0.1s-0.2 0.1-0.3 0.2-0.2 0.2-0.2 0.3c-0.1 0.1-0.1 0.2-0.2 0.4 0 0.1-0.1 0.3-0.1 0.4v0.4 0.3c0 0.1 0.1 0.2 0.1 0.3l0.2 0.2c0.1 0 0.2 0.1 0.3 0.1s0.3 0 0.4-0.1 0.2-0.1 0.3-0.2 0.2-0.2 0.2-0.3c0.1-0.1 0.1-0.2 0.2-0.4 0-0.1 0.1-0.3 0.1-0.4v-0.4-0.3c0-0.1-0.1-0.2-0.1-0.2l-0.2-0.2c-0.1-0.1-0.2-0.2-0.3-0.2z"
          fill="#fff"/>
    <path d="m111.3 29.5 0.3-0.3c0.1-0.1 0.2-0.2 0.3-0.2 0.1-0.1 0.2-0.1 0.3-0.1h0.3c0.1 0 0.2 0 0.3 0.1 0.1 0 0.2 0.1 0.3 0.2l0.2 0.2c0 0.1 0.1 0.2 0.1 0.3v0.3c0 0.1 0 0.2-0.1 0.3l-0.4 2h-0.5l0.4-2.1v-0.2-0.1c0-0.2 0-0.3-0.1-0.3-0.1-0.1-0.2-0.1-0.3-0.1s-0.3 0-0.4 0.1-0.2 0.1-0.3 0.2l-0.3 0.3c-0.1 0.1-0.1 0.3-0.2 0.4l-0.4 1.8h-0.5l0.4-2.1v-0.2-0.1c0-0.2 0-0.3-0.1-0.4s-0.2-0.1-0.3-0.1-0.3 0-0.4 0.1-0.2 0.1-0.3 0.2l-0.3 0.3c-0.1 0.1-0.1 0.3-0.2 0.4l-0.4 1.8h-0.5l0.8-3.2h0.4v0.4c0.1-0.2 0.3-0.3 0.5-0.4s0.4-0.1 0.6-0.1h0.3c0.1 0 0.2 0.1 0.2 0.1l0.2 0.2c0 0.1 0.1 0.2 0.1 0.3z"
          fill="#fff"/>
    <path d="m90.701 26.1c0-0.1-0.2-0.2-0.3-0.2h-0.1c-0.1 0-0.3 0.1-0.8-0.2s-1.1-0.8-1.8-1.7c-0.7-0.8-0.8-1.3-0.9-1.5-0.1-0.3-0.3-0.2-0.3-0.2-0.5 0.1-0.9 0.5-2 0.8s-2.1-0.2-2.1-0.2 1.8-0.5 2.6-0.9c0.2-0.1 0.5-0.3 0.8-0.4 1-0.5 1.4-1.7 1.1-2.8l-0.1-0.2c-0.4-1.1-1.4-1.6-2.4-1.4-0.4 0.1-0.8 0.1-1.3 0.2-2 0.4-8.7 2.2-8.7 2.2-0.1 0-0.2 0.2-0.2 0.3s0.2 0.2 0.3 0.2h0.1c0.2 0 0.7-0.2 1 0.6s1.9 7.1 2 7.6 0 0.8-0.2 1c-0.1 0.1-0.4 0.2-0.5 0.3-0.1 0-0.2 0.1-0.1 0.3 0 0.1 0.1 0.2 0.2 0.1 0 0 6.3-1.6 6.4-1.7 0.1 0 0.1-0.1 0.1-0.1v-0.1c0-0.1-0.1-0.2-0.3-0.2-0.1 0-0.4 0.1-0.6 0-0.2 0-0.4-0.2-0.6-0.7s-1-3.7-1-3.7l1-0.3 3.1 4.4 0.1 0.1 5.3-1.4c0.2 0 0.2-0.1 0.2-0.2zm-9.8-3.1s-0.7-2.9-0.8-3.2c0-0.1-0.1-0.3-0.1-0.5 0-0.3 0.2-0.6 0.5-0.7l1-0.3c0.3-0.1 0.5 0 0.7 0.3s0.3 0.8 0.5 1.5 0.3 1.2 0.3 1.7c0 0.4-0.2 0.7-0.6 0.8l-1.5 0.4z"
          fill="#fff">/
    </path>
    <path d="m91.701 25.9c0-0.1 0-0.3 0.2-0.3 0.2-0.1 0.5-0.1 0.6-0.2 0.2-0.1 0.4-0.3 0.3-0.7s-0.5-2.9-1.1-5.1-0.9-2.9-1.1-3.2-0.4-0.3-0.7-0.3c-0.1 0-0.3 0.1-0.4 0.1s-0.3 0-0.3-0.2c0-0.1 0-0.2 0.1-0.2l6.7-1.8c0.1 0 0.2 0 0.2 0.1 0 0.2 0 0.3-0.2 0.4s-0.5 0.1-0.6 0.3c-0.3 0.2-0.3 0.5-0.2 1s0.3 1.7 0.5 2.3c0.2 0.7 0.7 2.7 0.9 3.4s0.3 1.3 0.5 1.6c0.1 0.3 0.3 0.6 0.4 0.8 0.1 0.1 0.2 0.2 0.5 0.2s0.4 0 0.6-0.1h0.1c0.2-0.1 0.3 0.2 0.3 0.2 0 0.1 0 0.1-0.1 0.1l-7 1.7c-0.1 0-0.2 0-0.2-0.1z"
          fill="#fff"/>
    <path d="m112.7 20.5c-0.1-0.2-0.2-0.3-0.3-0.2-0.2 0-0.5 0.1-0.5 0.1-0.2 0-0.5-0.2-1-0.7s-0.7-0.8-1.6-2.1c-0.8-1.1-3.9-5.3-4.6-6.3-0.1-0.1-0.2-0.1-0.3 0l-1.4 1.4c-0.8 0.8-2.1 1.1-2.3 1.2s-0.4 0.2-0.3 0.3 0.3 0.1 0.8 0.2 0.7 0.4 0.7 0.4 0 0.5-0.2 2.2c-0.1 1.7-0.2 2.3-0.5 3.8s-0.9 2.2-1.2 2.6c-0.1998 0.2-0.3998 0.4-0.5998 0.4-0.1 0.1-0.2 0.2-0.1 0.3l0.1 0.1 5.1998-1.4 0.1-0.1c0-0.1-0.2-0.2-0.3-0.2h-0.1c-0.1 0-0.5 0-0.9-0.3-0.4-0.2-0.8-0.5-1.1-1.1-0.2-0.4-0.2-1.7-0.2-1.7l2.6-0.7s0.2 0.2 0.5 0.6 0.7 1 0.9 1.6c0.2 0.5-0.1 0.9-0.3 1-0.1 0.1-0.3 0.2-0.5 0.2-0.1 0.1-0.2 0.2-0.2 0.4l0.1 0.1 7.3-1.9 0.2-0.2zm-10.6-1.6 0.2-3.7 2.1 3-2.3 0.7z"
          fill="#fff"/>
    <path d="m88.001 11.4-4.8-0.7 5.2-1.3 1-3.6 3.1 2.7 9.3998-2.1-7.2998 4.1 2.6 2.2-5.5-0.7-5 3 1.3-3.6z"
          clip-rule="evenodd" fill="#fff" fill-rule="evenodd"/>
    <path d="m150.1 31.3h-5.7v-17.8h-5.9v17.8h-5.7v-22.2h17.2v22.2h0.1z" fill="#003B59"/>
    <path d="m168.1 31.3h-14.9v-22.2h14.7l-1.1 4.3h-7.9v4.3h7.7v4.3h-7.7v5.1h9.3v4.2h-0.1z" fill="#003B59"/>
    <path d="m176.1 24.5 0.1 6.9h-5.7v-22.3h7.8c2.6 0 4.6 0.6 6.2 2 1.6 1.3 2.4 3.2 2.4 5.7 0 2.3-0.9 4.2-2.6 5.6s-4 2-6.9 2h-1.3v0.1zm0-4.3h1.6c1.9 0 3.2-1.1 3.2-3.4s-1.1-3.4-3.3-3.4h-1.5v6.8z"
          fill="#003B59"/>
    <path d="m203.9 31.3h-14.9v-22.2h14.7l-1.1 4.3h-7.9v4.3h7.7v4.3h-7.7v5.1h9.3v4.2h-0.1z" fill="#003B59"/>
    <path d="m216.1 31.3h-9.9v-22.2h9.5c1.9 0 3.5 0.5 4.8 1.5 1.3 1 1.9 2.3 1.9 4.2 0 2.4-1.5 4.1-3.3 4.7v0.1c2.7 0.7 4.1 2.6 4.1 5.7 0 4.4-4.2 6-7.1 6zm-2.1-17.9h-2.1v4.3h2c1.8 0 2.7-0.7 2.7-2.2 0-1.3-1-2.1-2.6-2.1zm0.7 8.5h-2.7v5.1h2.5c1.8 0 2.9-1 2.9-2.5-0.1-1.6-1.2-2.6-2.7-2.6z"
          fill="#003B59"/>
    <path d="m231.9 31.3h-5.7v-22.2h5.7v22.2z" fill="#003B59"/>
    <path d="m240.9 24.5 0.1 6.9h-5.7v-22.3h7.8c2.6 0 4.6 0.6 6.2 2 1.6 1.3 2.4 3.2 2.4 5.7 0 2.3-0.9 4.2-2.6 5.6s-4 2-6.9 2h-1.3v0.1zm0-4.3h1.6c1.9 0 3.2-1.1 3.2-3.4s-1.1-3.4-3.3-3.4h-1.5v6.8z"
          fill="#003B59"/>
    <path d="m268.8 31.3h-14.9v-22.2h14.7l-1.1 4.3h-7.9v4.3h7.7v4.3h-7.7v5.1h9.3v4.2h-0.1z" fill="#003B59"/>
    <path d="m288.3 31.3h-5.7v-9.3h-5.9v9.3h-5.7v-22.2h5.7v8.6h5.9v-8.6h5.7v22.2z" fill="#003B59"/>
    <path d="m291.1 20.2c0-7.7 3.2-11.5 9.7-11.5s9.7 3.9 9.7 11.5c0 7.7-3.2 11.5-9.7 11.5-6.9 0-9.7-4.1-9.7-11.5zm12.7-5.2c-0.5-1.5-1.5-2.2001-3-2.2001-2.9 0-3.7 2.6001-3.7 7.4001 0 2.3 0.2 3.8 0.7 5.2s1.5 2.1 3 2.1c2.7 0 3.8-2.3 3.8-7.3-0.1-2.3-0.3-3.8-0.8-5.2z"
          fill="#003B59"/>
    <path d="m339.3 31.3h-5.7v-17.9h-3.5l-0.4 5.4-0.2 2.3c-0.1 0.6-0.2 1.3-0.3 2.1s-0.2 1.5-0.3 2c-0.2 1-0.6 2.5-1 3.2s-1 1.8-1.8 2.3c-1.2 0.7-2.6 1.2-4.7 1.2l-1.1-4.3c1.5 0 2.5-0.5 3-1.5s0.8-3.1 1-6.1l0.8-10.7h14.1v22h0.1z"
          fill="#003B59"/>
    <path d="m367.9 28.4c-1.4 2.1-3.9 3.3999-7.2 3.3999-5.6 0-8.6-3.1999-9.1-9.7999h-3.6v9.2999h-5.7v-22.2h5.7v8.6h3.6c0.5-5.6 3.4-9 9-9 6.1 0 9.2 3.9 9.2 11.5 0.1 3.4-0.5 6-1.9 8.2zm-7.2-15.5c-2.7 0-3.5 2.4999-3.5 7.3999 0 4.8 0.8 7.3 3.5 7.3 1 0 1.7-0.3 2.3-1 1.1-1.3 1.3-3.1 1.3-6.3-0.1-4.9-0.9-7.3999-3.6-7.3999z"
          fill="#003B59"/>
    <path d="m377.2 9.1h14.5v17.9h2.9v9.2h-4.6v-5h-14v5h-4.6v-9.2h2.4c1.6-1.9 2.3-4.2 2.5-7.8l0.9-10.1zm8.8 18v-13.7h-3.9l-0.5 5.5c-0.3 4-0.9 6.8-1.8 8.1h6.2v0.1z"
          fill="#003B59"/>
    <path d="m405.2 31.3h-9v-22.2h5.7v8.6h3c5.3 0 8.4 2.5 8.4 6.8 0.1 4.1-2.8 6.8-8.1 6.8zm-0.8-9.4h-2.4v5.2h2.4c1.9 0 3.1-1 3.1-2.7-0.1-1.7-1.6-2.5-3.1-2.5z"
          fill="#003B59"/>
    <path d="m427.3 22.1 1.7-4.4 3.7-8.6h5.7v22.2h-5.7v-7.9l0.1-3.1-0.1-0.1-1.2 2.9-2.1 4.7h-4.4l-1.9-4.3-1.4-3.4h-0.2l0.1 3.9v7.2h-5.6v-22.1h6l3.7 8.8 1.6 4.2z"
          fill="#003B59"/>
    <path d="m446.9 31.3h-5.5v-22.2h5.6v8.7l-0.1 4h0.1l2-3.8 4.9-8.9h5.5v22.2h-5.6v-9.6l0.2-3.4-1.7 3.2-5.4 9.8z"
          fill="#003B59"/>
</svg>
