<svg xmlns="http://www.w3.org/2000/svg" width="24" height="24" viewBox="0 0 24 24" fill="none">
    <path d="M20 14H19V13H20C20.6 13 21 12.6 21 12V4C21 3.4 20.6 3 20 3H8C7.4 3 7 3.4 7 4V6H6V4C6 2.9 6.9 2 8 2H20C21.1 2 22 2.9 22 4V12C22 13.1 21.1 14 20 14Z"
          fill="#219BE7"/>
    <path d="M2 17V9C2 7.89543 2.89543 7 4 7H16C17.1046 7 18 7.89543 18 9V17C18 18.1046 17.1046 19 16 19H13V22.2757C13 22.543 12.6769 22.6769 12.4879 22.4879L9 19H4C2.89543 19 2 18.1046 2 17Z"
          fill="#219BE7"/>
</svg>
