<svg xmlns="http://www.w3.org/2000/svg" width="24" height="24" viewBox="0 0 24 24" fill="none">
    <g id="Icon 24 R / i24_phone">
        <path id="Vector"
              d="M16.8116 22C13.3623 22 9.81159 18.5 7.27536 15.9C6.86957 15.5 6.56522 15.2 6.26087 14.9C3.62319 12.4 2 9.4 2 7C2 1.4 5.95652 1 6.15942 1C6.26087 1 6.36232 1 6.36232 1C8.89855 2 10.3188 3.2 10.5217 4.8C10.8261 6.8 9.10145 8.6 7.98551 9.5C7.88406 9.5 7.88406 9.6 7.88406 9.7C7.88406 9.8 7.88406 9.8 7.98551 9.9L14.0725 15.9C14.0725 15.9 14.1739 16 14.2754 16C14.3768 16 14.3768 16 14.4783 15.9C15.2899 15.1 17.0145 13.6 18.8406 13.6C20.6667 13.6 21.9855 15 23 17.6C23 17.7 23 17.7 23 17.8C22.8985 18 22.3913 21.9 16.8116 22Z"
              fill="#79BE00"/>
        <path id="Vector 2" d="M19.5 3L21 4.5L18 7.5L19.5 9L15 9L15 4.5L16.5 6L19.5 3Z" fill="#79BE00"/>
    </g>
</svg>
