<svg data-tag="symbol" id="svg_social_s_tlg" width="100%" height="100%" viewBox="0 0 24 24"
     xmlns="http://www.w3.org/2000/svg">
    <path d="M2.35338 11.6301L6.96044 13.4079L8.74725 19.3337C8.8606 19.7127 9.31397 19.8505 9.60733 19.6024L12.1742 17.4388C12.4409 17.2114 12.8276 17.1976 13.1076 17.4113L17.7413 20.8909C18.0614 21.1321 18.5147 20.953 18.5948 20.5533L21.9884 3.67854C22.075 3.24444 21.6617 2.87925 21.2616 3.03773L2.34671 10.5828C1.88001 10.7688 1.88667 11.451 2.35338 11.6301ZM8.46056 12.4639L17.468 6.73102C17.628 6.62766 17.7947 6.85505 17.6547 6.98597L10.2207 14.1314C9.96069 14.3794 9.79401 14.7171 9.74067 15.0823L9.48732 17.0185C9.45398 17.2803 9.10062 17.301 9.03395 17.0529L8.06053 13.5181C7.95385 13.1185 8.11387 12.6844 8.46056 12.4639Z"
          fill="#fff" xmlns="http://www.w3.org/2000/svg"/>
</svg>
