<svg data-tag="symbol" id="svg_social_s_twitter" width="100%" height="100%" viewBox="0 0 44 38" xmlns="http://www.w3.org/2000/svg" fill="#ffffff">
    <path d="M43.71 4.52a13.59 13.59 0 0 1-5 1.5A9.28 9.28 0 0 0 42.53.86a19.57 19.57 0 0 1-5.72 2.33 8.62 8.62 0 0 0-6.39-3 9.19 9.19 0 0 0-8.91 9.49 9.4 9.4 0 0 0 .17 2.16A24.69 24.69 0 0 1 3.35 2a9 9 0 0 0-1.18 4.85A9.44 9.44 0 0 0 6 14.67a8.16 8.16 0 0 1-4-1.17v.17A9.55 9.55 0 0 0 9.06 23a10 10 0 0 1-2.35.33A5.78 5.78 0 0 1 5 23.16a8.73 8.73 0 0 0 8.24 6.49 17.28 17.28 0 0 1-10.93 4 10.45 10.45 0 0 1-2.19-.17 24.06 24.06 0 0 0 13.62 4.33C30.1 37.81 39 23.46 39 11l.81-1.82a19 19 0 0 0 3.9-4.66z"/>
</svg>
