<svg xmlns="http://www.w3.org/2000/svg" width="24" height="24" viewBox="0 0 24 24" fill="none">
    <path d="M12 1.5C6.55 1.5 1.5 2.38 1.5 10.5C1.5 15.7 3.58 17.93 6.5 18.86V21.47C6.47779 21.6896 6.52883 21.9103 6.64518 22.0978C6.76153 22.2854 6.93664 22.4292 7.14323 26.5068C7.34982 22.5844 7.57629 22.5915 7.78733 22.5269C7.99837 22.4624 8.18214 22.3299 8.31 22.15L10.65 19.48H12C17.45 19.48 22.5 18.61 22.5 10.48C22.5 2.35 17.45 1.5 12 1.5Z"
          fill="#7C59EC"/>
    <path d="M8.50013 13.5C9.80013 14.8 12.6701 16.5 14.0001 16.5C14.5836 16.506 15.1511 16.3102 15.6067 15.9457C16.0623 15.5813 16.3779 15.0705 16.5001 14.5V13.5C16.5001 13.5 15.2701 12.9 14.5001 12.5C13.7301 12.1 12.5001 13.5 12.5001 13.5C11.5643 13.1951 10.7096 12.6823 10.0001 12C9.31784 11.2906 8.80502 10.4359 8.50013 9.5C8.50013 9.5 9.90014 8.27 9.50013 7.5C9.10013 6.73 8.50013 5.5 8.50013 5.5H7.50013C6.92962 5.62219 6.41888 5.93782 6.0544 6.39341C5.68992 6.84901 5.49411 7.41658 5.50013 8C5.50013 9.33 7.20013 12.2 8.50013 13.5Z"
          fill="white"/>
    <path d="M12 8.5C12.3978 8.5 12.7794 8.65804 13.0607 8.93934C13.342 9.22064 13.5 9.60218 13.5 10" stroke="white"
          stroke-linecap="round" stroke-linejoin="round"/>
    <path d="M12 4.5C13.4587 4.5 14.8576 5.07946 15.8891 6.11091C16.9205 7.14236 17.5 8.54131 17.5 10" stroke="white"
          stroke-linecap="round" stroke-linejoin="round"/>
    <path d="M12 6.5C12.9283 6.5 13.8185 6.86875 14.4749 7.52513C15.1313 8.1815 15.5 9.07174 15.5 10" stroke="white"
          stroke-linecap="round" stroke-linejoin="round"/>
</svg>
