<svg id="audi" viewBox="0 0 80 50" xmlns="http://www.w3.org/2000/svg" fill="#767676">
    <path d="m69.547 39.625c0.027 2.131-0.601 4.072-1.756 5.826-0.936 1.422-2.186 2.557-3.705 3.342-1.171 0.604-2.408 1.016-3.744 1.143-1.982 0.188-3.871-0.094-5.654-0.984-0.561-0.281-1.104-0.604-1.625-0.954-0.232-0.154-0.391-0.149-0.584 1e-3 -0.764 0.599-1.612 1.045-2.518 1.37-0.879 0.313-1.793 0.479-2.73 0.575-1.456 0.152-2.846-0.078-4.217-0.504-1.008-0.314-1.919-0.843-2.772-1.462-0.185-0.134-0.309-0.144-0.482-0.013-0.79 0.604-1.653 1.078-2.594 1.396-0.845 0.285-1.698 0.566-2.608 0.563-0.742-1e-3 -1.493 0.071-2.223-0.021-0.803-0.102-1.62-0.264-2.363-0.565-0.869-0.354-1.67-0.882-2.492-1.348-0.213-0.122-0.358-0.154-0.583 0.013-0.851 0.629-1.767 1.145-2.789 1.445-0.807 0.239-1.619 0.407-2.469 0.498-1.638 0.174-3.189-0.092-4.695-0.676-1.112-0.432-2.118-1.055-3.016-1.857-0.957-0.855-1.733-1.847-2.322-2.982-0.607-1.182-0.955-2.434-1.096-3.764-0.16-1.52 0.015-2.988 0.51-4.411 0.824-2.388 2.344-4.228 4.526-5.522 1.351-0.799 2.796-1.229 4.364-1.377 1.493-0.143 2.931 0.076 4.326 0.527 0.958 0.31 1.87 0.781 2.674 1.414 0.211 0.166 0.371 0.173 0.589 8e-3 1.245-0.949 2.659-1.545 4.188-1.82 1.092-0.195 2.197-0.213 3.318-0.062 1.237 0.167 2.375 0.567 3.479 1.092 0.458 0.218 0.855 0.563 1.296 0.825 0.101 0.059 0.3 0.064 0.394 3e-3 0.92-0.618 1.872-1.175 2.941-1.495 0.859-0.258 1.731-0.414 2.632-0.496 1.429-0.133 2.809 0.098 4.123 0.549 0.955 0.328 1.814 0.937 2.701 1.447 0.184 0.105 0.266 0.101 0.445-4e-3 0.842-0.486 1.675-1.003 2.563-1.386 0.627-0.271 1.334-0.376 2.014-0.495 0.572-0.102 1.162-0.177 1.74-0.16 1.943 0.057 3.755 0.563 5.418 1.617 1.512 0.959 2.675 2.234 3.537 3.771 0.615 1.092 0.994 2.287 1.145 3.54 0.053 0.464 0.077 0.929 0.114 1.393m-14.936-6.379c0.414 0.75 0.859 1.489 1.238 2.26 0.557 1.125 0.803 2.34 0.844 3.586 0.02 0.613 4e-3 1.237-0.084 1.842-0.11 0.752-0.252 1.508-0.488 2.224-0.319 0.964-0.814 1.852-1.408 2.681-0.047 0.067-0.043 0.26 6e-3 0.295 1.389 0.984 2.96 1.445 4.641 1.433 0.712-5e-3 1.439-0.179 2.131-0.378 1.939-0.561 3.412-1.758 4.449-3.481 1.383-2.298 1.541-4.712 0.5-7.161-0.838-1.967-2.283-3.372-4.279-4.198-1.258-0.522-2.572-0.694-3.904-0.534-1.344 0.158-2.597 0.638-3.646 1.431m-29.213 0.01c-3.6-2.537-8.265-1.738-10.822 1.548-2.299 2.954-2.3 7.091 0.276 10.042 2.65 3.033 7.086 3.674 10.538 1.203-2.856-4.262-2.879-8.516 8e-3 -12.793m3.641-0.014c0.417 0.771 0.862 1.525 1.241 2.311 0.492 1.016 0.751 2.102 0.79 3.23 0.021 0.594 5e-3 1.188 4e-3 1.781-4e-3 0.922-0.27 1.791-0.564 2.649-0.318 0.926-0.785 1.778-1.375 2.561-0.119 0.157-0.171 0.297 0.032 0.417 0.294 0.174 0.581 0.361 0.886 0.511 1.573 0.771 3.222 1.03 4.949 0.72 1.159-0.209 2.219-0.662 3.173-1.359-2.833-4.288-2.871-8.545 0.014-12.801-2.597-1.938-6.463-2.037-9.15-0.02m12.759 0.063c0.306 0.483 0.62 0.924 0.878 1.396 0.609 1.117 0.978 2.305 1.154 3.577 0.155 1.108 0.143 2.208-0.057 3.278-0.287 1.529-0.872 2.969-1.831 4.225-0.149 0.193-0.134 0.32 0.079 0.432 0.509 0.27 1.006 0.565 1.531 0.802 0.915 0.409 1.904 0.528 2.889 0.554 0.572 0.016 1.154-0.113 1.72-0.23 1.036-0.216 1.969-0.672 2.886-1.32-1.518-1.86-2.209-4.025-2.215-6.35-6e-3 -2.326 0.686-4.49 2.17-6.336-2.391-2.05-6.773-2.085-9.204-0.028m-14.605 10.912c2.069-2.725 1.921-6.672 5e-3 -9.109-2.038 2.66-1.938 6.558-5e-3 9.109m25.595-9.153c-2.007 2.672-1.978 6.594 9e-3 9.17 1.791-2.439 2.167-6.181-9e-3 -9.17m-12.816 0.055c-1.782 2.344-2.151 6.186 0.024 9.129 2.266-3.08 1.685-7.115-0.024-9.129"
          class="st0"/>
</svg>
