<svg id="bmw" viewBox="0 0 80 50" xmlns="http://www.w3.org/2000/svg" fill="#767676">
    <path d="m40.005 10.369c10.631-0.115 19.854 8.632 19.816 19.833-0.037 11.017-8.933 19.849-19.927 19.798-10.906-0.05-19.74-8.945-19.715-19.852 0.027-10.951 8.904-19.807 19.826-19.779m19.131 19.819c-0.027-10.665-8.574-19.171-19.25-19.158-10.473 0.013-19.031 8.641-19.018 19.174 0.018 10.629 8.592 19.113 19.299 19.092 10.416-0.025 18.994-8.664 18.969-19.108"/>
    <path d="m58.329 30.146c0.016 10.108-8.135 18.35-18.152 18.361-10.33 0.012-18.492-8.076-18.504-18.338-0.012-10.248 8.176-18.339 18.563-18.343 9.917-3e-3 18.079 8.26 18.093 18.32m-6.598 0.042c0.014-6.441-5.244-11.728-11.686-11.746-6.475-0.021-11.746 5.225-11.771 11.715-0.027 6.464 5.234 11.717 11.74 11.724 6.46 6e-3 11.706-5.23 11.717-11.693m-0.675-13.678c-1.027 1.324-2.025 2.607-3.033 3.904 0.16 0.201 0.318 0.355 0.422 0.543 0.285 0.521 0.643 0.549 1.15 0.294 0.646-0.321 1.332-0.562 2.004-0.837 0.016 0.032 0.033 0.065 0.051 0.099-0.539 0.79-1.074 1.577-1.619 2.38 0.301 0.376 0.58 0.726 0.883 1.103 1.484-0.722 2.941-1.429 4.439-2.155-0.117-0.154-0.205-0.245-0.264-0.352-0.287-0.541-0.643-0.588-1.168-0.282-0.611 0.354-1.273 0.615-1.916 0.916-0.016-0.027-0.033-0.056-0.053-0.084 0.549-0.784 1.1-1.567 1.662-2.368-0.271-0.337-0.531-0.658-0.799-0.991-0.924 0.388-1.805 0.757-2.686 1.128-0.016-0.027-0.029-0.056-0.047-0.082 0.578-0.76 1.15-1.52 1.729-2.281-0.265-0.33-0.492-0.61-0.755-0.935m-22.209 7.383c0.289-0.339 0.564-0.65 0.826-0.969 0.623-0.752 1.262-1.494 1.861-2.268 0.33-0.432 0.402-0.923 0.074-1.416-0.313-0.471-0.791-0.674-1.361-0.568-0.102 0.02-0.199 0.047-0.328 0.076 0.029-0.732-0.311-1.246-0.938-1.47-0.656-0.233-1.092 0.24-1.475 0.684-0.791 0.917-1.561 1.853-2.369 2.815 1.245 1.044 2.462 2.067 3.71 3.116m9.424-9.244c0.043-0.01 0.086-0.019 0.131-0.028 0.328 0.875 0.674 1.744 0.979 2.627 0.117 0.336 0.297 0.42 0.635 0.435 0.441 0.019 0.697-0.097 0.822-0.548 0.131-0.471 0.332-0.921 0.506-1.378 0.141-0.366 0.283-0.729 0.424-1.096 0.039 0.013 0.08 0.022 0.119 0.033v2.933h0.928v-4.743c-1.375-0.162-1.375-0.162-1.836 1.036-0.283 0.734-0.564 1.471-0.889 2.318-0.422-1.098-0.787-2.064-1.172-3.022-0.057-0.146-0.203-0.344-0.324-0.358-0.404-0.046-0.816-0.018-1.232-0.018v4.784h0.91v-2.975z"/>
    <path d="m39.985 30.209c-2.594-8e-3 -5.188-0.018-7.781-0.025-1.033-4e-3 -2.063-2e-3 -3.092-2e-3 -0.375-5.445 4.68-11.147 10.857-10.928 0.012 0.099 0.033 0.203 0.033 0.306 2e-3 3.449 2e-3 6.896 0 10.344 0 0.107-0.021 0.214-0.037 0.321l0.02-0.016z"/>
    <path d="m39.966 30.226c0.129-0.016 0.252-0.044 0.379-0.044 3.41-3e-3 6.822-3e-3 10.232-2e-3 0.107 0 0.213 0.015 0.32 0.022 0.352 5.64-4.955 11.169-10.91 10.874v-10.867l-0.021 0.017z"/>
    <path d="m29.034 22.413c-0.346-0.291-0.629-0.534-0.945-0.8 0.504-0.598 0.969-1.169 1.453-1.726 0.25-0.284 0.564-0.346 0.863-0.087 0.283 0.245 0.338 0.563 0.092 0.867-0.467 0.575-0.951 1.136-1.463 1.746"/>
    <path d="m27.487 21.108c-0.328-0.273-0.59-0.491-0.908-0.751 0.49-0.581 0.934-1.169 1.455-1.679 0.129-0.128 0.568-0.095 0.75 0.03 0.135 0.092 0.199 0.536 0.096 0.684-0.41 0.588-0.899 1.122-1.393 1.716"/>
</svg>
