<svg id="chevrolet" viewBox="0 0 80 50" xmlns="http://www.w3.org/2000/svg" fill="#767676">
    <path d="m52.106 50h-24.263v-4.653h-20.606c0.047-0.102 0.076-0.169 0.107-0.234 0.451-0.92 0.9-1.838 1.35-2.758 1.77-3.631 3.539-7.262 5.307-10.893 0.072-0.147 0.154-0.204 0.324-0.204 4.434 7e-3 8.865 5e-3 13.297 5e-3h0.297v-4.922h1.348c6.756 2e-3 13.51 2e-3 20.264 2e-3 0.08 0 0.16-0.021 0.238-0.031h2.377c6e-3 0.074 0.016 0.149 0.016 0.224 0 1.339 0 2.677 2e-3 4.017 0 0.424 0 0.424 0.414 0.424 6.654 0 13.305-1e-3 19.957-1e-3h0.229c-0.043 0.094-0.068 0.161-0.1 0.227-1.096 2.243-2.193 4.485-3.287 6.729-1.121 2.301-2.244 4.6-3.357 6.902-0.08 0.16-0.166 0.223-0.354 0.223-4.445-8e-3 -8.893-6e-3 -13.338-6e-3h-0.221v4.949zm-3.99-19.659h-16.293v4.832h-0.223c-4.947 0-9.893 2e-3 -14.838-6e-3 -0.225 0-0.334 0.072-0.43 0.271-0.902 1.897-1.813 3.791-2.721 5.688-0.1 0.205-0.193 0.412-0.305 0.65h18.521v4.361h16.293v-4.991h0.371c4.926-1e-3 9.848-1e-3 14.775 0 0.127 0 0.219-5e-3 0.287-0.152 0.906-1.903 1.822-3.805 2.732-5.705 0.111-0.237 0.225-0.475 0.355-0.751h-18.524v-4.197z"/>
</svg>
