<svg id="daewoo" viewBox="0 0 80 50" xmlns="http://www.w3.org/2000/svg" fill="#767676">
    <path d="m38.333 22.099h3.418c0.043 0.02 0.084 0.05 0.129 0.058 0.986 0.139 1.924 0.437 2.829 0.846 0.886 0.4 1.71 0.891 2.464 1.488-3.41 4.595-4.879 9.898-5.906 15.37 0.063-0.085 0.097-0.183 0.125-0.282 0.246-0.833 0.438-1.686 0.744-2.496 0.517-1.375 1.044-2.752 1.679-4.074 0.573-1.198 1.226-2.372 1.974-3.469 0.747-1.098 1.627-2.109 2.504-3.111 0.383-0.435 0.875-0.798 1.373-1.104 0.928-0.563 1.924-0.468 2.934-0.213 3.19 0.808 6.277 1.895 9.223 3.358 1.15 0.57 2.254 1.241 3.363 1.892 0.395 0.231 0.639 0.626 0.635 1.087-2e-3 0.545-0.016 1.106-0.143 1.631-0.498 2.05-1.026 4.094-1.576 6.131-0.525 1.951-1.475 3.673-2.932 5.087-1.189 1.153-2.555 2.051-4.047 2.761-2.516 1.194-5.182 1.861-7.926 2.225-1.355 0.178-2.717 0.318-4.077 0.432-1.505 0.125-3.017 0.234-4.526 0.28-0.978 0.029-1.959-0.046-2.938-0.115-1.788-0.126-3.573-0.282-5.358-0.427-1.613-0.132-3.202-0.415-4.77-0.8-2.74-0.672-5.331-1.68-7.573-3.441-1.323-1.04-2.407-2.282-3.145-3.815-0.597-1.24-0.965-2.549-1.304-3.869-0.437-1.689-0.861-3.385-1.249-5.088-0.211-0.923 1e-3 -1.736 0.879-2.258 0.69-0.408 1.371-0.832 2.083-1.202 3.269-1.696 6.702-2.969 10.272-3.875 0.935-0.238 1.856-0.319 2.754 0.122 0.709 0.35 1.247 0.905 1.787 1.473 1.286 1.353 2.362 2.848 3.292 4.459 1.263 2.186 2.179 4.514 2.932 6.914 0.156 0.5 0.29 1.008 0.436 1.514 0.025-0.197 8e-3 -0.384-0.034-0.564-0.386-1.605-0.757-3.216-1.173-4.814-0.481-1.85-1.165-3.63-1.983-5.354-0.723-1.524-1.523-3.007-2.618-4.305 0.028-0.045 0.042-0.082 0.066-0.102 1.115-0.856 2.335-1.517 3.68-1.928 0.559-0.175 1.135-0.286 1.703-0.422m-0.851 24.956c-0.081-0.563-0.143-1.052-0.22-1.537-0.333-2.115-0.955-4.132-1.972-6.029-1.044-1.945-2.428-3.596-4.156-4.955-1.602-1.259-3.399-2.162-5.335-2.789-1.827-0.59-3.634-0.604-5.395 0.245-0.912 0.44-1.243 1.048-0.999 2.044 0.436 1.788 0.92 3.566 1.426 5.336 0.247 0.862 0.755 1.581 1.392 2.225 1.023 1.038 2.197 1.865 3.459 2.568 1.844 1.027 3.789 1.809 5.868 2.201 1.246 0.236 2.508 0.394 3.768 0.549 0.688 0.084 1.388 0.093 2.164 0.142m5.044-0.044c0.381 0 0.64 0.02 0.895-4e-3 0.926-0.082 1.856-0.149 2.779-0.278 1.035-0.145 2.074-0.295 3.09-0.539 1.881-0.447 3.649-1.197 5.328-2.158 1.123-0.643 2.165-1.393 3.105-2.277 0.93-0.873 1.477-1.982 1.811-3.189 0.398-1.447 0.762-2.903 1.109-4.362 0.285-1.204-0.112-1.89-1.247-2.348-1.718-0.693-3.438-0.667-5.177-0.092-2.957 0.976-5.506 2.571-7.542 4.942-0.765 0.889-1.407 1.859-1.957 2.896-0.627 1.183-1.119 2.421-1.44 3.713-0.301 1.201-0.499 2.425-0.754 3.696"/>
</svg>
