<svg id="ford" viewBox="0 0 80 50" xmlns="http://www.w3.org/2000/svg" fill="#767676">
    <path d="m40.009 27.993c-16.078 0-29.098 4.934-29.098 11.013 0 6.08 13.02 10.994 29.098 10.994 16.061 0 29.08-4.914 29.08-10.994 0-6.079-13.02-11.013-29.08-11.013m0 20.882c-15.42 0-27.953-4.391-27.953-9.869 0-5.459 12.533-9.905 27.953-9.905 15.459 0 27.973 4.446 27.973 9.905-1e-3 5.478-12.514 9.869-27.973 9.869"/>
    <path d="m40.009 29.927c-14.969 0-27.07 4.069-27.07 9.079 0 5.029 12.102 9.1 27.07 9.1 14.955 0 27.09-4.07 27.09-9.1 0-5.01-12.135-9.079-27.09-9.079m-13.264 14.671c-1.629 0-3.076-1.07-3.113-2.984-0.02-1.162 0.918-2.588 2.664-3.02 0.205 0 0.281 0.075 0.281 0.188 0 0.075-0.076 0.168-0.244 0.244-0.508 0.188-1.389 1.182-1.389 2.101 0 0.694 0.434 1.464 1.164 1.632 0.207 0.057 0.393 0.038 0.582 0.038 1.82 0 3.865-2.045 6.078-5.16-0.355 0.021-1.875 0.188-2.252 0.62-0.168 0.132-0.281 0.057-0.318-0.095 0-0.036 0.057-0.169 0.113-0.243 0.6-0.676 2.4-0.826 2.83-0.881 1.617-2.479 3.676-4.06 4.246-4.174-0.014-2e-3 -0.029-8e-3 -0.041-0.01-1.447-0.338-2.758-0.62-3.789-0.62-3.623 0-5.236 1.557-5.16 2.983 0.037 0.582 0.506 0.957 1.199 0.824 0.752-0.131 1.801-0.844 2.064-1.461 0.057-0.134 0.209-0.151 0.264-0.113 0.111 0.093 0.072 0.225 0.072 0.225-0.092 0.731-1.219 2.758-3.17 2.758-1.088 0-1.816-1.014-1.801-2.008 0.02-1.857 1.914-3.733 6.586-3.733 0.885 0 1.877 0.074 2.965 0.263 1.256 0.225 4.389 0.75 6.941 0.787 0.938 0 2.139 0.039 3.115-0.112 1.029-0.168 0.805-0.206 1.217-0.206 0.377 0 0.377 0.15 0.377 0.301 0 0.601-2.102 1.744-3.883 1.744-2.631 0-5.359-1.193-6.773-1.574 0.059 0.051 0.102 0.131 0.057 0.242-0.021 0.037-0.205 0.244-0.281 0.3-0.375 0.338-1.652 1.164-3.041 3.509 1.127-0.055 2.441-0.281 2.441-0.281s-0.076-0.244-0.076-0.45c0.055-0.807 0.523-1.296 1.125-1.202 0.338 0.059 0.563 0.339 0.563 0.639 0 0.32-0.244 0.789-0.486 1.014-0.17 0.132-0.357 0.263-0.584 0.375 0 0.205 0.283 0.375 0.529 0.395-0.059 0.207-0.039 0.3-0.133 0.281-0.564 0-0.789-0.543-0.789-0.543-0.75 0.131-1.48 0.224-2.963 0.375-3.734 6.036-4.898 7.032-7.187 7.032m25.723-0.996c0.807-0.035 2.287-1.575 2.645-1.949 0.074-0.096 0.207-0.264 0.283-0.264 0.072 0 0.225 0.076 0.225 0.188 0 0.076-0.172 0.356-0.301 0.525-0.752 0.938-1.988 2.383-3.396 2.42-0.695 0-0.957-0.282-1.051-0.824-0.318 0.279-1.406 0.769-2.514 0.769-0.92-0.019-1.293-0.563-1.482-0.993-0.17-0.357-0.242-0.883-0.113-1.408-0.504 0.263-0.975 0.299-1.65 0.281-0.787-0.019-1.275-0.375-1.52-1.295-0.9 1.65-0.939 1.707-1.857 3.434h-1.594l2.043-3.471c0.264-0.469 0.398-0.844 0.49-1.238 0.057-0.226-0.113-0.432-0.357-0.45-0.266 0-0.693 0.263-1.107 0.657 0 0-1.053 1.125-1.818 2.27-0.732 1.088-1.99 2.326-3.359 2.326-0.994 0-1.895-0.543-2.08-1.595 0 0-0.096 0.243-0.977 0.75-0.076 0.038-0.264 0.15-0.318 0.113-0.17-0.149-0.264-0.337-0.283-0.47 0.055 0.02 0.17-0.074 0.525-0.355 0.695-0.525 0.844-0.938 0.844-0.938 0.17-0.356 0.473-0.919 0.676-1.314 0.563-1.126 1.541-2.269 3.133-2.325 0.266 0 0.336 0.113 0.395 0.207 0.15 0.111 0.094 0.338 0.094 0.338-1.125 0.168-1.895 0.824-2.365 1.463-0.279 0.412-0.582 1.088-0.637 1.575-0.111 0.845 0.281 1.407 0.861 1.54 1.092 0.167 1.988-0.621 2.703-1.84 0.188-0.318 0.32-1.145 0.32-1.596 0-0.449-0.244-0.918-0.432-1.105 0-0.32 0.207-0.525 0.449-0.525 0.076 0 0.148 0 0.225 0.074 0.375 0.375 0.584 1.089 0.584 1.633 0 0.188 0 0.375-0.039 0.562 0.787-0.956 1.781-2.194 2.553-2.438 0.148-0.075 0.299-0.075 0.449-0.075 1.404-0.038 1.217 1.238 1.217 1.238 0.752-0.863 1.277-1.182 1.973-1.145 0.752 0.038 1.012 0.563 1.012 0.976-0.018 0.487-0.377 1.05-0.994 1.069-0.543 0-0.861-0.264-1.031-0.752-0.355 0.133-0.525 0.376-0.6 0.865-0.111 0.618 0.355 1.105 0.955 1.105 1.031 0 1.484-0.449 1.857-0.787 1.277-1.201 1.988-2.457 3.828-2.438 1.107 0.019 1.389 0.899 1.576 1.275l2.42-4.091h1.482l-4.016 7.11c-0.074 0.151-0.262 0.433-0.244 0.657 0.037 0.356 0.486 0.261 0.318 0.261"/>
    <path d="m51.003 39.269c-0.656-0.073-1.48 0.487-2.156 1.313-0.338 0.412-0.693 1.201-0.752 1.67-0.074 0.469 0.059 0.938 0.227 1.069s0.92 0.525 2.084-0.656c0.652-0.657 1.293-1.727 1.293-1.727l-0.205-0.057c0.392-0.731 0.314-1.519-0.491-1.612"/>
    <path d="m37.46 32.854c-0.02-2e-3 -0.047 6e-3 -0.074 0.01 0.059 0.014 0.123 0.029 0.186 0.047-0.038-0.035-0.083-0.057-0.112-0.057"/>
    <path d="m37.665 36.342c0.113-0.112 0.301-0.45 0.264-0.676-0.021-0.112-0.076-0.243-0.207-0.225-0.281 0.057-0.451 0.188-0.527 0.469-0.092 0.301-0.055 0.507 0 0.732-1e-3 1e-3 0.189 0.018 0.47-0.3"/>
</svg>
