<svg id="honda" viewBox="0 0 80 50" xmlns="http://www.w3.org/2000/svg" fill="#767676">
    <path d="m28.158 20.539l2.759-0.22 3.132 13.51s0.51 3.344 4.069 3.773h3.706s2.905 0.068 4.137-3.854l3.118-13.514 2.763 0.207-1.697 26.711-4.002 0.207-1.506-5.133s-0.415-2.17-3.232-2.25l-2.856 2e-3s-2.491 0.033-3.018 2.32l-1.632 5.07-3.916-0.123-1.825-26.706z"
          class="st0"/>
    <path d="m35.14 17.609c-18.2 0.011-15.593 7.111-14.289 21.601 0.784 8.699 5.039 11.049 13.224 10.768l11.876-8e-3c8.184 0.275 12.438-2.082 13.211-10.779 1.287-14.493 3.885-21.597-14.314-21.585l-9.708 3e-3zm0.204 31.013c-7.484 6e-3 -12.064-0.611-12.621-9.6-0.56-11.754-3.752-19.669 9.699-19.875l15.148-7e-3c13.45 0.189 10.265 8.108 9.722 19.864-0.547 8.988-5.127 9.607-12.611 9.613l-9.337 5e-3z"
          class="st0"/>
</svg>
