<svg id="hyundai" viewBox="0 0 80 50" xmlns="http://www.w3.org/2000/svg" fill="#767676">
    <path d="m45.218 40.236c0.379 1.961-0.648 3.59-1.503 5.17-0.948 1.471-2.517 2.737-4.397 2.547-4.223-0.063-8.351-0.711-12.178-1.865-0.173-0.048-0.347-0.159-0.442-0.316-0.081-0.222 0.031-0.428 0.189-0.57 3.495-2.83 7.655-4.144 11.766-5.52 1.536-0.442 3.164-0.917 4.887-0.697 0.713 0.095 1.424 0.586 1.678 1.251m14.407-8.382c1.96 1.613 3.731 3.811 3.132 6.469-0.98 3.921-5.251 6.009-8.65 7.338-1.852 0.617-3.717 1.249-5.742 1.439-0.127-0.017-0.332 0.016-0.361-0.174l0.044-0.223c2.88-3.242 5.063-6.879 6.976-10.564 0.885-1.66 1.707-3.369 2.468-5.045 0.11-0.127 0.222-0.189 0.347-0.237 0.713 0.063 1.217 0.616 1.786 0.997m-27.599-4.177l-0.064 0.237c-4.159 4.729-6.895 10.217-9.49 15.675-0.506 0.475-0.995-0.159-1.454-0.364-2.309-1.518-4.398-3.97-3.794-6.88 0.963-3.796 4.871-5.821 8.128-7.196 1.929-0.729 3.938-1.313 6.056-1.646 0.223 0 0.508-0.03 0.618 0.174m20.641 0.759c0.235 0.127 0.521 0.176 0.664 0.412 0.126 0.27-0.127 0.443-0.271 0.617-3.272 2.562-7.024 3.984-10.851 5.234-1.943 0.475-3.906 1.33-6.07 0.854-0.507-0.126-0.966-0.458-1.251-0.948-0.537-1.486 0.19-3.036 0.822-4.334 0.84-1.628 2.327-3.542 4.382-3.573 4.429-0.033 8.604 0.631 12.575 1.738m5.473 0.127c3.352 1.834 7.146 5.062 6.754 9.362-0.461 3.987-4.177 6.771-7.498 8.447-9.697 4.634-23.313 4.776-33.324 0.728-3.384-1.408-7.18-3.826-8.604-7.465-1.091-2.989 0.237-6.105 2.467-8.178 4.667-4.238 10.613-5.693 16.732-6.531 6.645-0.807 13.635-0.096 19.582 1.945 1.328 0.489 2.639 1.027 3.891 1.692"
          clip-rule="evenodd" fill-rule="evenodd"/>
</svg>
