<svg id="svg-mazda" viewBox="0 0 51 32">
    <path d="M25.123 10.638c0.652 0 1.301-0.024 1.949 0.006 0.812 0.036 1.622 0.106 2.431 0.178 0.957 0.086 1.894 0.282 2.812 0.56 1.133 0.344 2.194 0.835 3.128 1.574 1.006 0.798 1.794 1.775 2.36 2.928 0.569 1.155 0.911 2.376 1.091 3.648 0.113 0.797 0.14 1.596 0.093 2.394-0.083 1.421-0.354 2.804-0.956 4.105-0.995 2.152-2.568 3.713-4.769 4.63-0.714 0.298-1.445 0.545-2.199 0.71-0.792 0.173-1.588 0.336-2.392 0.442-0.769 0.102-1.548 0.152-2.324 0.173-0.802 0.023-1.611 0.010-2.412-0.036-0.793-0.045-1.585-0.129-2.373-0.235-1.297-0.175-2.563-0.492-3.763-1.032-1.799-0.81-3.206-2.065-4.212-3.763-0.464-0.783-0.778-1.628-0.995-2.514-0.344-1.395-0.452-2.81-0.378-4.236 0.080-1.595 0.483-3.112 1.254-4.518 0.64-1.167 1.501-2.15 2.601-2.909 1.069-0.736 2.246-1.233 3.504-1.551 0.897-0.227 1.809-0.367 2.732-0.429 0.94-0.061 1.88-0.112 2.819-0.166-0.001 0.015-0.001 0.028 0 0.041zM24.967 30.263c1.576 0.010 2.807-0.022 4.027-0.237 1.076-0.191 2.106-0.511 3.059-1.060 1.137-0.656 2.026-1.546 2.635-2.71 0.801-1.527 1.152-3.166 1.195-4.877 0.010-0.45-0.023-0.9-0.055-1.35-0.016-0.25-0.063-0.497-0.106-0.744-0.024-0.137-0.052-0.145-0.175-0.077-0.151 0.082-0.301 0.166-0.454 0.246-0.618 0.322-1.293 0.483-1.95 0.696-0.938 0.304-1.891 0.569-2.803 0.939-1.98 0.801-3.403 2.189-4.187 4.2-0.092 0.234-0.191 0.467-0.31 0.687s-0.316 0.208-0.433-0.015c-0.064-0.121-0.119-0.247-0.171-0.374-0.406-1.027-0.947-1.962-1.743-2.742-0.683-0.668-1.435-1.238-2.326-1.587-0.645-0.253-1.313-0.46-1.981-0.652-1.234-0.355-2.47-0.696-3.586-1.359-0.092-0.054-0.13-0.022-0.139 0.074-0.040 0.447-0.103 0.895-0.122 1.345-0.034 0.821 0.002 1.641 0.145 2.454 0.19 1.065 0.499 2.092 0.991 3.056 1.053 2.068 2.767 3.269 5.007 3.743 1.261 0.264 2.541 0.336 3.484 0.349zM34.609 16.027c-0.081-0.132-0.15-0.253-0.227-0.372-0.312-0.483-0.717-0.883-1.137-1.271-0.652-0.602-1.382-1.084-2.198-1.434-0.675-0.29-1.379-0.485-2.099-0.63-0.787-0.158-1.58-0.246-2.381-0.276-0.986-0.038-1.97 0.031-2.95 0.113-0.719 0.060-1.43 0.176-2.131 0.347-1.233 0.302-2.319 0.89-3.288 1.702-0.611 0.511-1.153 1.084-1.572 1.765-0.040 0.065-0.072 0.113 0.022 0.17 0.788 0.485 1.626 0.873 2.473 1.24 0.774 0.333 1.562 0.635 2.33 0.982 1.358 0.616 2.46 1.548 3.305 2.78 0.249 0.36 0.484 0.729 0.728 1.092 0.099 0.147 0.134 0.14 0.231-0.004 0.36-0.535 0.715-1.075 1.093-1.597 0.606-0.836 1.372-1.501 2.291-1.972 0.62-0.318 1.258-0.599 1.896-0.88 0.824-0.362 1.658-0.702 2.481-1.066 0.401-0.179 0.773-0.408 1.137-0.69z"/>
</svg>
