<svg id="mercedes-benz" viewBox="0 0 80 50" xmlns="http://www.w3.org/2000/svg" fill="#767676">
    <path d="m60.801 29.262c0.045 11.324-9.246 20.699-20.55 20.738-11.655 0.041-20.99-9.111-21.052-20.642-0.064-11.434 9.253-20.897 20.605-20.927 11.648-0.033 20.953 9.2 20.997 20.831m-37.707 10.127c4.308 6.457 10.169 9.832 17.848 9.496 6.944-0.306 12.221-3.664 15.98-9.533-0.217-0.139-0.293-0.209-0.385-0.244-5.336-2.176-10.672-4.356-16.023-6.496-0.346-0.139-0.858-0.053-1.227 0.096-3.001 1.207-5.99 2.453-8.98 3.689-2.356 0.975-4.713 1.955-7.213 2.992m17.296-29.808c0 0.336-0.019 0.505 2e-3 0.667 0.802 5.643 1.598 11.288 2.438 16.927 0.057 0.367 0.399 0.759 0.714 1.007 2.784 2.191 5.592 4.354 8.396 6.522 1.724 1.334 3.453 2.664 5.297 4.088 3.191-6.376 3.364-12.648 8e-3 -18.814-3.583-6.58-9.324-9.857-16.855-10.397m-0.626 1e-3c-7.444 0.486-13.16 3.631-16.801 10.028-3.595 6.32-3.439 12.769-0.149 19.205 0.193-0.066 0.268-0.07 0.314-0.109 4.521-3.647 9.042-7.294 13.55-10.955 0.215-0.174 0.417-0.469 0.456-0.733 0.879-5.737 1.734-11.474 2.63-17.436"/>
</svg>
