<svg id="nissan" viewBox="0 0 80 50" xmlns="http://www.w3.org/2000/svg" fill="#767676">
    <path d="m41.445 50h-2.967c-0.174-0.037-0.34-0.091-0.514-0.108-3.902-0.392-7.436-1.738-10.572-4.098-3.459-2.6-5.836-6.004-7.385-10.016-0.107-0.281-0.172-0.534-0.582-0.52-1.045 0.035-2.094 0.021-3.139 0.025v-11.034c0.908 4e-3 1.818-0.035 2.723 0.023 0.607 0.039 0.867-0.162 1.1-0.738 2.826-6.988 7.756-11.637 15.17-13.457 1.01-0.247 2.051-0.366 3.08-0.543h3.203c0.172 0.036 0.346 0.077 0.52 0.109 1.182 0.223 2.393 0.347 3.543 0.682 6.922 2.009 11.535 6.553 14.199 13.159 0.25 0.624 0.533 0.836 1.188 0.79 0.898-0.063 1.801-0.017 2.701-0.017v11.011c-0.928 0-1.816 0.047-2.699-0.016-0.65-0.047-0.939 0.164-1.189 0.787-2.832 6.977-7.768 11.607-15.176 13.41-1.049 0.259-2.135 0.372-3.204 0.551m14.934-15.38h-32.828c2.055 6.565 8.6 12.539 17.387 12.074 8-0.423 13.759-6.31 15.441-12.074m-0.119-10.132c-2.002-5.896-7.984-11.647-16.65-11.464-8.984 0.193-14.297 6.504-15.895 11.464h32.545zm-33.582 4.007c0.049-0.015 0.094-0.031 0.145-0.046 0.752 1.201 1.5 2.403 2.264 3.595 0.109 0.17 0.285 0.408 0.439 0.416 0.738 0.045 1.482 0.021 2.234 0.021v-5.402h-1.428v3.83c-0.873-1.154-1.633-2.328-2.412-3.491-0.105-0.162-0.303-0.359-0.469-0.368-0.684-0.042-1.371-0.019-2.074-0.019v5.403h1.301v-3.939zm34.551 2.377c-0.043 0.01-0.084 0.017-0.125 0.025-0.756-1.156-1.506-2.316-2.273-3.466-0.109-0.167-0.291-0.395-0.449-0.405-0.701-0.044-1.41-0.019-2.115-0.019v5.421h1.289v-4.002c0.217 0.133 0.33 0.285 0.43 0.446 0.674 1.069 1.34 2.144 2.021 3.206 0.098 0.15 0.266 0.355 0.408 0.363 0.742 0.036 1.482 0.016 2.217 0.016v-5.402h-1.402v3.817zm-13.553-2.691v-1.18c-1.016 0-1.98-8e-3 -2.947 4e-3 -0.531 7e-3 -1.074-0.014-1.592 0.088-0.895 0.178-1.158 0.672-1.123 1.907 0.02 0.693 0.379 1.063 1.203 1.212 0.232 0.043 0.469 0.063 0.709 0.086 0.686 0.07 1.377 0.116 2.061 0.221 0.176 0.025 0.324 0.234 0.486 0.361-0.17 0.111-0.334 0.312-0.504 0.319-0.889 0.032-1.779 0.015-2.67 0.015h-1.152v1.237c1.598 0 3.156 0.027 4.713-0.024 0.301-9e-3 0.693-0.259 0.871-0.517 0.764-1.093 0.059-2.618-1.256-2.776-0.844-0.104-1.689-0.178-2.539-0.256-0.357-0.033-0.533-0.215-0.352-0.539 0.066-0.115 0.344-0.15 0.523-0.152 1.184-0.013 2.366-6e-3 3.569-6e-3m-6.662-1.149c-1.371 0-2.709-0.021-4.049 7e-3 -1.059 0.021-1.611 0.523-1.635 1.399-0.033 1.342 0.295 1.734 1.557 1.854 0.826 0.078 1.65 0.17 2.479 0.234 0.35 0.027 0.484 0.213 0.369 0.5-0.047 0.116-0.311 0.199-0.479 0.201-1.258 0.016-2.52 8e-3 -3.801 8e-3v1.235c1.609 0 3.168 0.027 4.73-0.015 0.65-0.017 1.002-0.482 1.025-1.149 0.01-0.218 8e-3 -0.436 6e-3 -0.653-8e-3 -0.878-0.365-1.334-1.225-1.455-0.898-0.127-1.809-0.186-2.707-0.314-0.174-0.025-0.316-0.248-0.473-0.382 0.164-0.1 0.328-0.28 0.496-0.286 1.027-0.027 2.057-0.011 3.082-0.015 0.209 0 0.416-0.023 0.623-0.036v-1.133zm14.369 5.453c-0.115-0.286-0.191-0.485-0.277-0.681-0.582-1.36-1.201-2.708-1.74-4.085-0.217-0.555-0.527-0.645-1.082-0.723-1.295-0.179-1.947 0.295-2.346 1.532-0.426 1.323-1.074 2.575-1.668 3.96 0.283 0 0.475-0.019 0.662 2e-3 0.633 0.076 1.115-0.037 1.254-0.785 0.023-0.127 0.303-0.289 0.469-0.299 0.65-0.033 1.309 0.034 1.953-0.027 0.59-0.059 0.918 0.133 1.105 0.689 0.057 0.166 0.26 0.373 0.422 0.397 0.381 0.06 0.773 0.02 1.248 0.02m-21.119-5.408h-1.5v5.375h1.5v-5.375z"/>
    <path d="m48.871 30.282h-2.07c0.256-0.646 0.486-1.25 0.74-1.842 0.043-0.101 0.193-0.215 0.297-0.215 0.1 2e-3 0.244 0.122 0.289 0.224 0.248 0.575 0.475 1.159 0.744 1.833"/>
</svg>
