<svg id="opel" viewBox="0 0 80 50" xmlns="http://www.w3.org/2000/svg" fill="#767676">
    <path d="m22.648 32.038c-0.511-0.026-1.009-0.057-1.509-0.075-0.727-0.026-1.453-0.037-2.181-0.064-0.518-0.021-1.035-0.06-1.569-0.091v-3.162c0.086-6e-3 0.175-0.018 0.264-0.018 0.39-2e-3 0.782 4e-3 1.171-2e-3 1.376-0.018 2.751-0.045 4.127-0.053 0.21-2e-3 0.287-0.086 0.33-0.269 0.33-1.361 0.87-2.64 1.533-3.866 0.528-0.979 1.129-1.912 1.873-2.744 0.47-0.525 0.931-1.061 1.437-1.551 0.887-0.863 1.876-1.606 2.934-2.248 1.184-0.722 2.441-1.282 3.766-1.695 1.031-0.322 2.077-0.579 3.156-0.658 0.897-0.066 1.798-0.139 2.691-0.113 0.826 0.026 1.65 0.165 2.474 0.278 1.263 0.176 2.473 0.563 3.63 1.076 0.874 0.388 1.718 0.852 2.537 1.345 0.982 0.589 1.865 1.322 2.693 2.118 1.209 1.158 2.218 2.463 3.047 3.912 0.947 1.646 1.587 3.413 1.945 5.271 0.164 0.853 0.196 1.732 0.258 2.603 0.035 0.48 7e-3 0.965 7e-3 1.445 0.057 0.013 0.086 0.026 0.114 0.027 0.85 0.021 1.701 0.032 2.55 0.065 0.888 0.035 1.774 0.094 2.685 0.142v3.11c-0.086 6e-3 -0.176 0.016-0.265 0.017-1.757 0.022-3.511 0.046-5.268 0.06-0.183 2e-3 -0.259 0.057-0.318 0.234-0.25 0.762-0.476 1.541-0.798 2.271-0.383 0.864-0.795 1.727-1.305 2.516-0.559 0.861-1.219 1.662-1.881 2.451-1.127 1.344-2.519 2.373-4.016 3.271-1.007 0.604-2.066 1.09-3.179 1.457-0.984 0.324-1.99 0.56-3.019 0.72-1.129 0.176-2.262 0.211-3.393 0.163-1.354-0.058-2.69-0.266-3.992-0.659-1.063-0.32-2.089-0.721-3.08-1.227-1.192-0.609-2.316-1.32-3.303-2.223-0.762-0.699-1.537-1.408-2.189-2.207-0.947-1.153-1.74-2.414-2.354-3.792-0.506-1.128-0.879-2.289-1.166-3.481-0.139-0.578-0.215-1.174-0.271-1.766-0.079-0.852-0.112-1.707-0.166-2.588m2.732-3.533c1.152 0 2.281 7e-3 3.408-2e-3 1.806-0.014 3.613-0.04 5.42-0.061 1.775-0.021 3.551-0.044 5.326-0.063 2.395-0.021 4.786-0.043 7.18-0.06 0.988-7e-3 1.975-1e-3 2.962-1e-3h0.372c-2.024 1.546-3.992 3.048-6.023 4.598 0.686 0.035 1.256 0.066 1.826 0.094 0.866 0.043 1.733 0.084 2.6 0.121 0.989 0.045 1.98 0.088 2.971 0.125 0.757 0.027 1.515 0.042 2.271 0.064 0.061 2e-3 0.119 0.029 0.178 0.031 0.469 2e-3 0.934 0 1.402 0 0.061-4.229-1.246-7.945-4.123-11.033-2.803-3.01-6.318-4.648-10.422-4.849-4.182-0.204-7.868 1.164-10.975 3.963-2.142 1.93-3.598 4.327-4.373 7.073m29.264 8.458c-0.879 0-1.748-7e-3 -2.619 1e-3 -1.806 0.016-3.613 0.041-5.419 0.061-1.755 0.021-3.511 0.043-5.266 0.061-2.364 0.023-4.724 0.045-7.086 0.063-0.864 6e-3 -1.729-6e-3 -2.593 3e-3 -0.314 3e-3 -0.63 0.042-0.944 0.057-0.184 9e-3 -0.368 2e-3 -0.555 2e-3 -2e-3 -0.024-2e-3 -0.048-2e-3 -0.071 1.923-1.484 3.846-2.969 5.832-4.504-0.707-0.043-1.326-0.084-1.944-0.115-0.896-0.045-1.795-0.084-2.692-0.124-0.962-0.042-1.92-0.089-2.879-0.122-0.798-0.029-1.597-0.043-2.394-0.064-0.052-2e-3 -0.103-0.011-0.152-0.015-0.374-0.021-0.746-0.042-1.147-0.065-0.09 4.38 1.358 8.123 4.349 11.218 2.711 2.806 6.08 4.317 9.971 4.598 6.135 0.437 13.317-3.346 15.54-10.984"/>
</svg>
