<svg id="peugeot" viewBox="0 0 80 50" xmlns="http://www.w3.org/2000/svg" fill="#767676">
    <path d="m57.977 47.127c-0.698-2.08-3.509-7.299-5.72-10.236-0.476-0.64-0.297-0.969-0.04-1.178 0.253-0.205 1.075-0.915 2.048-2.027 0.982-1.125 1.221-2.396 0.524-4.231-0.691-1.821-2.977-6.15-3.454-7.583-0.551-1.653-0.605-2.389-0.274-3.289 0.39-1.062 0.961-1.104 1.391-1.1 0.229 4e-3 0.402 0.249 0.404 0.359 0.011 0.468 0.033 1.045 0.491 2.254 0.728 1.922 2.596 3.178 3.185 3.432 0.411 0.178 0.484-0.141 0.45-0.293-0.039-0.152-0.646-2.536-1.104-4.328-0.477-1.877-0.716-2.285-1.14-2.683-0.678-0.642-1.705-0.985-2.576-0.952-1.94 0.075-2.797 1.95-2.903 2.124-0.094 0.156-0.129 0.265-0.327 0.127-0.553-0.388-2.175-1.74-2.324-2.587-0.086-0.501-0.174-0.572-0.674-0.766-1.947-0.759-3.636-1.427-5.502-1.756-0.747-0.131-0.789-0.197-1.662-0.034-1.484 0.277-2.392 0.619-3.508 1.203-0.613 0.325-0.686 0.543-0.805 0.699-0.093 0.12-0.194 0.266-0.414 0.338-0.369 0.12-1.747 0.632-2.218 0.908-0.297 0.17-0.454 0.352-0.304 0.685 0.264 0.586 1.056 1.809 1.401 2.118 0.21 0.185 0.736 0.313 0.861 0.339 0.125 0.03 0.213 0.066 0.26-0.026 0.051-0.102 0.071-0.252 0.318-0.425 0.368-0.258 1.055-0.438 1.421-0.471 0.28-0.023 0.451-0.032 0.596 0.071 0.143 0.104 0.475 0.459 0.588 0.814 0.116 0.354 0.044 0.488-0.155 0.572-0.199 0.082-0.794 0.219-1.487 0.273-0.689 0.057-0.885-0.135-0.934-0.178-0.035-0.039-0.127-0.099-0.198-6e-3 -0.113 0.164-0.288 0.266-0.557 0.4-0.154 0.074-0.235 0.236-0.091 0.49 0.439 0.759 1.017 1.612 1.556 1.774 0.425 0.134 0.654-7e-3 1.135-0.35 0.429-0.311 0.709-0.31 0.826-0.223 0.13 0.098 0.389 0.317 0.321 0.537-0.114 0.382-0.879 1.288-1.029 1.476-0.139 0.177-0.269 0.272-0.519 0.152-0.359-0.173-5.875-3.033-6.612-3.321-0.801-0.308-1.331-0.383-2.12-0.419-0.637-0.028-1.492 0.033-2.026 0.131-0.39 0.071-0.612 0.256-0.973 0.59-0.5 0.463-1.026 1.053-1.079 1.545-0.033 0.354 0.36 1.076 0.403 1.127 0.044 0.054 0.115 0.152 0.33 0.129 0.218-0.023 0.765-0.307 1.416-0.194 0.589 0.103 0.649 0.565 0.677 0.921 6e-3 0.061 0.082 0.198 0.247 0.196 0.234-3e-3 0.604 3e-3 1.027 0.208 0.522 0.249 1.559 1.051 1.718 1.229 0.129 0.145 0.12 0.275-0.127 0.3-1.315 0.115-3.315 0.508-4.242 0.811-0.656 0.215-1.43 0.511-1.704 0.985-0.311 0.539-0.704 1.406-0.815 2.021-0.113 0.616 0.544 1.379 0.721 1.549 0.119 0.115 0.197 0.188 0.409 0.073 0.322-0.186 1.098-0.664 1.844-0.708 0.452-0.027 0.633 0.397 0.742 0.554 0.107 0.154 0.212 0.049 0.616-0.061 0.718-0.192 4.717-0.12 6.13-0.054 0.647 0.027 1.546 0.123 2.207 0.488 0.656 0.362 1.846 1.484 1.846 1.484s-1.581 2.651-2.432 4.222c-0.788 1.452-1.365 2.542-1.647 3.173-0.262 0.577-0.474 1.396-0.427 2.042 0.071 0.942 0.096 1.428 0.086 1.854-0.015 0.377-0.363 0.418-0.86 0.541-0.686 0.174-2.054 0.299-3.159 0.571-1.008 0.251-1.384 0.489-1.564 1.267-0.142 0.606-0.349 2.111-0.374 2.81-0.012 0.282-0.017 0.419 0.34 0.347 0.206-0.041 0.797-0.127 1.551-0.182 0.934-0.071 1.946-0.057 2.729-0.061 1.439-8e-3 5.686 0.242 5.972 0.268 0.361 0.037 0.436-7e-3 0.411-0.261-0.035-0.335-0.096-1.402-0.11-2.039-0.02-0.638-0.114-1.286 0.463-1.907 0.57-0.621 4.9-5.449 5.142-5.697 0.209-0.211 0.348-0.435 0.668-0.139 0.329 0.297 3.891 2.867 4.615 3.393 0.723 0.525 1.396 0.704 2.221 0.715 0.59 0.011 0.754 1.037 0.254 1.133-0.515 0.1-1.297 0.26-1.844 0.384-0.844 0.198-1.102 0.474-1.355 1.042-0.217 0.48-0.454 2.839-0.462 3.043-9e-3 0.145-0.019 0.356 0.215 0.31 1.042-0.211 2.691-0.271 4.451-0.216 2.025 0.063 3.991 0.229 4.267 0.246 0.299 0.021 0.326-0.023 0.477-0.256 0.256-0.4 1.018-1.279 1.68-1.824 0.327-0.268 0.337-0.38 0.2-0.786m-7.783-21.281c0.016-0.165 0.02-0.334 0.027-0.51 8e-3 -0.18 4e-3 -0.331 0.012-0.536 6e-3 -0.166 0.139-0.209 0.221-0.099 0.092 0.119 0.299 0.758 0.746 1.584 0.67 1.242 1.463 2.795 1.738 3.462 0.26 0.638 0.133 1.124-0.262 1.615-0.535 0.661-2.102 1.381-2.478 1.505-0.511 0.168-0.847 0.023-1.099-0.215-0.25-0.24-2.292-2.698-2.949-3.449-0.33-0.38-0.578-1.244 0.418-1.612 0.818-0.297 2.246-0.662 2.688-0.784 0.591-0.164 0.901-0.491 0.938-0.961m-19.88 4.446c-1.487 3e-3 -2.888 0.044-3.371 0.085-0.162 0.013-0.29 0.045-0.386-8e-3 -0.102-0.055-0.03-0.245 0.114-0.394 0.128-0.132 0.729-0.618 1.112-0.708 0.389-0.089 1.606-0.215 2.19-0.248 0.165-9e-3 2.292-0.199 2.489-0.189 0.192 0.01 0.769 0.871 1.343 1.494-0.068 4e-3 -1.92-0.035-3.491-0.032m3.755 11.04c-0.436 0.832-0.426 1.178-0.413 1.949 0.011 0.736 0.099 1.643 0.05 2.065-0.046 0.429-0.318 0.611-0.746 0.73-0.426 0.116-2.953 0.522-3.512 0.688-0.557 0.166-0.686 0.479-0.779 0.882-0.096 0.402-0.121 0.553-0.145 0.711-0.021 0.141-0.017 0.297-0.18 0.31-0.159 0.011-0.734 0.048-0.916 0.073-0.184 0.024-0.209-0.014-0.204-0.211 6e-3 -0.2 0.189-1.08 0.315-1.543 0.123-0.465 0.322-0.778 0.957-0.934 0.63-0.152 3.199-0.584 3.683-0.67 0.568-0.104 0.709-0.346 0.682-0.893-0.028-0.572-0.112-1.367-0.125-1.856-0.016-0.491 0.012-0.894 0.176-1.331 0.179-0.479 1.094-2.459 1.854-3.854 1.056-1.927 2.352-3.991 2.607-4.299 0.205-0.251 0.345-0.349 0.598-0.269 0.182 0.057 0.665 0.397 0.925 0.586 0.211 0.154 0.375 0.275 0.375 0.275-1.758 2.198-4.363 5.988-5.202 7.591m23.047 6.014c-0.513 0.377-1.293 1.269-1.486 1.57-0.174 0.26-0.188 0.268-0.458 0.24-2.251-0.214-5.172-0.219-5.985-0.219-0.148 0-0.092-0.087-0.11-0.154-0.044-0.166 0.142-0.99 0.263-1.406 0.108-0.364 0.207-0.422 0.941-0.663 0.875-0.287 3.771-0.839 4.467-1.041 0.478-0.144 0.332-0.769 0.03-1.278-6.786-11.403-10.546-14.479-19.326-19.256-1.152-0.621-5.717-3.08-6.629-3.447-0.863-0.35-2.358-0.514-2.794-0.543-0.542-0.038-1.191 0.123-1.211-0.104-0.013-0.181 0.16-0.63 0.439-0.677 0.613-0.1 1.939-0.241 3.172 0.072 0.558 0.142 1.07 0.367 1.689 0.678 1.679 0.842 3.897 1.965 4.426 2.232 0.779 0.394 4.37 2.234 5.344 2.635 0.908 0.371 1.288 0.119 1.603-0.335 0.313-0.456 1.374-2.651 1.653-3.497 0.305-0.915 0.352-1.347-0.107-2.238-0.465-0.902-2.002-2.979-2.877-3.906-0.576-0.608-2.195-0.581-3.704-0.258-1.354 0.289-3.057 0.949-3.312 1.049-0.191 0.076-0.382 0.159-0.536 0.154-0.157 0-0.469-0.565-0.513-0.679-0.114-0.269-0.112-0.303 0.365-0.517 0.865-0.387 1.687-0.573 2.044-0.781 0.36-0.208 0.383-0.592 0.896-0.903 1.75-1.051 3.67-1.297 4.209-1.249 0.793 0.067 4.67 1.129 5.766 1.805 0.078 0.045 0.115 0.068 0.161 0.118 0.126 0.119 0.145 0.232 0.145 0.232 0.104 0.529 0.396 1.218 1.034 1.948 0.559 0.636 1.565 1.513 1.824 1.696 0.296 0.21 0.543 0.515 0.619 0.882 0.367 1.767 0.533 4.73 0.473 5.342-0.061 0.565-0.114 0.802-0.844 1.003-0.752 0.208-2.587 0.589-3.348 0.831-1.166 0.368-0.947 1.26-0.387 2.051 0.57 0.809 4.71 5.677 7.151 9.271 2.487 3.653 4.305 7.168 4.946 8.787 0.038 0.098 0.183 0.395-0.033 0.555"/>
</svg>
