<svg id="renault" viewBox="0 0 80 50" xmlns="http://www.w3.org/2000/svg" fill="#767676">
    <path d="m40.016 12.456c1.414 0 2.828 4e-3 4.24-4e-3 0.172 0 0.26 0.054 0.342 0.202 2.68 4.854 5.361 9.704 8.047 14.557 0.693 1.255 1.385 2.51 2.088 3.761 0.082 0.149 0.078 0.257-2e-3 0.402-2.197 3.942-4.393 7.887-6.586 11.83-1.215 2.183-2.43 4.363-3.637 6.55-0.1 0.177-0.199 0.249-0.41 0.247-2.744-8e-3 -5.484-8e-3 -8.226 0-0.188 1e-3 -0.273-0.065-0.354-0.217-3.289-5.916-6.584-11.83-9.879-17.746-0.162-0.289-0.43-0.584-0.432-0.878-4e-3 -0.286 0.273-0.574 0.432-0.858 3.229-5.826 6.461-11.651 9.682-17.481 0.146-0.269 0.297-0.378 0.619-0.373 1.357 0.02 2.717 8e-3 4.076 8e-3m-14.531 18.705h0.166c2.588 0 5.172-2e-3 7.76 5e-3 0.166 0 0.227-0.08 0.293-0.199 3.088-5.461 6.18-10.92 9.267-16.381 0.205-0.357 0.209-0.36 0.633-0.283-0.031 0.081-0.059 0.16-0.094 0.237-0.902 2.041-1.803 4.081-2.707 6.122-0.057 0.128-0.08 0.23-2e-3 0.365 1.925 3.322 3.847 6.645 5.767 9.971 0.07 0.125 0.15 0.166 0.293 0.166 2.477-4e-3 4.953-3e-3 7.434-4e-3 0.063 0 0.125-0.012 0.209-0.019-0.043-0.081-0.068-0.137-0.102-0.189-3.344-6.018-6.689-12.036-10.027-18.055-0.078-0.136-0.164-0.178-0.313-0.178-2.695 4e-3 -5.39 6e-3 -8.085-1e-3 -0.184-1e-3 -0.273 0.065-0.359 0.217-3.107 5.592-6.217 11.182-9.33 16.772-0.264 0.473-0.522 0.945-0.803 1.454m14.578-7.942c-0.047 0.076-0.086 0.135-0.117 0.194-1.42 2.538-2.836 5.079-4.264 7.612-0.074 0.136-0.041 0.223 0.021 0.336 1.414 2.539 2.83 5.08 4.244 7.621 0.027 0.049 0.068 0.093 0.107 0.149 0.029-0.044 0.047-0.069 0.063-0.097 1.429-2.56 2.853-5.12 4.287-7.678 0.082-0.146 0.059-0.248-0.016-0.381-0.922-1.645-1.836-3.291-2.754-4.938-0.521-0.932-1.042-1.867-1.571-2.818m-6.455 7.964c0.053 0.103 0.088 0.169 0.125 0.233 1.865 3.268 3.73 6.534 5.604 9.799 0.092 0.158 0.096 0.282 0.023 0.449-0.688 1.535-1.361 3.074-2.043 4.613-0.256 0.579-0.51 1.158-0.77 1.741 0.395 0.079 0.414 0.071 0.594-0.24 0.607-1.056 1.211-2.112 1.816-3.169 2.529-4.414 5.058-8.83 7.587-13.244 0.027-0.051 0.047-0.105 0.082-0.185-0.543 0-1.057 9e-3 -1.566-6e-3 -0.201-6e-3 -0.303 0.068-0.396 0.237-1.334 2.409-2.672 4.813-4.013 7.219-0.193 0.349-0.387 0.696-0.598 1.068-0.045-0.071-0.078-0.114-0.104-0.16-0.605-1.091-1.215-2.181-1.82-3.271-0.912-1.641-1.824-3.279-2.74-4.917-0.037-0.067-0.111-0.159-0.17-0.161-0.525-0.013-1.051-6e-3 -1.611-6e-3"/>
</svg>
