<svg id="skoda" viewBox="0 0 80 50" xmlns="http://www.w3.org/2000/svg" fill="#767676">
    <path d="m59.345 29.809c-0.023 11.724-8.583 19.396-17.574 20.117-5.459 0.439-10.33-1.061-14.45-4.666-4.59-4.016-6.833-9.16-6.656-15.258 0.295-10.203 8.513-18.222 18.344-18.67 5.525-0.252 10.361 1.526 14.359 5.352 3.955 3.785 5.908 8.488 5.977 13.125m-19.335-16.816c-9.828 0.015-17.447 7.933-17.677 17.135-0.257 10.34 8.03 18.14 17.484 18.2 9.999 0.064 17.56-7.895 17.843-17.052 0.316-10.331-8.016-18.298-17.65-18.283"/>
    <path d="m39.325 22.252c0.176-0.104 0.36-0.211 0.541-0.318-0.496-1.35-1.455-2.314-2.529-3.186-0.317-0.258-0.645-0.508-0.939-0.791-0.422-0.408-0.346-1.039 0.125-1.385 0.77-0.566 1.654-0.851 2.567-1.09 1.209-0.316 2.328-0.072 3.443 0.414 0.773 0.338 1.473 0.797 2.058 1.381 0.887 0.888 1.593 1.912 2.131 3.066 0.649 1.393 1.059 2.846 1.351 4.336 0.152 0.772 0.215 1.566 0.274 2.356 0.059 0.769 0.115 1.542 0.08 2.312-0.079 1.797-0.222 3.595-0.698 5.341-0.316 1.16-0.693 2.304-1.061 3.514 0.386 0.073 0.827 0.166 1.275 0.23 0.064 0.01 0.195-0.109 0.215-0.187 0.255-1.116 1.136-1.281 1.914-1.109 1.439 0.315 2.619 1.106 3.533 2.273 0.182 0.234 0.181 0.409-0.053 0.627-1.063 0.982-2.297 1.648-3.699 1.959-0.396 0.088-0.842-0.023-1.262-0.074-0.119-0.016-0.293-0.116-0.33-0.219-0.178-0.47-0.543-0.445-0.937-0.436-0.624 0.016-1.249 0.012-1.87 3e-3 -1.743-0.022-3.485-0.051-5.227-0.081-1.338-0.024-2.676-0.053-4.015-0.083-1.09-0.026-2.181-0.032-3.271-0.093-0.553-0.032-0.979 0.197-1.452 0.422-0.605 0.287-1.253 0.563-1.905 0.644-1.151 0.144-1.949-0.507-1.937-1.802 5e-3 -0.557 0.029-1.101-0.473-1.496-0.156-0.124-0.304-0.269-0.415-0.434-0.381-0.569-0.197-1.162 0.403-1.493 0.662-0.366 1.367-0.286 2.05-0.192 1.353 0.188 2.613 0.684 3.854 1.241 0.426 0.192 0.907 0.294 1.372 0.365 0.772 0.117 1.06-0.343 0.912-1.013-0.393-1.781-1.33-3.309-2.336-4.802-0.436-0.646-1.013-1.077-1.715-1.377-1.373-0.587-2.734-1.2-4.106-1.785-0.271-0.115-0.566-0.185-0.858-0.241-0.427-0.079-0.661-0.377-0.602-0.807 0.164-1.228 0.475-2.418 0.932-3.569 0.111-0.277 0.25-0.546 0.402-0.804 0.302-0.521 0.552-0.6 1.419-0.388 1.609 0.394 3.079 1.126 4.527 1.91 0.21 0.114 0.427 0.226 0.632 0.335 0.054-0.049 0.092-0.071 0.114-0.105 0.424-0.643 0.447-0.687-0.244-1.065-1.418-0.776-2.863-1.505-4.3-2.249-0.419-0.215-0.603-0.19-0.229-0.775 0.523-0.825 1.167-1.556 1.949-2.152 0.54-0.412 1.08-0.829 1.645-1.205 1.043-0.689 2.023-0.567 2.995 0.205 1.262 1 2.379 2.133 3.337 3.425 0.109 0.14 0.24 0.261 0.413 0.447m1.962 11.808c0.032 0.866 0.905 1.722 1.747 1.714 0.781-6e-3 1.674-0.907 1.65-1.668-0.027-0.88-0.952-1.808-1.768-1.723-1.013 0.103-1.556 0.817-1.629 1.677"/>
</svg>
