<svg id="toyota" viewBox="0 0 80 50" xmlns="http://www.w3.org/2000/svg" fill="#767676">
    <path d="M38.4,48.1c-2.6-1.6-4.6-7.3-4.6-14c0-0.2,0-0.5,0-0.7l0,0c-7.3-1.1-12.6-4.3-12.7-8l0,0 c-1.8,2.2-2.8,4.8-2.8,7.5C18.4,41,27.2,47.5,38.4,48.1L38.4,48.1z M15,33.5c0-9,11.2-16.3,25-16.3s25,7.3,25,16.3 S53.8,49.8,40,49.8S15,42.5,15,33.5z M40,19.6c2.7,0,4.9,4,5.8,9.7l0,0c5.2-0.8,8.8-2.7,8.8-4.8c0-2.9-6.5-5.3-14.6-5.3 s-14.6,2.4-14.6,5.3c0,2.2,3.6,4,8.8,4.8l0,0C35.1,23.6,37.3,19.6,40,19.6z M41.6,48.1c11.2-0.6,20-7.2,20-15.2c0-2.7-1-5.3-2.8-7.5 l0,0c-0.1,3.7-5.4,6.9-12.7,8l0,0c0,0.2,0,0.5,0,0.7C46.1,40.8,44.2,46.5,41.6,48.1L41.6,48.1z M40,29.7c1.2,0,2.4-0.1,3.5-0.1l0,0 c-0.6-3.6-1.9-6.2-3.5-6.2s-2.9,2.6-3.5,6.2l0,0C37.6,29.6,38.8,29.7,40,29.7z M40,43.1c2,0,3.6-4.2,3.7-9.4l0,0 c-1.2,0.1-2.5,0.2-3.7,0.2s-2.5-0.1-3.7-0.2l0,0C36.4,38.9,38,43.1,40,43.1z"/>
</svg>
