<svg id="vaz" viewBox="0 0 80 50" xmlns="http://www.w3.org/2000/svg" fill="#767676">
    <path d="m13.591 39.453c0-5.834 11.829-10.576 26.41-10.576 14.58 0 26.408 4.742 26.408 10.576 0 5.831-11.828 10.547-26.408 10.547-14.581 0-26.41-4.716-26.41-10.547m32.296 0.926c0-0.055-0.027-0.082-0.054-0.082-0.734-0.108-1.499-0.191-2.289-0.246-0.055-0.027-0.082-0.054-0.055-0.162 2.426-2.563 3.354-5.833 2.125-8.395 0-0.027 0.056-0.082 0.109-0.082 8.395 1.035 14.526 4.225 14.526 8.041 0 4.605-9.075 8.366-20.249 8.366-11.176 0-20.251-3.761-20.251-8.366 0-4.008 6.814-7.361 15.918-8.178 0.053 0 0.079 0.027 0.079 0.109l-1.961 10.876c-0.026 0.081-0.026 0.162-0.026 0.245 0 0.735 0.6 1.335 1.31 1.335h0.082c1.77-0.109 3.652-0.654 5.449-1.689 0.52-0.3 0.983-0.6 1.444-0.954 0.027-0.027 0.082-0.027 0.109-0.027 0.6 0.409 0.928 0.872 0.928 1.362 0 0.682-0.626 1.309-1.664 1.771-1.227 0.545-2.971 0.873-4.932 0.873-1.662 0-3.189-0.245-4.361-0.654-0.056 0-0.081 0.027-0.109 0.082l-0.164 0.926c0 0.027 0.027 0.083 0.083 0.083 2.396 0.571 5.149 0.871 8.067 0.871 3.653 0 6.596-1.172 6.596-2.644 0-0.545-0.438-1.09-1.199-1.526-0.656-0.3-1.091-0.735-0.982-1.008 0.109-0.3 0.738-0.355 1.5-0.165 0.055 0.028 0.082 0 0.107-0.08l-0.136-0.682zm-5.886-6.65v0.164c0.082 1.935-1.119 4.523-3.299 6.705-0.436 0.463-0.899 0.871-1.389 1.225 0 0-0.027 0.028-0.055 0-0.056 0-0.082-0.054-0.082-0.108l2.153-11.802c0-0.054-0.027-0.081-0.082-0.081-11.828 0.546-21.014 4.66-21.014 9.622 0 5.341 10.657 9.674 23.767 9.674 13.137 0 23.768-4.333 23.768-9.674 0-5.344-10.631-9.677-23.768-9.677h-1.256c-0.025 0-0.053 0.027-0.079 0.082l-0.246 1.362c0 0.027 0.026 0.082 0.055 0.082 0.9 0.435 1.527 1.336 1.527 2.426"/>
</svg>
