<svg id="volkswagen" viewBox="0 0 80 50" xmlns="http://www.w3.org/2000/svg" fill="#767676">
    <path d="M40,13.587c-10.027,0-18.207,8.179-18.207,18.206S29.973,50,40,50   s18.207-8.18,18.207-18.207S50.027,13.587,40,13.587 M40,47.9c-8.871,0-16.107-7.236-16.107-16.107S31.129,15.687,40,15.687   s16.109,7.235,16.109,16.106S48.871,47.9,40,47.9"/>
    <path d="m34.791 44.099c-4.785-2.038-8.156-6.79-8.156-12.306 0-1.402 0.219-2.755 0.623-4.027l7.533 16.333z"/>
    <path d="m43.711 44.633c-1.18 0.342-2.422 0.526-3.711 0.526-1.287 0-2.529-0.185-3.709-0.526l3.711-8.656 3.709 8.656z"/>
    <path d="m52.744 27.77c0.404 1.27 0.621 2.623 0.621 4.023 0 5.514-3.367 10.266-8.152 12.305l7.531-16.328z"/>
    <path d="m46.738 20.26c1.631 0.957 3.043 2.252 4.145 3.786l-6.66 14.147-2.244-5.402h-3.955l-2.244 5.402-6.66-14.148c1.098-1.535 2.512-2.83 4.145-3.788l4.672 10.899h4.133l4.668-10.896z"/>
    <path d="m40 18.428c1.307 0 2.57 0.189 3.764 0.543l-3.762 9.063-3.766-9.064c1.196-0.353 2.457-0.542 3.764-0.542"/>
</svg>
