<svg xmlns="http://www.w3.org/2000/svg" data-tag="symbol" fill="#767676" id="svg-tt-water" width="100%" height="100%" viewBox="0 0 65 40">
    <path d="m39 26h-0.3c-3.7-3.6-11.4-5.9-13.5-6h-13l-2.6 3h3.3c-0.6 0.9-1.4 2.4-1.4 4.7-7.2 2.7-11.5 7.9-11.5 11.8v0.5h46.8c10.3 0 17-12.7 17.2-13.3l0.3-0.7h-25.3zm-13.8-5c1 0 3.9 0.8 6.8 2h-6.7c-0.3 0-2.8-0.4-3.2-2h3.1zm-10.8 1.9l1.1-0.9h-3.6l0.9-1h8.3c0.4 2.6 4 3 4.1 3h8.9c1.1 0.6 2.2 1.2 3.1 2h-15.9c-2.9 0-5.9 0.5-8.6 1.4 0-3.1 1.6-4.4 1.7-4.5zm32.3 16.1h-45.7c0.3-2.5 2.3-5.3 5.4-7.5 4.1-2.9 9.6-4.5 15.4-4.5h40.9c-1.6 2.7-7.7 12-16 12z"/>
</svg>
