<svg  xmlns="http://www.w3.org/2000/svg" data-tag="symbol" fill="#767676" id="svg-tt-autobus" width="100%" height="100%" viewBox="0 0 65 40">
    <path d="m9 17v9h33v-9h-33zm8 8h-7v-7h7v7zm8 0h-7v-7h7v7zm8 0h-7v-7h7v7zm1-7h7v7h-7v-7z"/>
    <path d="m52.3 17h-5.3v9h10v-0.5c0-2.2-1.9-8.5-4.7-8.5zm-4.3 8v-7h4.3c1.7 0 3.5 4.5 3.7 7h-8z"/>
    <path d="m62 28c0-7.1-4.8-15-9-15h-49v24h9.3c0.6 1.7 2.3 3 4.2 3s3.6-1.3 4.2-3h22.6c0.6 1.7 2.3 3 4.2 3s3.6-1.3 4.2-3h9.3v-9zm-44.5 11c-1.9 0-3.5-1.6-3.5-3.5s1.6-3.5 3.5-3.5 3.5 1.6 3.5 3.5-1.6 3.5-3.5 3.5zm31 0c-1.9 0-3.5-1.6-3.5-3.5s1.6-3.5 3.5-3.5 3.5 1.6 3.5 3.5-1.6 3.5-3.5 3.5zm12.5-7h-5v1h5v3h-8.1c0-0.2 0.1-0.3 0.1-0.5 0-2.5-2-4.5-4.5-4.5s-4.5 2-4.5 4.5c0 0.2 0 0.3 0.1 0.5h-22.2c0-0.2 0.1-0.3 0.1-0.5 0-2.5-2-4.5-4.5-4.5s-4.5 2-4.5 4.5c0 0.2 0 0.3 0.1 0.5h-8.1v-22h48c3.3 0 8 7.1 8 14.1v3.9z"/>
    <path d="m17.5 36.5c0.5523 0 1-0.4477 1-1s-0.4477-1-1-1-1 0.4477-1 1 0.4477 1 1 1z"/>
    <path d="m48.5 36.5c0.5523 0 1-0.4477 1-1s-0.4477-1-1-1-1 0.4477-1 1 0.4477 1 1 1z"/>
</svg>
