<svg xmlns='http://www.w3.org/2000/svg' data-tag="symbol" fill="#767676" id="svg-tt-moto" width="100%" height="100%"
     viewBox="0 0 65 40">
    <path d="m40.9 9c1.1 0.6 2.3 0.9 3.5 1h0.5v-6h-0.5c-0.1 0-3.5 0-5.5 2.7l-0.3 0.3 0.2 0.3c0.6 0.7 1.3 1.3 2.1 1.7zm3-4v3.9c-0.9-0.1-1.7-0.4-2.5-0.8-0.6-0.3-1-0.7-1.5-1.2 1.3-1.4 3.2-1.8 4-1.9z"/>
    <path d="m19 31c-1.7 0-3 1.3-3 3s1.3 3 3 3 3-1.3 3-3-1.3-3-3-3zm0 5c-1.1 0-2-0.9-2-2s0.9-2 2-2 2 0.9 2 2-0.9 2-2 2z"/>
    <path d="m46 28c-3.3 0-6 2.7-6 6s2.7 6 6 6 6-2.7 6-6-2.7-6-6-6zm0 11c-2.8 0-5-2.2-5-5s2.2-5 5-5 5 2.2 5 5-2.2 5-5 5z"/>
    <path d="m46 31c-1.7 0-3 1.3-3 3s1.3 3 3 3 3-1.3 3-3-1.3-3-3-3zm0 5c-1.1 0-2-0.9-2-2s0.9-2 2-2 2 0.9 2 2-0.9 2-2 2z"/>
    <path d="m55.1 27.4c-1.3-1.5-3.1-2.5-5-3.1h-0.1c0-4-1.1-7.2-3-9.8s-4.7-4.7-8.2-6.4c-0.7-1.4-1.5-2.7-2.4-3.9l-0.4-0.2-0.4 0.8c5.3 6.8 5.8 16.4 2.1 23.2h-10.2c-0.5 0-0.8-0.2-1.1-0.5s-0.4-0.8-0.5-1.4c-0.1-1.2 0.5-2.7 1.8-4.1 1.7 0 2.9-1.7 2.4-3.3l-0.7-2c-0.3-1-1.3-1.7-2.4-1.7h-11.5c-1.4 0-2.5 1.1-2.5 2.5v2c0 0.8 0.4 1.5 1 2 0 0.9-0.3 1.3-0.6 1.7-0.2 0.2-0.5 0.4-0.8 0.7-0.3 0.2-0.6 0.5-0.9 0.8-1.4 1.3-2.6 3.3-2.7 8.3v1h4c0 3.3 2.7 6 6 6s6-2.7 6-6h12.3v-0.5c0-1.6 0.5-3.2 1.4-4.5l0.1-0.1c1.6-2.2 4-3.2 4.8-3.5 0.1-0.1 0.2-0.1 0.2-0.1 6.5-1.7 10.1 2.2 10.6 2.7l0.3 0.4 0.8-0.6-0.4-0.4zm-41.1-9.9c0-0.8 0.7-1.5 1.5-1.5h11.6c0.6 0 1.2 0.4 1.4 1l0.7 2c0.3 1-0.4 2-1.4 2h-12.3c-0.8 0-1.5-0.7-1.5-1.5v-2zm5 21.5c-2.8 0-5-2.2-5-5s2.2-5 5-5 5 2.2 5 5-2.2 5-5 5zm17.3-6h-11.4c-0.5-2.8-2.9-5-5.9-5s-5.4 2.2-5.9 5h-3.1c0.1-4.8 1.3-6.5 2.3-7.6 0.3-0.3 0.6-0.5 0.8-0.7 0.3-0.2 0.6-0.5 0.9-0.7 0.5-0.5 0.8-1.1 0.9-2 0.2 0 0.3 0.1 0.5 0.1h10.9c-1.1 1.4-1.5 2.9-1.5 4.1 0 0.8 0.3 1.5 0.7 2 0.3 0.4 0.8 0.7 1.4 0.8h10.5c-0.6 1.2-1 2.6-1.1 4zm7-8.5c-1.4 0.5-2.7 1.2-3.8 2.2 2.2-5.2 2.2-11.5 0-17.1 2.9 1.6 5.1 3.4 6.7 5.5 1.8 2.4 2.7 5.3 2.8 9.1-1.9-0.3-3.8-0.3-5.7 0.3z"/>
</svg>
