<svg xmlns='http://www.w3.org/2000/svg' data-tag="symbol" fill="#767676" id="svg-tt-cars" width="100%" height="100%"
     viewBox="0 0 65 40">
    <path d="m64 31c0-5.8-6.6-9.8-16.1-9.9-1-1.1-6-6.7-11.1-8.1h-18.6c-3.6 0.8-7.9 6.4-9.1 8h-6.1v6h-2v4.5c0 2 1.5 4.4 7.3 4.5 0.8 2.3 3 4 5.7 4 2.6 0 4.8-1.7 5.7-4h26.7c0.8 2.3 3 4 5.7 4s4.8-1.7 5.7-4h6.2v-5zm-50 8c-2.8 0-5-2.2-5-5s2.2-5 5-5 5 2.2 5 5-2.2 5-5 5zm38 0c-2.8 0-5-2.2-5-5s2.2-5 5-5 5 2.2 5 5-2.2 5-5 5zm11-4h-5.1c0.1-0.3 0.1-0.7 0.1-1 0-3.3-2.7-6-6-6s-6 2.7-6 6c0 0.3 0 0.7 0.1 1h-26.2c0.1-0.3 0.1-0.7 0.1-1 0-3.3-2.7-6-6-6s-6 2.7-6 6c0 0.3 0 0.7 0.1 1-3.9-0.1-6.1-1.3-6.1-3.5v-3.5h2v-6h5.6l0.2-0.2c0.5-0.7 5.1-7 8.6-7.8h18.2c5.2 1.5 10.7 7.9 10.7 8l0.2 0.2h0.2c4.3 0 8.2 0.9 11 2.5 2 1.1 4.4 3.2 4.4 6.4v3.9h-0.1z"/>
    <path d="m36.3 17l4.6 4h-11.9v-4h7.3zm0.4-1h-8.7v6h15.5l-6.8-6z"/>
    <path d="m25 17v4h-10c1.6-1.9 3.8-4 4.7-4h5.3zm1-1h-6.3c-1.9 0-5.5 4.3-6.2 5.2l-0.5 0.8h13v-6z"/>
    <path d="m14 31c-1.7 0-3 1.3-3 3s1.3 3 3 3 3-1.3 3-3-1.3-3-3-3zm0 5c-1.1 0-2-0.9-2-2s0.9-2 2-2 2 0.9 2 2-0.9 2-2 2z"/>
    <path d="m52 31c-1.7 0-3 1.3-3 3s1.3 3 3 3 3-1.3 3-3-1.3-3-3-3zm0 5c-1.1 0-2-0.9-2-2s0.9-2 2-2 2 0.9 2 2-0.9 2-2 2z"/>
</svg>

