<svg xmlns="http://www.w3.org/2000/svg" data-tag="symbol" fill="#767676" id="svg-tt-spectex" width="100%" height="100%" viewBox="0 0 65 40">
    <path d="m13 16h11v-9h-11v9zm4-8h6v7h-6v-7zm-3 0h2v7h-2v-7z"/>
    <path d="m40 15h-8v1h8v-1z"/>
    <path d="m40 17h-8v1h8v-1z"/>
    <path d="m40 19h-8v1h8v-1z"/>
    <path d="m10 30c-1.1 0-2 0.9-2 2s0.9 2 2 2 2-0.9 2-2-0.9-2-2-2zm0 3c-0.6 0-1-0.4-1-1s0.4-1 1-1 1 0.4 1 1-0.4 1-1 1z"/>
    <path d="m18 30c-1.1 0-2 0.9-2 2s0.9 2 2 2 2-0.9 2-2-0.9-2-2-2zm0 3c-0.6 0-1-0.4-1-1s0.4-1 1-1 1 0.4 1 1-0.4 1-1 1z"/>
    <path d="m26 30c-1.1 0-2 0.9-2 2s0.9 2 2 2 2-0.9 2-2-0.9-2-2-2zm0 3c-0.6 0-1-0.4-1-1s0.4-1 1-1 1 0.4 1 1-0.4 1-1 1z"/>
    <path d="m34 30c-1.1 0-2 0.9-2 2s0.9 2 2 2 2-0.9 2-2-0.9-2-2-2zm0 3c-0.6 0-1-0.4-1-1s0.4-1 1-1 1 0.4 1 1-0.4 1-1 1z"/>
    <path d="m42 30c-1.1 0-2 0.9-2 2s0.9 2 2 2 2-0.9 2-2-0.9-2-2-2zm0 3c-0.6 0-1-0.4-1-1s0.4-1 1-1 1 0.4 1 1-0.4 1-1 1z"/>
    <path d="m56 25.5c0-4.2 2.5-7.9 6-9.5h-6c-2.1 1.4-3.7 3.5-4.4 6h-7.6v-10h-10v-4h-1v4h-5v-8h-19v20.2h0.1c-3.5 0.9-6.1 4-6.1 7.8 0 4.4 3.6 8 8 8h31c4.4 0 8-3.6 8-8 0-1.5-0.4-2.8-1.1-4h2.4c0.6 2.9 2.3 5.4 4.7 7h6c-3.5-1.7-6-5.3-6-9.5zm-46-20.5h17v8h16v11h-33v-19zm39 27c0 3.9-3.1 7-7 7h-31c-3.9 0-7-3.1-7-7s3.1-7 7-7h31c3.9 0 7 3.1 7 7zm-0.8-5c-1.1-1.4-2.6-2.3-4.3-2.8h0.1v-1.2h7.3c-0.2 0.8-0.3 1.6-0.3 2.5v0.1c0 0.5 0 1 0.1 1.5h-2.9v-0.1zm8.2 7c-2.6-1.9-4.4-5-4.4-8.5v-0.1c0-3.5 1.7-6.6 4.4-8.5h2.4c-2.3 2.1-3.8 5.1-3.8 8.5v0.1c0 3.4 1.5 6.4 3.8 8.5h-2.4z"/>
</svg>
