<svg xmlns="http://www.w3.org/2000/svg" data-tag="symbol" fill="#767676" id="svg-tt-selkhoztekhnika" width="100%" height="100%" viewBox="0 0 65 40">
    <path d="m17 22c-3.9 0-7 3.1-7 7s3.1 7 7 7 7-3.1 7-7-3.1-7-7-7zm0 13c-3.3 0-6-2.7-6-6s2.7-6 6-6 6 2.7 6 6-2.7 6-6 6z"/>
    <path d="m52 25.1v-3.8l-2.3-2.3h-13.7v-4.3l0.9-0.9-0.7-0.7-1.2 1.2v4.7h-3.1l-3.7-11h2.3v-1h-19v1h1.5v7.3l-2 2v2.7l0.5-0.5c-3.3 1.9-5.5 5.4-5.5 9.5 0 6.1 4.9 11 11 11 4.2 0 8-2.4 9.8-6h13.5c0.9 3.4 4 6 7.7 6 4.4 0 8-3.6 8-8 0-3-1.6-5.5-4-6.9zm-40-7.4l2-2v-7.7h13.1l4 12h18.2l1.7 1.7v2.9c-0.9-0.4-1.9-0.6-3-0.6-1.4 0-2.7 0.4-3.9 1h-16.9c-0.4-1.1-1-2.1-1.8-3h1.2c0.8 0 1.6-0.4 2-1 0.5-0.7 0.6-1.5 0.3-2.3l-3-9.7h-10.9v9.2c-1.1 0.2-2.1 0.5-3 1v-1.5zm12.5 3.3c-2-1.9-4.6-3-7.5-3-0.3 0-0.7 0-1 0.1v-8.1h9.1l3 9c0.2 0.5 0.1 1-0.2 1.4s-0.7 0.6-1.2 0.6h-2.2zm-7.5 18c-5.5 0-10-4.5-10-10s4.5-10 10-10 10 4.5 10 10-4.5 10-10 10zm10.2-6c0.5-1.2 0.8-2.6 0.8-4 0-1-0.2-2-0.4-3h15.1c-1.7 1.5-2.7 3.6-2.7 6 0 0.3 0 0.7 0.1 1h-12.9zm20.8 6c-3.9 0-7-3.1-7-7s3.1-7 7-7 7 3.1 7 7-3.1 7-7 7z"/>
    <path d="m48 28c-2.2 0-4 1.8-4 4s1.8 4 4 4 4-1.8 4-4-1.8-4-4-4zm0 7c-1.7 0-3-1.3-3-3s1.3-3 3-3 3 1.3 3 3-1.3 3-3 3z"/>
</svg>
