<svg xmlns="http://www.w3.org/2000/svg" data-tag="symbol" fill="#767676" id="svg-tt-trailers" width="100%" height="100%" viewBox="0 0 65 40">
    <path d="m26 31c-1.7 0-3 1.3-3 3s1.3 3 3 3 3-1.3 3-3-1.3-3-3-3zm0 5c-1.1 0-2-0.9-2-2s0.9-2 2-2 2 0.9 2 2-0.9 2-2 2z"/>
    <path d="M56.3,30H52V16H6v19h11.4l0.7-2h2C20,33.3,20,33.7,20,34c0,3.3,2.7,6,6,6s6-2.7,6-6c0-0.3,0-0.7-0.1-1h2  l0.2,1H52v-3h3.9l1.6,1.3l0.6-0.8L56.3,30z M26,39c-2.8,0-5-2.2-5-5s2.2-5,5-5s5,2.2,5,5S28.8,39,26,39z M31.7,32  c-0.8-2.3-3-4-5.7-4s-4.8,1.7-5.7,4h-1.9l1.2-3.5C19.8,28,20.7,27,22,27h8.5c0.8,0,2.2,1,2.4,1.9l0.7,3.1H31.7z M51,30v3H34.9  l-1-4.3c-0.3-1.4-2.2-2.7-3.4-2.7H22c-1.6,0-3,1.1-3.3,2.1L16.6,34H7V20h44V30z M51,19H7v-2h44V19z"/>
</svg>
