<svg xmlns="http://www.w3.org/2000/svg" data-tag="symbol" fill="#767676" id="svg-tt-trucks" width="100%" height="100%" viewBox="0 0 65 40">
    <path d="m62 20.1l-6.7-11.1h-14.3v16h-2v-19.6l-35 9.1v21.5h9.3c0.8 2.3 3 4 5.7 4s4.8-1.7 5.7-4h20.7c0.8 2.3 3 4 5.7 4s4.8-1.7 5.7-4h5.2v-15.9zm-57-4.8l33-8.5v18.2h-33v-9.7zm14 23.7c-2.8 0-5-2.2-5-5s2.2-5 5-5 5 2.2 5 5-2.2 5-5 5zm32 0c-2.8 0-5-2.2-5-5s2.2-5 5-5 5 2.2 5 5-2.2 5-5 5zm10-11h-4v1h4v6h-4.1c0.1-0.3 0.1-0.7 0.1-1 0-3.3-2.7-6-6-6s-6 2.7-6 6c0 0.3 0 0.7 0.1 1h-20.2c0.1-0.3 0.1-0.7 0.1-1 0-3.3-2.7-6-6-6s-6 2.7-6 6c0 0.3 0 0.7 0.1 1h-8.1v-9h37v-16h12.7l6.3 10.4v7.6z"/>
    <path d="M47,13v7h10.6l-4.2-7H47z M48,19v-5h4.8l3,5H48z"/>
    <path d="m19 31c-1.7 0-3 1.3-3 3s1.3 3 3 3 3-1.3 3-3-1.3-3-3-3zm0 5c-1.1 0-2-0.9-2-2s0.9-2 2-2 2 0.9 2 2-0.9 2-2 2z"/>
    <path d="m51 31c-1.7 0-3 1.3-3 3s1.3 3 3 3 3-1.3 3-3-1.3-3-3-3zm0 5c-1.1 0-2-0.9-2-2s0.9-2 2-2 2 0.9 2 2-0.9 2-2 2z"/>
</svg>
