<svg xmlns="http://www.w3.org/2000/svg" id="svg-header_favorite" viewBox="0 0 19 19" width="100%" height="100%">
    <path fill="#7A7A7A"
          d="M9.5,2.1l2.2,4.5l0.2,0.5l0.5,0.1l4.9,0.7l-3.6,3.5l-0.4,0.4l0.1,0.5l0.8,4.9L10,14.8l-0.5-0.2L9,14.8l-4.4,2.3l0.8-4.9l0.1-0.5l-0.4-0.4L1.6,7.8l4.9-0.7l0.5-0.1l0.2-0.5L9.5,2.1 M9.5,0.5c-0.2,0-0.3,0.1-0.4,0.2L6.4,6.1L0.4,7C0.1,7,0,7.3,0,7.5c0,0.1,0.1,0.2,0.1,0.3L4.5,12l-1,6c0,0.3,0.1,0.5,0.4,0.5c0,0,0,0,0.1,0c0.1,0,0.1,0,0.2,0l5.4-2.8l5.4,2.8c0.1,0,0.1,0.1,0.2,0c0.2,0,0.5-0.2,0.5-0.4c0,0,0-0.1,0-0.1l-1-6l4.3-4.2c0.2-0.2,0.2-0.5,0-0.7C18.8,7.1,18.7,7,18.6,7l-6-0.9L9.9,0.7C9.8,0.5,9.7,0.5,9.5,0.5z"/>
</svg>
