<svg width="40" height="30" viewBox="0 0 40 30" fill="none" xmlns="http://www.w3.org/2000/svg">
<g clip-path="url(#clip0)">
<path d="M40.0001 0H0V29.0909H40.0001V0Z" fill="#003B56"/>
<path d="M27.2681 26.3123C27.2681 25.9222 27.902 25.8247 27.902 26.2636C27.902 26.7025 27.2681 26.7512 27.2681 26.3123Z" fill="white"/>
<path d="M30.1941 26.4587C29.0725 27.0438 28.1948 26.1173 28.5849 24.9957C28.7799 24.508 29.1213 24.1179 29.6577 24.0204C29.8528 23.9716 30.3404 23.8741 30.4867 24.0204C30.5843 24.1179 30.4867 24.2154 30.438 24.4105C29.7553 24.0691 29.0725 24.6543 28.975 25.3371C28.8287 26.1661 29.5114 26.4587 30.1941 26.1173C30.1454 26.2636 30.1454 26.3611 30.1941 26.4587Z" fill="white"/>
<path d="M33.0218 25.0445C33.0218 25.7272 32.6317 26.4099 31.949 26.605C31.2663 26.8 30.6323 26.3124 30.6323 25.5809C30.6323 24.9469 31.0224 24.2154 31.6564 24.0204C32.3879 23.8253 33.0218 24.2642 33.0218 25.0445ZM31.0712 25.5809C31.0712 26.0685 31.4613 26.4587 31.949 26.2148C32.3879 26.0198 32.6317 25.3858 32.5829 24.9469C32.5342 24.508 32.1928 24.2154 31.7539 24.3617C31.315 24.508 31.0712 25.142 31.0712 25.5809Z" fill="white"/>
<path d="M33.3633 26.5563C33.4608 26.1174 33.5583 25.6297 33.6071 25.1908C33.6559 25.0445 33.6559 24.8495 33.7046 24.7032C33.7046 24.6056 33.7534 24.118 33.8022 24.0692C33.8509 24.0204 34.0948 24.0692 34.1923 24.0692C34.1923 24.2155 34.1435 24.4106 34.1435 24.5569C34.3874 24.313 34.5824 24.0692 34.9725 24.0204C35.3139 24.0204 35.6065 24.2155 35.6065 24.6056C35.8503 24.2155 36.4843 23.8254 36.9232 24.1667C37.2645 24.4593 37.167 24.947 37.0695 25.2884C37.0207 25.6785 36.9232 26.0198 36.8744 26.41C36.8256 26.7513 36.7281 26.6538 36.3867 26.6538C36.4843 26.2149 36.533 25.8248 36.6306 25.3859C36.6793 25.1908 36.7281 24.947 36.6793 24.7032C36.5818 24.313 36.2404 24.313 35.9479 24.5081C35.509 24.8007 35.4602 25.4346 35.4114 25.9223C35.4114 26.0686 35.3627 26.5075 35.2651 26.605C35.2164 26.605 35.0213 26.5563 34.875 26.5563C34.9725 26.1661 35.0213 25.7272 35.1188 25.3371C35.2164 24.8982 35.2651 24.0204 34.5337 24.4106C34.046 24.7032 33.9972 25.3371 33.8997 25.8248C33.8509 25.9711 33.8509 26.41 33.7534 26.5075C33.7046 26.605 33.4608 26.5563 33.3633 26.5563Z" fill="white"/>
<path fill-rule="evenodd" clip-rule="evenodd" d="M15.0762 8.51291C13.7108 8.31785 12.3454 8.12279 10.9312 7.92772C12.3454 7.58636 13.7596 7.19624 15.1738 6.85488C15.3688 6.80612 15.3688 6.80612 15.4664 6.70858C15.6126 6.46476 15.6614 5.9771 15.7589 5.73327C15.954 5.05055 16.1491 4.31907 16.3441 3.63635C16.9781 4.22154 17.6608 4.80673 18.2948 5.34315C18.4898 5.48944 18.8312 5.92833 19.075 6.02587C19.1725 6.02587 19.3676 5.9771 19.4651 5.92834C21.4645 5.48944 23.4639 5.05055 25.4145 4.61166C26.0485 4.46537 26.6824 4.31907 27.3164 4.17277C25.1707 5.34315 23.025 6.56229 20.8793 7.73266C21.6596 8.41538 22.3911 9.04933 23.1713 9.73205C21.7083 9.53699 20.2941 9.34193 18.8312 9.0981C18.3435 9.04933 18.3435 9.04933 17.9046 9.29316C17.1731 9.73205 16.4417 10.2197 15.7102 10.6586C15.125 11 14.5398 11.3901 14.0034 11.7314C14.3447 10.6586 14.6861 9.58575 15.0762 8.51291Z" fill="white"/>
<path fill-rule="evenodd" clip-rule="evenodd" d="M8.39527 16.9494C8.44404 17.1933 8.68787 18.6562 8.88293 18.705C9.07799 18.7538 9.51688 18.5587 9.71195 18.5099C10.1996 18.3636 10.6385 18.1686 10.6385 17.6322C10.6385 17.0957 10.541 16.5105 10.3947 16.0229C10.2971 15.6328 10.1508 15.0476 9.80948 14.755C9.46812 14.4624 8.6391 14.6575 8.29774 14.9013C7.76132 15.3402 8.29774 16.4618 8.39527 16.9494ZM8.98046 19.1439C9.17552 19.9241 9.41935 20.7044 9.61442 21.4846C9.76071 21.9723 9.90701 22.9476 10.4922 23.0451C10.6385 23.0451 11.0286 22.8988 11.1749 23.0451C11.37 23.289 10.8336 23.3865 10.736 23.4353C9.95578 23.6303 9.17552 23.8254 8.44404 24.0205C8.20021 24.0692 5.42057 24.9958 5.32303 24.6544C5.27427 24.4593 5.56686 24.4106 5.66439 24.3618C5.95699 24.2155 6.05452 24.0204 6.05452 23.6791C6.05452 22.9476 5.76193 22.2649 5.61563 21.5822C5.27427 20.1192 4.88414 18.705 4.44525 17.2908C4.34772 16.9494 4.25019 16.3643 3.86006 16.218C3.665 16.1204 3.37241 16.3155 3.17734 16.2667C2.78722 16.0717 3.27487 15.8766 3.46994 15.8278C5.03044 15.3889 6.59094 14.9988 8.15144 14.6087C9.56565 14.2186 11.0286 13.7797 12.5404 13.7797C13.9058 13.7797 14.686 15.2914 14.2959 16.5593C14.0521 17.242 13.4181 17.5834 12.833 17.9248C12.0527 18.3636 11.1749 18.5587 10.2971 18.8025C11.0286 19.0464 11.7113 19.1439 12.4428 18.9001C12.7354 18.8025 13.028 18.6562 13.3206 18.5099C13.4669 18.4124 13.7595 18.2173 13.9546 18.2661C14.1496 18.3149 14.1984 18.6075 14.2472 18.7538C14.3447 19.0464 14.5398 19.339 14.7348 19.6315C15.1737 20.2167 15.7101 20.8019 16.3441 21.192C16.5879 21.3383 16.8317 21.4359 17.1243 21.4359C17.2706 21.4359 17.5145 21.3871 17.4657 21.6309C17.4169 21.826 16.9293 21.8748 16.783 21.9235C16.3928 22.0211 16.0027 22.1186 15.6126 22.2161C14.8811 22.4112 14.1009 22.6062 13.3694 22.8013C13.1743 22.8501 12.833 23.0451 12.6379 22.8988C12.4428 22.8013 12.2965 22.3624 12.1502 22.1674C11.6626 21.4846 11.1749 20.8019 10.6873 20.1192C10.4922 19.8754 10.1996 19.2414 9.90701 19.0464C9.66318 18.8513 9.22429 19.0951 8.98046 19.1439ZM18.6848 17.4859C18.8311 18.1198 18.9774 18.7538 19.075 19.3877C19.1725 19.8266 19.4163 20.5093 18.9774 20.8019C18.8799 20.8507 18.0509 21.0945 18.3435 21.3383C18.441 21.4359 18.9774 21.2408 19.1237 21.192C19.4651 21.0945 19.8552 20.997 20.1966 20.8995C21.5132 20.5581 22.8299 20.2655 24.0978 19.8754C24.5855 19.7291 24.5367 19.4852 24.0491 19.534C23.5126 19.5828 23.3663 19.6315 23.0737 19.0951C22.8299 18.6562 22.7324 18.1198 22.5861 17.6322C22.4398 16.9982 22.2447 16.3155 22.0984 15.6815C21.9521 15.0476 21.7571 14.3649 21.6108 13.7309C21.5132 13.1945 21.1719 12.4142 21.3182 11.8291C21.4157 11.3414 22.0984 11.4877 22.196 11.0976C22.3423 10.6099 21.0256 11.0976 20.8305 11.1463C19.5626 11.4877 18.2947 11.8291 17.0268 12.1216C16.783 12.1704 16.4416 12.2192 16.1978 12.3655C16.0027 12.5118 16.0515 12.6581 16.2953 12.7068C16.5879 12.7556 16.8317 12.5605 17.1243 12.7556C17.3194 12.9019 17.4169 13.1457 17.4657 13.3896C18.0021 14.755 18.3435 16.1204 18.6848 17.4859ZM29.5108 14.5599C28.8769 13.6821 28.2429 12.8044 27.6577 11.9266C27.7553 12.0241 27.6577 12.2679 27.6577 12.3655C27.609 12.6581 27.609 12.9994 27.609 13.292C27.5602 13.926 27.5602 14.5112 27.5114 15.1451C28.1454 14.9501 28.8281 14.755 29.5108 14.5599ZM27.4139 15.4865C27.4139 15.8278 27.4139 16.218 27.4627 16.5593C27.5114 16.9982 27.7553 17.242 28.0478 17.5346C28.2917 17.7785 28.5355 18.0223 28.9256 18.1198C29.1695 18.1686 29.9009 18.2173 29.4133 18.5099C29.1207 18.705 28.5843 18.7538 28.2429 18.8025C27.7553 18.9488 27.2676 19.0464 26.7799 19.1927C26.341 19.2902 25.8534 19.4365 25.4145 19.534C25.1707 19.5828 24.683 19.6803 25.0244 19.339C25.2194 19.1439 25.4633 18.9976 25.6583 18.8025C25.9022 18.5099 26.0485 18.2173 26.1948 17.876C26.4873 17.1445 26.6824 16.413 26.8287 15.6328C26.975 14.7062 27.0238 13.7797 27.1213 12.8531C27.1701 12.2192 27.5114 11.2439 26.6824 11.0488C26.4873 11 26.0972 11.0488 25.9509 10.9025C25.7071 10.6099 26.4873 10.4636 26.6824 10.4148C27.5114 10.1223 28.2429 9.53707 28.8281 8.95188C28.9744 8.80559 29.3645 8.2204 29.6084 8.2204C29.8522 8.2204 30.2423 8.95188 30.3886 9.14694C30.9738 9.97596 31.559 10.7562 32.1442 11.5365C32.7294 12.3167 33.2658 13.097 33.851 13.8284C34.3386 14.5112 34.8263 15.2914 35.4115 15.8766C35.7041 16.1204 35.8991 16.2667 36.2893 16.2667C36.4843 16.2667 37.0207 16.3155 36.6306 16.5593C36.2893 16.7544 35.8016 16.8031 35.4115 16.9007C34.9238 17.047 34.4362 17.1445 33.9973 17.2908C32.9732 17.5834 31.9003 17.8272 30.8763 18.1198C30.7787 18.1686 30.4861 18.2661 30.3886 18.2173C30.2423 18.1198 30.3398 17.9735 30.4374 17.876C30.73 17.6322 31.1689 17.6322 31.2176 17.1445C31.2664 16.7056 30.925 16.218 30.6812 15.8766C30.4861 15.584 30.2423 15.1451 29.9497 14.9013C29.7059 14.755 29.3158 14.95 29.0719 14.9988C28.438 15.2426 27.9016 15.3889 27.4139 15.4865Z" fill="white"/>
</g>
<defs>
<clipPath id="clip0">
<rect width="40" height="29.0909" fill="white"/>
</clipPath>
</defs>
</svg>
