<svg xmlns="http://www.w3.org/2000/svg" width="121" height="30" viewBox="0 0 196 48" fill="none">
    <path fill-rule="evenodd" clip-rule="evenodd"
          d="M0 0H128V48H12.0002C5.37281 48 0.000244505 42.6275 0.000206492 36.0001L0 0Z" fill="#01A4A6"/>
    <path d="M34.0004 23.1518C34.0004 22.8525 34.0004 22.4533 34.0004 22.1539C34.0004 21.8545 33.9004 21.5552 33.9004 21.3556C33.8004 20.8566 33.5004 20.4574 33.2004 20.1581C32.8004 19.8587 32.4004 19.6591 31.7004 19.6591C31.4004 19.6591 31.0004 19.6591 30.6004 19.8587C30.2004 19.9585 29.9004 20.0583 29.5004 20.2579C29.1004 20.4574 28.8004 20.657 28.5004 20.9564C28.2004 21.2558 27.9004 21.4554 27.6004 21.8545V32.8317H23.7004V23.052C23.7004 22.7527 23.7004 22.3535 23.7004 22.0541C23.7004 21.7547 23.6004 21.4554 23.6004 21.2558C23.5004 20.7568 23.2004 20.3576 22.9004 20.0583C22.6004 19.7589 22.1004 19.5593 21.4004 19.5593C21.1004 19.5593 20.7004 19.5593 20.3004 19.7589C19.9004 19.8587 19.6004 19.9585 19.2004 20.1581C18.8004 20.3577 18.5004 20.5572 18.2004 20.8566C17.9004 21.156 17.6004 21.3556 17.3004 21.7547V32.7319H13.4004V16.7651H16.6004L17.0004 18.9606C17.2004 18.6612 17.5004 18.262 17.9004 17.9626C18.3004 17.6633 18.7004 17.3639 19.1004 17.1643C19.5004 16.9647 20.0004 16.7651 20.6004 16.5655C21.1004 16.366 21.7004 16.366 22.3004 16.366C23.4004 16.366 24.3004 16.5655 25.2004 17.0645C26.0004 17.5635 26.7004 18.262 27.1004 19.2599H27.2004C27.5004 18.8608 27.9004 18.4616 28.2004 18.0624C28.6004 17.6633 29.0004 17.3639 29.5004 17.1643C30.0004 16.8649 30.5004 16.6653 31.0004 16.5655C31.5004 16.4658 32.1004 16.366 32.7004 16.366C33.8004 16.366 34.8004 16.6653 35.6004 17.0645C36.4004 17.5635 37.0004 18.1622 37.4004 18.9606C37.5004 19.1602 37.6004 19.3597 37.7004 19.6591C37.8004 19.9585 37.8004 20.1581 37.9004 20.4574C37.9004 20.7568 38.0004 21.156 38.0004 21.4554C38.0004 21.8545 38.0004 22.2537 38.0004 22.7527V32.6321H34.0004V23.1518Z"
          fill="white"/>
    <path d="M51.2 31.2349C50.9 31.4345 50.6 31.7339 50.3 31.9335C50 32.1331 49.6 32.4324 49.2 32.632C48.8 32.8316 48.4 33.0312 47.9 33.131C47.4 33.2308 46.9 33.3306 46.3 33.3306C45.5 33.3306 44.8 33.2308 44.2 32.9314C43.5 32.7318 43 32.3326 42.5 31.9335C42 31.5343 41.7 30.9356 41.4 30.3368C41.1 29.738 41 29.0395 41 28.2412C41 27.343 41.2 26.6445 41.5 25.946C41.8 25.2474 42.3 24.6486 42.8 24.2495C43.4 23.7505 44 23.4511 44.8 23.1518C45.6 22.9522 46.4 22.7526 47.4 22.7526C48.1 22.7526 48.7 22.7526 49.3 22.8524C49.9 22.9522 50.4 23.052 50.8 23.1518V22.553C50.8 22.1538 50.7 21.8545 50.6 21.4553C50.5 21.1559 50.3 20.7568 50 20.5572C49.7 20.2578 49.4 20.0582 48.9 19.9584C48.4 19.7588 47.9 19.7588 47.2 19.7588C46.4 19.7588 45.6 19.8586 44.8 20.0582C44 20.2578 43.1 20.4574 42.2 20.8565V17.763C43 17.3638 43.9 17.1642 44.8 16.9647C45.7 16.7651 46.7 16.6653 47.6 16.6653C48.8 16.6653 49.8 16.7651 50.7 17.0644C51.6 17.3638 52.3 17.763 52.9 18.2619C53.5 18.7609 53.9 19.3597 54.2 20.0582C54.5 20.7568 54.6 21.4553 54.6 22.2536V28.2412C54.6 29.3389 54.6 30.237 54.6 30.9356C54.6 31.7339 54.6 32.3326 54.7 32.9314H51.2V31.2349ZM50.9 26.1455C50.5 26.0457 50.1 25.946 49.6 25.946C49.1 25.8462 48.6 25.8462 48.1 25.8462C47.1 25.8462 46.4 26.0457 45.8 26.4449C45.2 26.8441 45 27.4428 45 28.1414C45 28.5405 45.1 28.8399 45.2 29.1393C45.3 29.4387 45.5 29.6383 45.7 29.8378C45.9 30.0374 46.2 30.1372 46.5 30.237C46.8 30.3368 47.1 30.3368 47.4 30.3368C47.8 30.3368 48.2 30.237 48.5 30.1372C48.9 30.0374 49.2 29.9376 49.5 29.738C49.8 29.5385 50.1 29.4387 50.3 29.2391C50.5 29.0395 50.7 28.8399 50.9 28.6403V26.1455Z"
          fill="white"/>
    <path d="M68.4004 20.0582H68.1004C66.9004 20.0582 65.8004 20.2578 64.9004 20.5572C64.0004 20.9563 63.3004 21.4553 62.8004 22.1538V32.8316H58.9004V16.8649H62.1004L62.5004 19.0603H62.6004C63.1004 18.2619 63.7004 17.5634 64.5004 17.1642C65.3004 16.6653 66.3004 16.4657 67.4004 16.4657C67.8004 16.4657 68.1004 16.4657 68.4004 16.5655V20.0582Z"
          fill="white"/>
    <path d="M70.7002 8.98132H74.6002V23.4512H74.7002L80.8002 16.9647H85.7002L78.6002 24.4491L85.7002 32.9314H81.0002L74.7002 25.447H74.6002V32.9314H70.7002V8.98132Z"
          fill="white"/>
    <path d="M95.2006 30.3C96.143 30.2722 96.8006 30.1372 97.6006 30.0374C98.4006 29.8378 99.3006 29.6383 100.101 29.3389V32.4324C99.6006 32.632 98.8006 32.8316 97.8006 33.0312C96.8006 33.2308 95.7006 33.3306 94.5006 33.3306C93.4006 33.3306 92.3006 33.2308 91.3006 32.9314C90.3006 32.632 89.4006 32.1331 88.6006 31.5343C87.8006 30.8358 87.2006 30.0374 86.8006 29.0395C86.4006 28.0416 86.1006 26.7443 86.1006 25.2474C86.1006 23.7505 86.3006 22.553 86.7006 21.4553C87.1006 20.3576 87.7006 19.4595 88.4006 18.7609C89.1006 18.0624 89.9006 17.4636 90.8006 17.1642C91.7006 16.7651 92.7006 16.6653 93.6006 16.6653C94.6006 16.6653 95.6006 16.8649 96.4006 17.1642C97.3006 17.4636 98.0006 17.9626 98.6006 18.6611C99.2006 19.3597 99.7006 20.158 100.101 21.2557C100.401 22.2536 100.601 23.5509 100.601 24.948C100.601 25.5468 100.601 25.9459 100.501 26.3451H90.1006C90.2006 27.0437 90.3006 27.7422 90.6006 28.2412C90.9006 28.7401 91.2006 29.1393 91.7006 29.5385C92.1006 29.8378 92.6344 30.0918 93.3006 30.237C93.6414 30.3113 94.4585 30.3219 95.2006 30.3ZM93.6006 19.5592C93.1006 19.5592 92.7006 19.659 92.3006 19.8586C91.9006 20.0582 91.6006 20.2578 91.3006 20.5572C91.0006 20.8565 90.8006 21.2557 90.6006 21.6549C90.4006 22.0541 90.3006 22.553 90.3006 22.9522H96.6006C96.6006 22.4532 96.5006 22.0541 96.4006 21.6549C96.3006 21.2557 96.1006 20.8565 95.8006 20.5572C95.6006 20.2578 95.2006 19.9584 94.9006 19.8586C94.5006 19.659 94.1006 19.5592 93.6006 19.5592Z"
          fill="white"/>
    <path d="M114.101 32.9314C113.701 33.0312 113.101 33.131 112.501 33.2308C111.901 33.3306 111.301 33.3306 110.801 33.3306C109.501 33.3306 108.401 33.131 107.501 32.6321C106.601 32.2329 106.001 31.5343 105.701 30.736C105.401 30.1373 105.301 29.3389 105.301 28.341V20.0583H102.301V16.8649H105.301V12.3743H109.201V16.8649H113.801V20.0583H109.201V27.842C109.201 28.4408 109.301 28.9398 109.501 29.2391C109.801 29.7381 110.501 30.0375 111.501 30.0375C112.001 30.0375 112.401 30.0375 112.801 29.9377C113.201 29.8379 113.701 29.7381 114.101 29.6383V32.9314Z"
          fill="white"/>
    <path d="M196 0H130V48H196V0Z" fill="#003B56"/>
    <path d="M174.992 43.4154C174.992 42.7717 176.038 42.6107 176.038 43.3349C176.038 44.0591 174.992 44.1395 174.992 43.4154Z"
          fill="white"/>
    <path d="M179.82 43.6569C177.97 44.6224 176.521 43.0936 177.165 41.243C177.487 40.4383 178.05 39.7946 178.935 39.6337C179.257 39.5533 180.062 39.3923 180.303 39.6337C180.464 39.7946 180.303 39.9556 180.223 40.2774C179.096 39.7142 177.97 40.6797 177.809 41.8062C177.567 43.1741 178.694 43.6569 179.82 43.0936C179.74 43.335 179.74 43.496 179.82 43.6569Z"
          fill="white"/>
    <path d="M184.486 41.3234C184.486 42.4499 183.842 43.5764 182.715 43.8982C181.589 44.2201 180.543 43.4155 180.543 42.2085C180.543 41.1625 181.187 39.9555 182.233 39.6337C183.44 39.3118 184.486 40.036 184.486 41.3234ZM181.267 42.2085C181.267 43.0131 181.911 43.6568 182.715 43.2545C183.44 42.9327 183.842 41.8867 183.761 41.1625C183.681 40.4383 183.118 39.9555 182.394 40.1969C181.669 40.4383 181.267 41.4843 181.267 42.2085Z"
          fill="white"/>
    <path d="M185.05 43.8178C185.211 43.0936 185.372 42.289 185.452 41.5648C185.533 41.3235 185.533 41.0016 185.613 40.7602C185.613 40.5993 185.694 39.7947 185.774 39.7142C185.854 39.6337 186.257 39.7142 186.418 39.7142C186.418 39.9556 186.337 40.2774 186.337 40.5188C186.74 40.1165 187.061 39.7142 187.705 39.6337C188.268 39.6337 188.751 39.9556 188.751 40.5993C189.153 39.9556 190.199 39.3119 190.924 39.8751C191.487 40.3579 191.326 41.1625 191.165 41.7258C191.085 42.3695 190.924 42.9327 190.843 43.5764C190.763 44.1397 190.602 43.9787 190.039 43.9787C190.199 43.2546 190.28 42.6109 190.441 41.8867C190.521 41.5648 190.602 41.1625 190.521 40.7602C190.36 40.1165 189.797 40.1165 189.314 40.4384C188.59 40.9211 188.51 41.9672 188.429 42.7718C188.429 43.0132 188.349 43.7374 188.188 43.8983C188.107 43.8983 187.786 43.8178 187.544 43.8178C187.705 43.1741 187.786 42.4499 187.946 41.8062C188.107 41.0821 188.188 39.6337 186.981 40.2774C186.176 40.7602 186.096 41.8062 185.935 42.6109C185.854 42.8523 185.854 43.5764 185.694 43.7374C185.613 43.8983 185.211 43.8178 185.05 43.8178Z"
          fill="white"/>
    <path fill-rule="evenodd" clip-rule="evenodd"
          d="M154.876 14.0463C152.623 13.7245 150.37 13.4026 148.036 13.0808C150.37 12.5175 152.703 11.8738 155.036 11.3106C155.358 11.2301 155.358 11.2301 155.519 11.0692C155.761 10.6669 155.841 9.86223 156.002 9.45992C156.324 8.33343 156.646 7.12648 156.968 6C158.014 6.96556 159.14 7.93112 160.186 8.81621C160.508 9.0576 161.071 9.78177 161.473 9.9427C161.634 9.9427 161.956 9.86223 162.117 9.78177C165.416 9.0576 168.715 8.33343 171.934 7.60926C172.98 7.36787 174.026 7.12649 175.072 6.8851C171.531 8.81621 167.991 10.8278 164.451 12.7589C165.738 13.8854 166.945 14.9314 168.232 16.0579C165.819 15.736 163.485 15.4142 161.071 15.0119C160.267 14.9314 160.267 14.9314 159.542 15.3337C158.335 16.0579 157.128 16.8625 155.922 17.5867C154.956 18.1499 153.99 18.7937 153.105 19.3569C153.669 17.5867 154.232 15.8165 154.876 14.0463Z"
          fill="white"/>
    <path fill-rule="evenodd" clip-rule="evenodd"
          d="M143.852 27.9666C143.933 28.369 144.335 30.7829 144.657 30.8633C144.979 30.9438 145.703 30.6219 146.025 30.5415C146.829 30.3001 147.554 29.9782 147.554 29.0931C147.554 28.208 147.393 27.2425 147.151 26.4378C146.99 25.7941 146.749 24.8286 146.186 24.3458C145.622 23.863 144.255 24.1849 143.691 24.5872C142.806 25.3114 143.691 27.162 143.852 27.9666ZM144.818 31.5875C145.14 32.8749 145.542 34.1623 145.864 35.4497C146.105 36.2543 146.347 37.8636 147.312 38.0245C147.554 38.0245 148.197 37.7831 148.439 38.0245C148.76 38.4269 147.875 38.5878 147.714 38.6682C146.427 38.9901 145.14 39.312 143.933 39.6338C143.53 39.7143 138.944 41.2431 138.783 40.6798C138.703 40.358 139.185 40.2775 139.346 40.197C139.829 39.9557 139.99 39.6338 139.99 39.0706C139.99 37.8636 139.507 36.7371 139.266 35.6106C138.703 33.1967 138.059 30.8633 137.335 28.5299C137.174 27.9666 137.013 27.0011 136.369 26.7597C136.047 26.5988 135.565 26.9206 135.243 26.8402C134.599 26.5183 135.404 26.1964 135.725 26.116C138.3 25.3918 140.875 24.7481 143.45 24.1044C145.783 23.4607 148.197 22.7365 150.692 22.7365C152.945 22.7365 154.232 25.2309 153.588 27.3229C153.186 28.4494 152.14 29.0127 151.174 29.5759C149.887 30.3001 148.439 30.6219 146.99 31.0242C148.197 31.4266 149.324 31.5875 150.531 31.1852C151.013 31.0242 151.496 30.7828 151.979 30.5415C152.22 30.3805 152.703 30.0587 153.025 30.1391C153.347 30.2196 153.427 30.7024 153.508 30.9438C153.669 31.4266 153.991 31.9093 154.312 32.3921C155.037 33.3577 155.922 34.3232 156.968 34.9669C157.37 35.2083 157.772 35.3693 158.255 35.3693C158.497 35.3693 158.899 35.2888 158.818 35.6911C158.738 36.013 157.933 36.0934 157.692 36.1739C157.048 36.3348 156.404 36.4957 155.761 36.6567C154.554 36.9785 153.266 37.3004 152.059 37.6222C151.738 37.7027 151.174 38.0245 150.853 37.7831C150.531 37.6222 150.289 36.8981 150.048 36.5762C149.243 35.4497 148.439 34.3232 147.634 33.1967C147.312 32.7944 146.829 31.7484 146.347 31.4266C145.944 31.1047 145.22 31.507 144.818 31.5875ZM160.83 28.8517C161.071 29.8978 161.313 30.9438 161.474 31.9898C161.635 32.714 162.037 33.8405 161.313 34.3232C161.152 34.4037 159.784 34.806 160.267 35.2083C160.428 35.3693 161.313 35.0474 161.554 34.9669C162.117 34.806 162.761 34.6451 163.324 34.4842C165.497 33.9209 167.669 33.4381 169.761 32.7944C170.566 32.553 170.486 32.1507 169.681 32.2312C168.796 32.3116 168.554 32.3921 168.072 31.507C167.669 30.7829 167.508 29.8978 167.267 29.0931C167.026 28.0471 166.704 26.9206 166.462 25.8746C166.221 24.8286 165.899 23.7021 165.658 22.6561C165.497 21.771 164.934 20.4836 165.175 19.518C165.336 18.7134 166.462 18.9548 166.623 18.311C166.865 17.5064 164.692 18.3111 164.37 18.3915C162.278 18.9548 160.186 19.518 158.094 20.0008C157.692 20.0812 157.129 20.1617 156.726 20.4031C156.404 20.6445 156.485 20.8859 156.887 20.9663C157.37 21.0468 157.772 20.7249 158.255 21.0468C158.577 21.2882 158.738 21.6905 158.818 22.0928C159.703 24.3458 160.267 26.5988 160.83 28.8517ZM178.693 24.0239C177.647 22.5756 176.601 21.1273 175.635 19.6789C175.796 19.8399 175.635 20.2422 175.635 20.4031C175.555 20.8859 175.555 21.4491 175.555 21.9319C175.474 22.9779 175.474 23.9435 175.394 24.9895C176.44 24.6676 177.566 24.3458 178.693 24.0239ZM175.233 25.5527C175.233 26.116 175.233 26.7597 175.313 27.3229C175.394 28.0471 175.796 28.4494 176.279 28.9322C176.681 29.3345 177.084 29.7368 177.727 29.8978C178.13 29.9782 179.337 30.0587 178.532 30.5415C178.049 30.8633 177.164 30.9438 176.601 31.0242C175.796 31.2656 174.991 31.4266 174.187 31.6679C173.463 31.8289 172.658 32.0703 171.934 32.2312C171.532 32.3116 170.727 32.4726 171.29 31.9093C171.612 31.5875 172.014 31.3461 172.336 31.0242C172.739 30.5415 172.98 30.0587 173.221 29.4954C173.704 28.2885 174.026 27.0815 174.267 25.7941C174.509 24.2653 174.589 22.7365 174.75 21.2077C174.831 20.1617 175.394 18.5524 174.026 18.2306C173.704 18.1501 173.06 18.2306 172.819 17.9892C172.417 17.5064 173.704 17.265 174.026 17.1846C175.394 16.7018 176.601 15.7362 177.566 14.7707C177.808 14.5293 178.451 13.5637 178.854 13.5637C179.256 13.5637 179.9 14.7707 180.141 15.0925C181.107 16.4604 182.072 17.7478 183.038 19.0352C184.003 20.3226 184.888 21.61 185.854 22.817C186.659 23.9435 187.463 25.2309 188.429 26.1964C188.912 26.5988 189.233 26.8402 189.877 26.8402C190.199 26.8402 191.084 26.9206 190.44 27.3229C189.877 27.6448 189.073 27.7252 188.429 27.8862C187.624 28.1276 186.82 28.2885 186.095 28.5299C184.406 29.0127 182.635 29.415 180.946 29.8978C180.785 29.9782 180.302 30.1391 180.141 30.0587C179.9 29.8978 180.061 29.6564 180.222 29.4954C180.704 29.0931 181.429 29.0931 181.509 28.2885C181.589 27.5643 181.026 26.7597 180.624 26.1964C180.302 25.7137 179.9 24.9895 179.417 24.5872C179.015 24.3458 178.371 24.6676 177.969 24.7481C176.923 25.1504 176.038 25.3918 175.233 25.5527Z"
          fill="white"/>
</svg>
