<svg xmlns="http://www.w3.org/2000/svg">
    <path fill="#7A7A7A" d="M15,10c-2-2-2-3-2-6c0-0.7-0.4-1.4-1-1.7C11.9,1,10.8,0,9.5,0S7.1,1,7,2.3C6.4,2.6,6,3.3,6,4c0,3,0,4-2,6c-1,1-2,2-2,3c0,2,2,3,6,3h3c4,0,6-1,6-3C17,12,16,11,15,10z M9.5,1c0.7,0,1.2,0.4,1.4,1H8.1C8.3,1.4,8.8,1,9.5,1z M11,15H8c-3.3,0-5-0.7-5-2c0-0.6,0.9-1.5,1.7-2.3C7,8.4,7,7,7,4c0-0.6,0.4-1,1-1h3c0.6,0,1,0.5,1,1c0,3,0,4.4,2.3,6.7c0.8,0.8,1.7,1.7,1.7,2.3C16,14.3,14.3,15,11,15z" />
    <path fill="#7A7A7A" d="M9.5,18c-0.7,0-1.2-0.4-1.4-1h-1c0.2,1.1,1.2,2,2.4,2s2.2-0.9,2.4-2h-1C10.7,17.6,10.2,18,9.5,18z"/>
</svg>
