<svg xmlns="http://www.w3.org/2000/svg" class="header__menu-right-person-img">
    <path fill="#CCCCCC" d="M15.5,0C6.9,0,0,6.9,0,15.5S6.9,31,15.5,31S31,24.1,31,15.5S24.1,0,15.5,0z M15.5,1C23.5,1,30,7.5,30,15.5c0,2.9-0.9,5.6-2.3,7.9c-0.1-0.1-0.2-0.2-0.3-0.2l-6.8-3.4c-0.2-0.1-0.3-0.1-0.5-0.1c-0.3,0-0.6,0.1-0.8,0.4c-1,1.1-2.4,1.9-3.7,1.9c-1.2,0-2.7-0.8-3.7-1.9c-0.2-0.2-0.5-0.4-0.8-0.4c-0.2,0-0.3,0-0.5,0.1l-6.8,3.4c-0.1,0.1-0.2,0.1-0.3,0.2c-1.5-2.3-2.3-5-2.3-7.9C1,7.5,7.5,1,15.5,1z M15.5,30c-4.7,0-8.8-2.2-11.5-5.7v-0.1c0-0.1,0-0.1,0.1-0.1l6.8-3.4c0,0,0,0,0.1,0c0,0,0.1,0,0.1,0c1.2,1.3,3,2.2,4.4,2.2c1.5,0,3.2-0.9,4.4-2.2c0,0,0.1,0,0.1,0c0,0,0,0,0.1,0l6.8,3.4c0,0,0.1,0.1,0.1,0.1v0.1C24.3,27.8,20.2,30,15.5,30z"/>
    <path fill="#CCCCCC" d="M15.5,19.6c1.7,0,3.1-1.2,4.1-2.6c0.9-1.4,1.6-3.4,1.6-5.3c0-2-0.7-3.5-1.8-4.4C18.2,6.3,16.8,6,15.5,6s-2.7,0.3-3.9,1.3c-1.2,1-1.8,2.4-1.8,4.4c0,1.9,0.7,3.9,1.6,5.3C12.4,18.4,13.8,19.6,15.5,19.6z M12.3,8c1-0.8,2.3-1,3.2-1s2.2,0.2,3.2,1c1,0.8,1.5,2,1.5,3.6c0,1.6-0.6,3.4-1.4,4.8c-0.4,0.7-1.6,2.2-3.2,2.2s-2.8-1.5-3.2-2.2c-0.9-1.3-1.4-3.2-1.4-4.8C10.8,10.1,11.3,8.8,12.3,8z"/>
</svg>
