<svg data-tag="svg" version="1.1" xmlns="http://www.w3.org/2000/svg" xmlns:xlink="http://www.w3.org/1999/xlink" width="17px" height="17px" viewBox="0 0 17 17" enable-background="new 0 0 17 17" xml:space="preserve" focusable="false"><path fill-rule="evenodd" clip-rule="evenodd" fill="#FFFFFF" d="M15.7,14.3l-3-3c0,0-0.1,0-0.1-0.1C13.5,10,14,8.6,14,7
				c0-3.9-3.1-7-7-7S0,3.1,0,7s3.1,7,7,7c1.6,0,3.1-0.5,4.2-1.4c0,0,0,0.1,0.1,0.1l3,3c0.4,0.4,1,0.4,1.4,0
				C16.1,15.3,16.1,14.7,15.7,14.3z M7,12c-2.8,0-5-2.2-5-5c0-2.8,2.2-5,5-5c2.8,0,5,2.2,5,5C12,9.8,9.8,12,7,12z"/></svg>

