<svg xmlns="http://www.w3.org/2000/svg" viewBox="0 0 334.58 44.38" width="19rem">
    <defs>
        <style>.cls-1{fill:#246799;}.cls-2{fill:#fff;}</style>
    </defs>
    <title>1_2 anim</title>
    <g id="Слой_2">
        <g id="Слой_1-2">
            <rect class="cls-1" width="334.58" height="44.38" rx="5.11"/>
            <path class="cls-2"
                  d="M49.94,15.94H47.76c-.58,0-1.48,1.84-1.48,1.84L44.47,15,32,27.4l-7-6.59L27.61,18l4.18,3.92L42.14,11.71c-.12-.15-.21-.24-.25-.24H24.56c-.33,0-4.39,6.31-4.39,6.31s-.9-1.84-1.48-1.84H16.5c-1.77,0-1.67,1.36-1.23,2.35s3,.88,3,.88-1.9,1.55-1.9,3V35H24V32.21H42.43V35h7.65V22.22c0-1.5-1.91-3-1.91-3s2.56.11,3-.88S51.72,15.94,49.94,15.94Z"/>
            <path class="cls-2" d="M82.13,32.47h-2.6V14.55h-8.4V32.47H68.52V12.36H82.13Z"/>
            <path class="cls-2"
                  d="M87.67,25.66c0,3.53,1.15,5.3,3.47,5.3A2.65,2.65,0,0,0,94,27.74l2.41.39c-.25,2.94-2.1,4.73-5.24,4.73-4,0-6-2.91-6-7.7,0-3.69,1.54-7.61,5.87-7.61q5.69,0,5.69,8.11Zm6.47-1.87c-.08-2.88-1.18-4.34-3.22-4.34a2.64,2.64,0,0,0-2.27,1.29,5.52,5.52,0,0,0-.92,3.05Z"/>
            <path class="cls-2"
                  d="M105.9,32.86a4.19,4.19,0,0,1-4.06-2.43h0v7.11l-2.47.3V21.05a23.62,23.62,0,0,0-.14-2.94l2.41-.31c0,.31.08,1,.11,2.1l.06,0a4.47,4.47,0,0,1,4-2.36c3.58,0,5.35,2.94,5.35,7.65S109.4,32.86,105.9,32.86Zm-3.5-11.37a9.81,9.81,0,0,0-.61,3.62q0,5.79,3.52,5.79c2.16,0,3.25-1.93,3.25-5.77s-1.12-5.6-3.33-5.6A2.9,2.9,0,0,0,102.4,21.49Z"/>
            <path class="cls-2"
                  d="M115.84,25.66c0,3.53,1.15,5.3,3.47,5.3a2.65,2.65,0,0,0,2.83-3.22l2.41.39c-.25,2.94-2.1,4.73-5.24,4.73-4,0-6-2.91-6-7.7,0-3.69,1.54-7.61,5.88-7.61,3.78,0,5.69,2.71,5.69,8.11Zm6.47-1.87c-.09-2.88-1.18-4.34-3.22-4.34a2.64,2.64,0,0,0-2.27,1.29,5.44,5.44,0,0,0-.92,3.05Z"/>
            <path class="cls-2"
                  d="M135.81,24.8a3.43,3.43,0,0,1,2.74,3.58c0,2.44-1.93,4.09-4.84,4.09h-6.14V18h6.16a5.79,5.79,0,0,1,2.5.56A3.25,3.25,0,0,1,138,21.74a3.15,3.15,0,0,1-2.18,3ZM133.2,20H130V24h3.11c1.34,0,2.41-.7,2.41-2S134.74,20,133.2,20ZM130,25.86v4.62h3.3c1.82,0,2.72-.76,2.72-2.27s-1-2.35-3-2.35Z"/>
            <path class="cls-2"
                  d="M142.36,12a1.71,1.71,0,1,1-1.71,1.73A1.67,1.67,0,0,1,142.36,12Zm1.23,20.44h-2.46V18.11l2.46-.31Z"/>
            <path class="cls-2"
                  d="M153.64,32.86a4.19,4.19,0,0,1-4.06-2.43h-.06v7.11l-2.46.3V21.05a25.77,25.77,0,0,0-.14-2.94l2.41-.31c0,.31.08,1,.11,2.1l.06,0a4.46,4.46,0,0,1,4-2.36c3.58,0,5.35,2.94,5.35,7.65S157.14,32.86,153.64,32.86Zm-3.5-11.37a9.82,9.82,0,0,0-.62,3.62q0,5.79,3.53,5.79c2.16,0,3.25-1.93,3.25-5.77s-1.12-5.6-3.33-5.6A2.9,2.9,0,0,0,150.14,21.49Z"/>
            <path class="cls-2"
                  d="M163.58,25.66c0,3.53,1.15,5.3,3.47,5.3a2.65,2.65,0,0,0,2.83-3.22l2.41.39c-.25,2.94-2.1,4.73-5.24,4.73-4,0-6-2.91-6-7.7,0-3.69,1.54-7.61,5.88-7.61,3.78,0,5.69,2.71,5.69,8.11Zm6.47-1.87c-.09-2.88-1.18-4.34-3.22-4.34a2.63,2.63,0,0,0-2.27,1.29,5.44,5.44,0,0,0-.92,3.05Z"/>
            <path class="cls-2" d="M186.32,32.47h-2.47V25.89h-6.07v6.58h-2.47V18.05l2.47-.28V23.9h6.07V18h2.47Z"/>
            <path class="cls-2"
                  d="M200.68,32.47h-2.46V23.76a20.3,20.3,0,0,1,.11-2.55c-.37.84-.7,1.54-1,2.1l-5.18,9.16h-2.46V18.11l2.46-.31v9c0,.59-.06,1.43-.14,2.52.53-1.2.95-2,1.2-2.46l5-8.9h2.46Z"/>
            <path class="cls-2"
                  d="M215,32.47h-2.46V23.76a22.41,22.41,0,0,1,.11-2.55c-.36.84-.7,1.54-1,2.1l-5.18,9.16H204V18.11l2.46-.31v9c0,.59-.05,1.43-.14,2.52.54-1.2,1-2,1.21-2.46l5-8.9H215Zm-3.24-20h1.73a4.4,4.4,0,0,1-1,2.74,3.84,3.84,0,0,1-5.63,0,4.25,4.25,0,0,1-1-2.66h1.85a2.14,2.14,0,0,0,1.93,2.24A2.3,2.3,0,0,0,211.8,12.48Z"/>
            <path class="cls-2"
                  d="M232.77,32.47H230l-6.44-20.11h2.86l3.75,12.52c.53,1.82.95,3.39,1.26,4.68h0c.28-1.26.7-2.83,1.23-4.71l3.72-12.49h2.78Z"/>
            <path class="cls-2" d="M244,32.47h-2.64V12.36H244Z"/>
            <path class="cls-2"
                  d="M262.28,32.47h-2.72L252,19.36a30.14,30.14,0,0,1-1.54-3h-.05c.08,1.26.11,2.44.11,3.47V32.47H248V12.36h2.8l7.25,12.69c.31.59.89,1.73,1.71,3.44h0c0-.95-.08-2.15-.08-3.58V12.36h2.52Z"/>
            <path class="cls-2" d="M272.08,26.45h-6.86V24.29h6.86Z"/>
            <path class="cls-2"
                  d="M286.47,32.47h-3L277.45,25v7.5H275V18.05l2.46-.25v6.38l0,.06L283.22,18h3l-6.13,6.47Z"/>
            <path class="cls-2"
                  d="M286.47,25.22c0-4.68,2.1-7.62,6.1-7.65s6.11,2.94,6.11,7.65-2.1,7.64-6.11,7.64S286.47,29.92,286.47,25.22Zm2.58,0c0,3.5,1.14,5.74,3.52,5.74s3.53-2.16,3.53-5.74-1.17-5.74-3.53-5.74S289.05,21.72,289.05,25.22Z"/>
            <path class="cls-2"
                  d="M314.22,30.48v5.43H312V32.47h-9.89v3.44h-2.27V30.48h1.71c.67-1.2,1.15-3.44,1.43-6.75l.48-5.76h9V30.48ZM310,20h-4.45l-.31,3.84c-.08,1.18-.17,2.07-.25,2.66a15.88,15.88,0,0,1-.93,4H310Z"/>
        </g>
    </g>
</svg>
