<svg xmlns="http://www.w3.org/2000/svg" viewBox="0 0 222 164.09">
    <defs>
        <style>.cls-1{fill:#246799;}.cls-2{fill:#fff;}</style>
    </defs>
    <title>360 new</title>
    <g id="Слой_2">
        <g id="Слой_1-2">
            <g id="Слой_2-2">
                <g id="Шар_1">
                    <path class="cls-1"
                          d="M222,0c-36,17.75-73.51,26.63-111,26.63S36,17.75,0,0V164.09c36-17.75,73.51-26.63,111-26.63s75,8.88,111,26.63Z"/>
                    <path class="cls-2"
                          d="M52.75,94.2,62.66,93a9.31,9.31,0,0,0,2.55,5.79,7.19,7.19,0,0,0,10.34-.4,9.35,9.35,0,0,0,2.17-6.49,8.68,8.68,0,0,0-2.08-6.11,6.57,6.57,0,0,0-5.06-2.26,17.89,17.89,0,0,0-4.7.76L67,76c2.77.07,4.89-.53,6.34-1.8a6.47,6.47,0,0,0,2.18-5.08,5.52,5.52,0,0,0-5.09-5.9,5,5,0,0,0-.77,0A6.17,6.17,0,0,0,65.21,65,8.53,8.53,0,0,0,63,70.31L53.51,68.7a21.24,21.24,0,0,1,3-7.74A13.42,13.42,0,0,1,62,56.41a18.53,18.53,0,0,1,8-1.66c5,0,9.06,1.6,12.09,4.81a12.61,12.61,0,0,1,3.75,8.89q0,7-7.68,11.22a12.42,12.42,0,0,1,7.34,4.4,12.83,12.83,0,0,1,2.75,8.27,16.08,16.08,0,0,1-5.14,12,17.68,17.68,0,0,1-12.78,5,17.59,17.59,0,0,1-12-4.17A16.35,16.35,0,0,1,52.75,94.2Z"/>
                    <path class="cls-2"
                          d="M127.85,68.05l-9.91,1.09a7.19,7.19,0,0,0-1.89-4.52,5.53,5.53,0,0,0-4-1.45,6.69,6.69,0,0,0-5.48,2.91c-1.49,1.94-2.44,6-2.82,12.13a12,12,0,0,1,9.5-4.52,14.53,14.53,0,0,1,11,4.88q4.57,4.89,4.58,12.61,0,8.19-4.81,13.15A17.51,17.51,0,0,1,99.26,104c-.3-.32-.59-.64-.87-1q-5.22-6.28-5.21-20.6,0-14.69,5.42-21.16a17.53,17.53,0,0,1,14.1-6.49,15,15,0,0,1,10.07,3.41Q126.76,61.57,127.85,68.05Zm-23.2,22.32q0,5,2.29,7.71a6.76,6.76,0,0,0,5.25,2.71,6,6,0,0,0,4.73-2.22q1.9-2.22,1.9-7.28c0-3.48-.68-6-2-7.64a6.56,6.56,0,0,0-9.23-.94,6.2,6.2,0,0,0-.86.84Q104.65,85.86,104.65,90.37Z"/>
                    <path class="cls-2"
                          d="M151.28,54.75q7.75,0,12.13,5.54,5.21,6.56,5.21,21.74t-5.25,21.79q-4.34,5.46-12.09,5.46a15.28,15.28,0,0,1-12.57-6q-4.77-6-4.77-21.37,0-15.07,5.25-21.7Q143.53,54.75,151.28,54.75Zm0,8.49A5.1,5.1,0,0,0,148,64.42a8,8,0,0,0-2.25,4.25q-1.06,4-1.06,13.36t.91,13q.94,3.51,2.38,4.68a5.25,5.25,0,0,0,6.61,0,8,8,0,0,0,2.26-4.24q1.07-3.94,1.06-13.34t-.91-13c-.63-2.34-1.42-3.91-2.39-4.7A5,5,0,0,0,151.28,63.24Z"/>
                    <path class="cls-2"
                          d="M171.09,54.39A9.39,9.39,0,1,1,173.84,61,9,9,0,0,1,171.09,54.39Zm4.88,0a4.52,4.52,0,1,0,1.33-3.17,4.33,4.33,0,0,0-1.3,3.17Z"/>
                </g>
            </g>
        </g>
    </g>
</svg>
