<svg xmlns="http://www.w3.org/2000/svg" viewBox="0 0 215.78 44.38">
    <defs>
        <style>.cls-1{fill:#fff;}.cls-2{fill:#246799;}.cls-3{fill:#00a7ef;}.cls-4{fill:#fed500;}</style>
    </defs>
    <title>1_1 anim</title>
    <g id="Слой_2">
        <g id="Слой_1-2">
            <rect class="cls-1" x="1" y="1" width="213.78" height="42.38" rx="4.11"/>
            <path class="cls-2"
                  d="M210.67,2a3.12,3.12,0,0,1,3.11,3.11V39.27a3.12,3.12,0,0,1-3.11,3.11H5.11A3.12,3.12,0,0,1,2,39.27V5.11A3.12,3.12,0,0,1,5.11,2H210.67m0-2H5.11A5.11,5.11,0,0,0,0,5.11V39.27a5.11,5.11,0,0,0,5.11,5.11H210.67a5.11,5.11,0,0,0,5.11-5.11V5.11A5.11,5.11,0,0,0,210.67,0Z"/>
            <path d="M69.16,33.36H66.31l-1.74-5.48h-8l-1.75,5.48H52.07l7-21.27h3Zm-5.27-7.79-2.17-6.81L60.63,15h-.09L59.47,18.7l-2.19,6.87Z"/>
            <path d="M85.92,33.36H83.14v-10h-8.8v10H71.56V12.09h2.78V21h8.8V12.09h2.78Z"/>
            <path d="M107.75,31.79a5.91,5.91,0,0,1-4.79,2c-2.58,0-4.36-1-5.34-2.78a14.25,14.25,0,0,1-1.36-6.93A23.08,23.08,0,0,1,97,17.48c.8-3.08,2.67-5,6.22-5.09,3.29,0,5.3,1.78,5.51,4.65l-2.58.62a2.76,2.76,0,0,0-2.93-3.23,3.24,3.24,0,0,0-2.58,1.16C99.34,17.13,99,19.41,99,22.81h.06A4.81,4.81,0,0,1,103.64,20c3.7,0,5.8,2.64,5.8,6.58A7.74,7.74,0,0,1,107.75,31.79Zm-8.5-4.86a6.09,6.09,0,0,0,1,3.41,3.2,3.2,0,0,0,2.73,1.39c2.48,0,3.7-2.1,3.7-4.83S105.53,22,103.07,22,99.25,24.12,99.25,26.93Z"/>
            <path class="cls-2"
                  d="M123.75,33.36h-3l-3.62-6.19-3.55,6.19h-2.84l5-8.09-4.62-7.11,2.82-.41,3.4,5.92L120.7,18h2.78l-4.62,7.43Z"/>
            <path d="M125.32,28l2.81-.62a3.84,3.84,0,0,0,.48,3,3,3,0,0,0,2.75,1.33c2.64,0,4-2.34,4.15-7,0-.71,0-1.21,0-1.51h-.06a4.79,4.79,0,0,1-4.62,2.72,5.3,5.3,0,0,1-4.24-1.8,6.93,6.93,0,0,1-1.57-4.62,7.36,7.36,0,0,1,1.72-5.1,6,6,0,0,1,4.77-1.95c5.48,0,6.72,4.62,6.72,9.92a23,23,0,0,1-.74,6.63c-.77,3-2.6,4.74-6.19,4.83C127.45,33.77,125.32,31.61,125.32,28Zm6.16-4.18c2.4,0,3.79-1.95,3.79-4.65s-1.33-4.68-3.73-4.68-3.67,2-3.67,4.77S129.11,23.79,131.48,23.79Z"/>
            <path class="cls-2"
                  d="M152.72,33.36h-3l-3.61-6.19-3.55,6.19h-2.85l5-8.09-4.62-7.11,2.81-.41,3.41,5.92L149.67,18h2.78l-4.62,7.43Z"/>
            <path d="M181.45,33.36h-2.64V20.06c0-1.57,0-2.7.06-3.38h-.06c-.56,1.48-1,2.55-1.3,3.2L173,30.1h-2.43l-4.44-9.89c-.27-.59-.75-1.72-1.37-3.38h-.06c0,.21,0,.74.06,1.57s.06,1.51.06,2.13V33.36h-2.63V12.09h2.93l5.27,12.06a38.49,38.49,0,0,1,1.39,3.61h.09a34.89,34.89,0,0,1,1.39-3.64l5.19-12h3Z"/>
            <path d="M191.79,24.41a14.44,14.44,0,0,1-1.13,2.17l-4,6.78h-3l6.6-10.9-6.18-10.37h3.25l3.14,5.54a18.32,18.32,0,0,1,1.51,2.9h.06c.33-.68.8-1.6,1.42-2.69l3.38-5.75h3l-6.28,10.37,6.61,10.9h-3.26L193,26.63a13.46,13.46,0,0,1-1.16-2.22Z"/>
            <path class="cls-2" d="M40,44.38H5.11A5.11,5.11,0,0,1,0,39.27V5.11A5.11,5.11,0,0,1,5.11,0H40Z"/>
            <rect class="cls-3" x="10.22" y="7.32" width="17.78" height="5.59"/>
            <rect class="cls-4" x="10.22" y="12.91" width="17.78" height="5.59"/>
            <path class="cls-1"
                  d="M18.42,24.83V33c0,2.78-1.62,4.31-4.41,4.31S9.59,35.75,9.59,33V24.83h2.07v8c0,1.75.78,2.78,2.34,2.78s2.34-1,2.34-2.78v-8Z"/>
            <path class="cls-1"
                  d="M29.93,37H27.85c-.14-.36-.44-1.33-.92-2.89H22.58L21.68,37H19.61l4-12.18H26Zm-3.47-4.53-1.12-3.71-.56-2h-.05l-.56,2L23,32.48Z"/>
        </g>
    </g>
</svg>
