<svg xmlns="http://www.w3.org/2000/svg" viewBox="0 0 588.41 79.96">
    <defs>
        <style>.cls-1{fill:#246799;}.cls-2{fill:#fff;}</style>
    </defs>
    <title>3 anim</title>
    <g id="Слой_2">
        <g id="Слой_1-2">
            <rect class="cls-1" width="588.41" height="79.96" rx="5.11"/>
            <path class="cls-2"
                  d="M90,26.91H86.05c-1,0-2.67,3.33-2.67,3.33s-1.54-2.39-3.26-5L57.64,47.57,45,35.7l4.73-5,7.53,7.06L75.93,19.29c-.23-.27-.39-.43-.46-.43H44.24c-.58,0-7.9,11.38-7.9,11.38s-1.63-3.33-2.67-3.33H29.73c-3.19,0-3,2.46-2.21,4.24s5.4,1.58,5.4,1.58-3.43,2.79-3.43,5.5v23H43.26v-5h33.2v5H90.23v-23c0-2.71-3.44-5.5-3.44-5.5s4.6.21,5.4-1.58S93.18,26.91,90,26.91Z"/>
            <path class="cls-2" d="M148,56.7h-4.69V24.41H128.15V56.7h-4.69V20.48H148Z"/>
            <path class="cls-2"
                  d="M158,44.44C158,50.8,160,54,164.22,54c3.38,0,5.45-2.11,5.09-5.8l4.34.71c-.45,5.3-3.78,8.53-9.43,8.53-7.27,0-10.85-5.25-10.85-13.88,0-6.66,2.78-13.72,10.6-13.72,6.81,0,10.24,4.89,10.24,14.63Zm11.66-3.38c-.15-5.2-2.12-7.82-5.8-7.82a4.75,4.75,0,0,0-4.09,2.32,10,10,0,0,0-1.67,5.5Z"/>
            <path class="cls-2"
                  d="M190.81,57.41A7.56,7.56,0,0,1,183.49,53h-.1V65.83l-4.44.56V36.12a45.34,45.34,0,0,0-.25-5.3l4.34-.56c.05.56.15,1.82.2,3.79l.1.05a8.05,8.05,0,0,1,7.27-4.24c6.45,0,9.63,5.3,9.63,13.77S197.11,57.41,190.81,57.41ZM184.5,36.92a17.63,17.63,0,0,0-1.11,6.51q0,10.44,6.36,10.44c3.88,0,5.85-3.48,5.85-10.39,0-6.71-2-10.09-6-10.09A5.2,5.2,0,0,0,184.5,36.92Z"/>
            <path class="cls-2"
                  d="M208.71,44.44c0,6.36,2.07,9.53,6.26,9.53,3.38,0,5.45-2.11,5.09-5.8l4.34.71c-.45,5.3-3.78,8.53-9.43,8.53-7.26,0-10.85-5.25-10.85-13.88,0-6.66,2.78-13.72,10.6-13.72,6.81,0,10.24,4.89,10.24,14.63Zm11.66-3.38c-.15-5.2-2.12-7.82-5.8-7.82a4.75,4.75,0,0,0-4.09,2.32,10.06,10.06,0,0,0-1.67,5.5Z"/>
            <path class="cls-2"
                  d="M244.69,42.88a6.19,6.19,0,0,1,4.94,6.45c0,4.39-3.48,7.37-8.73,7.37H229.85V30.57H241a10.38,10.38,0,0,1,4.49,1c1.87.8,3.18,2.82,3.18,5.8a5.67,5.67,0,0,1-3.93,5.34ZM240,34.15h-5.75v7.31h5.6c2.42,0,4.34-1.26,4.34-3.68S242.77,34.15,240,34.15Zm-5.75,10.64v8.33h6c3.28,0,4.89-1.37,4.89-4.09s-1.82-4.24-5.4-4.24Z"/>
            <path class="cls-2"
                  d="M256.49,19.87A3.08,3.08,0,1,1,253.41,23,3,3,0,0,1,256.49,19.87Zm2.22,36.83h-4.44V30.82l4.44-.56Z"/>
            <path class="cls-2"
                  d="M276.82,57.41A7.57,7.57,0,0,1,269.5,53h-.1V65.83l-4.44.56V36.12a45.34,45.34,0,0,0-.25-5.3l4.34-.56c.05.56.15,1.82.2,3.79l.1.05a8.05,8.05,0,0,1,7.27-4.24c6.45,0,9.63,5.3,9.63,13.77S283.12,57.41,276.82,57.41Zm-6.31-20.49a17.63,17.63,0,0,0-1.11,6.51q0,10.44,6.36,10.44c3.88,0,5.85-3.48,5.85-10.39,0-6.71-2-10.09-6-10.09A5.21,5.21,0,0,0,270.51,36.92Z"/>
            <path class="cls-2"
                  d="M294.73,44.44c0,6.36,2.07,9.53,6.25,9.53,3.38,0,5.45-2.11,5.1-5.8l4.34.71c-.46,5.3-3.79,8.53-9.44,8.53-7.26,0-10.84-5.25-10.84-13.88,0-6.66,2.77-13.72,10.59-13.72,6.81,0,10.24,4.89,10.24,14.63Zm11.65-3.38c-.15-5.2-2.12-7.82-5.8-7.82a4.76,4.76,0,0,0-4.09,2.32,10,10,0,0,0-1.66,5.5Z"/>
            <path class="cls-2" d="M335.69,56.7h-4.44V44.84H320.3V56.7h-4.44v-26l4.44-.51v11h10.95V30.57h4.44Z"/>
            <path class="cls-2"
                  d="M340.59,43.63c0-8.42,3.78-13.72,11-13.77s11,5.3,11,13.77-3.78,13.78-11,13.78S340.59,52.11,340.59,43.63Zm4.64,0c0,6.31,2.06,10.34,6.35,10.34s6.36-3.88,6.36-10.34-2.12-10.34-6.36-10.34S345.23,37.33,345.23,43.63Z"/>
            <path class="cls-2" d="M389.32,56.7h-4.44V34.15h-7.82V30.57h20.48l-.71,3.58h-7.51Z"/>
            <path class="cls-2"
                  d="M402.74,44.44c0,6.36,2.07,9.53,6.25,9.53,3.38,0,5.45-2.11,5.1-5.8l4.34.71c-.46,5.3-3.79,8.53-9.44,8.53-7.26,0-10.84-5.25-10.84-13.88,0-6.66,2.77-13.72,10.59-13.72,6.81,0,10.24,4.89,10.24,14.63Zm11.65-3.38c-.15-5.2-2.12-7.82-5.8-7.82a4.75,4.75,0,0,0-4.09,2.32,10,10,0,0,0-1.66,5.5Z"/>
            <path class="cls-2"
                  d="M443.5,56.7h-5.1l-6.15-10.54L426.19,56.7h-4.84l8.48-13.77L422,30.82l4.79-.71,5.8,10.09,5.75-9.63h4.75l-7.88,12.66Z"/>
            <path class="cls-2" d="M466.91,56.7h-4.44V44.84h-11V56.7h-4.44v-26l4.44-.51v11h11V30.57h4.44Z"/>
            <path class="cls-2"
                  d="M475.53,19.87A3.08,3.08,0,1,1,472.46,23,3,3,0,0,1,475.53,19.87Zm2.22,36.83h-4.44V30.82l4.44-.56Z"/>
            <path class="cls-2"
                  d="M502.47,56.7h-4.39V45.3a9.65,9.65,0,0,1-3.28,1.76,11.11,11.11,0,0,1-3.58.66c-5.7,0-8.83-3-8.83-8.17V30.92l4.44-.61V39c0,3.68,1.31,5.5,5.2,5.5a11.79,11.79,0,0,0,3.13-.55,8.32,8.32,0,0,0,2.92-1.47v-12h4.39Z"/>
            <path class="cls-2" d="M528.45,56.7H524V44.84h-11V56.7h-4.43v-26l4.43-.51v11h11V30.57h4.44Z"/>
            <path class="cls-2"
                  d="M533.34,43.63c0-8.42,3.79-13.72,11-13.77s11,5.3,11,13.77-3.78,13.78-11,13.78S533.34,52.11,533.34,43.63Zm4.65,0c0,6.31,2.06,10.34,6.35,10.34s6.36-3.88,6.36-10.34-2.12-10.34-6.36-10.34S538,37.33,538,43.63Z"/>
        </g>
    </g>
</svg>
