<svg xmlns="http://www.w3.org/2000/svg" viewBox="0 0 252.67 263.65">
    <defs>
        <style>.cls-1{fill:#256799;}.cls-2{fill:#fff;}</style>
    </defs>
    <title>2 anim</title>
    <g id="Слой_2">
        <g id="Слой_1-2">
            <path class="cls-1"
                  d="M223.56,0H28.84A28.84,28.84,0,0,0,0,28.84V162.31a28.88,28.88,0,0,0,11.53,23.07l96.13,72.23a28.85,28.85,0,0,0,34.6.55l98.6-72.5a28.78,28.78,0,0,0,11.81-23.07V28.84A29.26,29.26,0,0,0,223.56,0Z"/>
            <path class="cls-2"
                  d="M98.45,40.72h13.09L96.64,92.94H80.13L64.71,40.72H78.09l6.47,24.36,3.86,15.71h.22L92.2,65.08Z"/>
            <path class="cls-2" d="M129.87,92.94H116.49V40.72h13.38Z"/>
            <path class="cls-2"
                  d="M180.48,92.94H167.54l-12.8-22.19-3.93-7.56h-.14l.36,7.93V92.94H137.87V40.72h13L162.52,61,167.25,70l.22-.07-.29-9.38V40.72h13.3Z"/>
            <path class="cls-2"
                  d="M75.4,150.05l3.93-10.33L88,119.51h13.38v52.21H87.91V153.18l.29-7.28-.29-.14-2.84,6.83-4.94,11.13H69.73l-4.44-10-3.27-8h-.44l.22,9.16v16.87H48.49V119.51h14l8.72,20.65,3.86,9.89Z"/>
            <path class="cls-2"
                  d="M155,171.72H141.72l-3.05-10.11H121.8l-2.91,10.11H105.73l16.43-52.21h16.51Zm-27.27-31.78-3.2,11.64h11.35l-3.06-11.64-2.4-10.11h-.22Z"/>
            <path class="cls-2"
                  d="M180.05,154h-.44l-2.76,5.67-6.18,12.07H156.12l15.78-26.18-14.54-26H171.9l5.24,10.69,2.4,5.38h.51l2.55-5.53,5.3-10.54h14.4l-15.05,24.28,15.93,27.93H188.41l-6-12.14Z"/>
        </g>
    </g>
</svg>
