<svg xmlns="http://www.w3.org/2000/svg" viewBox="0 0 355.67 44.38">
    <defs>
        <style>.cls-1{fill:#fff;}.cls-2{fill:#246799;}</style>
    </defs>
    <title>1_3 anim</title>
    <g id="Слой_2">
        <g id="Слой_1-2">
            <rect class="cls-1" x="1" y="1" width="353.67" height="42.38" rx="4.11"/>
            <path class="cls-2"
                  d="M350.56,2a3.12,3.12,0,0,1,3.11,3.11V39.27a3.12,3.12,0,0,1-3.11,3.11H5.11A3.12,3.12,0,0,1,2,39.27V5.11A3.12,3.12,0,0,1,5.11,2H350.56m0-2H5.11A5.11,5.11,0,0,0,0,5.11V39.27a5.11,5.11,0,0,0,5.11,5.11H350.56a5.11,5.11,0,0,0,5.11-5.11V5.11A5.11,5.11,0,0,0,350.56,0Z"/>
            <path class="cls-2" d="M67.56,44.38H5.11A5.11,5.11,0,0,1,0,39.27V5.11A5.11,5.11,0,0,1,5.11,0H67.56Z"/>
            <path class="cls-1"
                  d="M49.94,14.49H47.76c-.58,0-1.48,1.85-1.48,1.85s-.86-1.33-1.81-2.77L32,26l-7-6.59,2.62-2.79,4.18,3.91L42.14,10.26c-.12-.15-.21-.24-.25-.24H24.56c-.33,0-4.39,6.32-4.39,6.32s-.9-1.85-1.48-1.85H16.5c-1.77,0-1.67,1.37-1.23,2.36s3,.87,3,.87-1.9,1.55-1.9,3.05V33.53H24V30.77H42.43v2.76h7.65V20.77c0-1.5-1.91-3.05-1.91-3.05s2.56.12,3-.87S51.72,14.49,49.94,14.49Z"/>
            <path d="M84.47,12.33H95.61l-.51,2.13H86.69l-.38,6.31s0,0,.06,0a5,5,0,0,1,3.93-1.63,5.34,5.34,0,0,1,4.33,1.9,7.42,7.42,0,0,1,1.63,5,7.42,7.42,0,0,1-1.81,5.21,6.37,6.37,0,0,1-5,2c-3.83,0-6-2.19-6-5.84L86.22,27a3.63,3.63,0,0,0-.09.8,3.2,3.2,0,0,0,3.4,3.49c2.61,0,4-2.1,4-5.18s-1.39-4.86-4-4.86A3.42,3.42,0,0,0,86,23.94l-2.22-.74Z"/>
            <path class="cls-2"
                  d="M110.59,32.91h-3L104,26.72l-3.56,6.19H97.59l5-8.08L98,17.72l2.81-.42,3.41,5.93,3.37-5.66h2.79L105.71,25Z"/>
            <path class="cls-2"
                  d="M124.22,32.91h-3l-3.62-6.19-3.55,6.19h-2.84l5-8.08-4.62-7.11,2.82-.42,3.4,5.93,3.38-5.66H124L119.33,25Z"/>
            <path d="M139.09,12.92A5.8,5.8,0,0,1,141,17.48l-2.9.48a4.4,4.4,0,0,0,0-.71,3.64,3.64,0,0,0-4-3.8c-3.4,0-5.18,3.41-5.18,8.89q0,8.75,5.27,8.74c3.11,0,4.62-2.17,4.62-5.93,0-.23,0-.62-.06-1.12H134V21.69h7.41a25.93,25.93,0,0,1,.18,2.78c0,5.48-2.37,8.83-7.35,8.83s-8.17-3.41-8.17-11c0-7.11,2.84-11,8-11A7.27,7.27,0,0,1,139.09,12.92Z"/>
            <path d="M157.75,14h-5.51V32.91h-2.75V14h-6V11.65H158.4Z"/>
            <path d="M173,28.12h-2.72v4.79h-2.61V28.12H159V26l8.62-14.12,2.67.29V26H173ZM167.67,26v-7.4a27.34,27.34,0,0,1,.18-3.32h-.06c-.21.47-.68,1.39-1.45,2.76l-3.73,6.13c-.33.53-.77,1.18-1.34,1.92.63-.06,1.28-.09,2-.09Z"/>
            <path d="M187.37,32.91H175.94V11.65h2.75v19H188Z"/>
            <path d="M200.34,13.34a4.76,4.76,0,0,1,1.75,4A4.74,4.74,0,0,1,198.24,22v.06c2.72.39,4.27,2.37,4.27,5.19a5.66,5.66,0,0,1-1.9,4.38,7,7,0,0,1-4.83,1.69c-3.91,0-6.25-2.22-6.25-5.81l2.82-.62a3.57,3.57,0,0,0,.56,3,3.29,3.29,0,0,0,2.87,1.34,3.85,3.85,0,0,0,3.94-4.12c0-2.46-1.69-3.91-4.15-3.91h-1.21V21.07h1.15a3.57,3.57,0,0,0,3.83-3.59A3.11,3.11,0,0,0,196,14.05a3.51,3.51,0,0,0-2.76,1.15,2.88,2.88,0,0,0-.59,2.82l-2.66-.6a5.12,5.12,0,0,1,1.65-3.94A6.11,6.11,0,0,1,196,11.94,6.75,6.75,0,0,1,200.34,13.34Z"/>
            <path class="cls-2"
                  d="M217.17,32.91h-3l-3.61-6.19L207,32.91h-2.85l5-8.08-4.62-7.11,2.81-.42,3.41,5.93,3.38-5.66h2.78L212.28,25Z"/>
            <path d="M232,12.92A5.8,5.8,0,0,1,234,17.48l-2.9.48a4.4,4.4,0,0,0,0-.71,3.64,3.64,0,0,0-4-3.8c-3.41,0-5.18,3.41-5.18,8.89,0,5.83,1.74,8.74,5.27,8.74,3.11,0,4.62-2.17,4.62-5.93,0-.23,0-.62-.06-1.12H227V21.69h7.41c.11,1.09.17,2,.17,2.78,0,5.48-2.37,8.83-7.34,8.83s-8.18-3.41-8.18-11c0-7.11,2.85-11,8-11A7.29,7.29,0,0,1,232,12.92Z"/>
            <path d="M250.7,12.92a5.8,5.8,0,0,1,1.92,4.56l-2.9.48a4.4,4.4,0,0,0,0-.71,3.64,3.64,0,0,0-4-3.8c-3.41,0-5.18,3.41-5.18,8.89,0,5.83,1.74,8.74,5.27,8.74,3.11,0,4.62-2.17,4.62-5.93,0-.23,0-.62-.06-1.12h-4.77V21.69H253c.11,1.09.17,2,.17,2.78,0,5.48-2.37,8.83-7.34,8.83s-8.18-3.41-8.18-11c0-7.11,2.85-11,8-11A7.29,7.29,0,0,1,250.7,12.92Z"/>
            <path class="cls-2"
                  d="M268.11,32.91h-3l-3.61-6.19L258,32.91h-2.85l5-8.08-4.62-7.11,2.81-.42,3.41,5.93,3.37-5.66h2.79L263.23,25Z"/>
            <path class="cls-2"
                  d="M281.74,32.91h-3l-3.62-6.19-3.55,6.19h-2.84l5-8.08-4.62-7.11,2.82-.42,3.4,5.93,3.38-5.66h2.78L276.85,25Z"/>
            <path class="cls-2"
                  d="M295.36,32.91h-3l-3.61-6.19-3.55,6.19h-2.85l5-8.08-4.62-7.11,2.81-.42,3.41,5.93,3.37-5.66h2.79L290.48,25Z"/>
            <path class="cls-2"
                  d="M309,32.91h-3l-3.62-6.19-3.55,6.19H296l5-8.08-4.62-7.11,2.82-.42,3.4,5.93,3.38-5.66h2.78L304.1,25Z"/>
            <path d="M322,31.34a5.88,5.88,0,0,1-4.79,2c-2.58,0-4.36-1-5.34-2.79a14.2,14.2,0,0,1-1.36-6.93,23,23,0,0,1,.74-6.57c.8-3.08,2.67-5,6.22-5.1,3.29,0,5.3,1.78,5.51,4.65l-2.58.63A2.76,2.76,0,0,0,317.43,14a3.23,3.23,0,0,0-2.58,1.15c-1.3,1.54-1.65,3.82-1.65,7.23h.06a4.79,4.79,0,0,1,4.59-2.81c3.7,0,5.8,2.63,5.8,6.57A7.74,7.74,0,0,1,322,31.34Zm-8.5-4.85a6.06,6.06,0,0,0,1,3.4,3.17,3.17,0,0,0,2.73,1.39c2.48,0,3.7-2.1,3.7-4.82s-1.1-4.86-3.56-4.86S313.46,23.67,313.46,26.49Z"/>
            <path d="M329.93,22a4.66,4.66,0,0,1-3.46-4.59,4.9,4.9,0,0,1,1.71-3.93,6.38,6.38,0,0,1,4.24-1.49,6.17,6.17,0,0,1,4.21,1.46,4.84,4.84,0,0,1,1.71,4A5,5,0,0,1,334.88,22v0A5.39,5.39,0,0,1,339,27.35a5.59,5.59,0,0,1-1.86,4.26,6.72,6.72,0,0,1-4.77,1.72,6.93,6.93,0,0,1-4.8-1.63,5.7,5.7,0,0,1,2.4-9.69Zm2.4,1.13c-2.34,0-3.85,1.6-3.85,4.09s1.51,4.11,3.88,4.11,3.82-1.65,3.82-4.11S334.7,23.08,332.33,23.08ZM329,17.45a3.37,3.37,0,1,0,6.73,0A3.22,3.22,0,0,0,332.39,14,3.27,3.27,0,0,0,329,17.45Z"/>
        </g>
    </g>
</svg>
