<svg width="70" height="14" viewBox="0 0 70 14" fill="none" xmlns="http://www.w3.org/2000/svg">
    <path d="M22.3404 3.89349C20.3546 3.89349 18.7825 5.38461 18.7825 7.45562C18.7825 9.44379 20.3546 11.0178 22.3404 11.0178C24.3262 11.0178 25.8983 9.52663 25.8983 7.45562C25.8983 5.30177 24.3262 3.89349 22.3404 3.89349ZM22.3404 9.52663C21.2648 9.52663 20.3546 8.61539 20.3546 7.37278C20.3546 6.13018 21.2648 5.21894 22.3404 5.21894C23.4161 5.21894 24.3262 6.04734 24.3262 7.37278C24.3262 8.61539 23.4161 9.52663 22.3404 9.52663ZM14.6454 3.89349C12.6596 3.89349 11.0875 5.38461 11.0875 7.45562C11.0875 9.44379 12.6596 11.0178 14.6454 11.0178C16.6312 11.0178 18.2033 9.52663 18.2033 7.45562C18.2033 5.30177 16.6312 3.89349 14.6454 3.89349ZM14.6454 9.52663C13.5697 9.52663 12.6596 8.61539 12.6596 7.37278C12.6596 6.13018 13.5697 5.21894 14.6454 5.21894C15.721 5.21894 16.6312 6.04734 16.6312 7.37278C16.6312 8.61539 15.721 9.52663 14.6454 9.52663ZM5.46099 4.97041V6.46154H9.01891C8.93617 7.28994 8.6052 7.95266 8.19149 8.36686C7.69504 8.86391 6.86761 9.44379 5.46099 9.44379C3.22695 9.44379 1.57211 7.70414 1.57211 5.46746C1.57211 3.23077 3.30969 1.49112 5.46099 1.49112C6.61939 1.49112 7.52955 1.98817 8.19149 2.56805L9.26714 1.49112C8.35697 0.662721 7.19858 0 5.54374 0C2.56501 0 0 2.48521 0 5.46746C0 8.44971 2.56501 10.9349 5.54374 10.9349C7.19858 10.9349 8.35698 10.4379 9.34988 9.36095C10.3428 8.36687 10.6738 6.95858 10.6738 5.88166C10.6738 5.5503 10.6738 5.21893 10.591 4.97041H5.46099ZM43.026 6.13018C42.695 5.30177 41.8676 3.89349 40.0473 3.89349C38.227 3.89349 36.7376 5.30177 36.7376 7.45562C36.7376 9.44379 38.2269 11.0178 40.2128 11.0178C41.7849 11.0178 42.7778 10.0237 43.1087 9.44379L41.9504 8.61539C41.5366 9.19527 41.0402 9.60947 40.2128 9.60947C39.3853 9.60947 38.8889 9.27811 38.4752 8.53255L43.1915 6.54438L43.026 6.13018ZM38.227 7.28994C38.227 5.9645 39.3026 5.21894 40.0473 5.21894C40.6265 5.21894 41.2057 5.5503 41.3712 5.9645L38.227 7.28994ZM34.3381 10.6864H35.9102V0.331361H34.3381V10.6864ZM31.8558 4.63905C31.4421 4.22485 30.7801 3.81065 29.9527 3.81065C28.2151 3.81065 26.5603 5.38462 26.5603 7.37278C26.5603 9.36095 28.1324 10.8521 29.9527 10.8521C30.7801 10.8521 31.4421 10.4379 31.7731 10.0237H31.8558V10.5207C31.8558 11.8462 31.1111 12.5917 29.9527 12.5917C29.0426 12.5917 28.3806 11.929 28.2151 11.3491L26.8913 11.929C27.305 12.8402 28.2979 14 30.0355 14C31.8558 14 33.3452 12.9231 33.3452 10.355V4.05917H31.8558V4.63905ZM30.0355 9.52663C28.9598 9.52663 28.0496 8.61539 28.0496 7.37278C28.0496 6.13018 28.9598 5.21894 30.0355 5.21894C31.1111 5.21894 31.9385 6.13018 31.9385 7.37278C31.9385 8.61539 31.1111 9.52663 30.0355 9.52663ZM50.2246 0.331361H46.5012V10.6864H48.0733V6.7929H50.2246C51.9622 6.7929 53.617 5.5503 53.617 3.56213C53.617 1.57396 51.9622 0.331361 50.2246 0.331361ZM50.3073 5.30177H48.0733V1.73965H50.3073C51.4657 1.73965 52.1277 2.73373 52.1277 3.47929C52.0449 4.39053 51.383 5.30177 50.3073 5.30177ZM59.8227 3.81065C58.6643 3.81065 57.5059 4.30769 57.0922 5.38461L58.4988 5.9645C58.8298 5.38461 59.3262 5.21894 59.9054 5.21894C60.7329 5.21894 61.4775 5.71598 61.5603 6.54438V6.62722C61.3121 6.46154 60.6501 6.21302 59.9882 6.21302C58.4988 6.21302 57.0095 7.04142 57.0095 8.53255C57.0095 9.94083 58.2506 10.8521 59.5745 10.8521C60.6501 10.8521 61.1466 10.355 61.5603 9.85799H61.643V10.6864H63.1324V6.71006C62.9669 4.88757 61.5603 3.81065 59.8227 3.81065ZM59.6572 9.52663C59.1608 9.52663 58.4161 9.27811 58.4161 8.61539C58.4161 7.78698 59.3262 7.53846 60.0709 7.53846C60.7329 7.53846 61.0638 7.70414 61.4775 7.86982C61.3121 8.8639 60.4846 9.52663 59.6572 9.52663ZM68.3452 4.05917L66.6076 8.53255H66.5248L64.7045 4.05917H63.0496L65.7801 10.355L64.208 13.8343H65.7801L70 4.05917H68.3452ZM54.4444 10.6864H56.0166V0.331361H54.4444V10.6864Z"
          fill="white"/>
</svg>
