<svg class="f-btn-ua" width="58" height="7" viewBox="0 0 58 7" fill="none" xmlns="http://www.w3.org/2000/svg">
    <path d="M2.99463 2.38037C2.99463 2.15706 2.91032 1.97933 2.7417 1.84717C2.57308 1.71501 2.34408 1.64893 2.05469 1.64893C1.80632 1.64893 1.59896 1.71501 1.43262 1.84717C1.26628 1.97705 1.18311 2.14567 1.18311 2.35303H0.321777C0.321777 2.08187 0.396973 1.84033 0.547363 1.62842C0.697754 1.4165 0.90625 1.25244 1.17285 1.13623C1.43945 1.01774 1.7334 0.958496 2.05469 0.958496C2.62435 0.958496 3.06641 1.08268 3.38086 1.33105C3.69759 1.57943 3.85596 1.92692 3.85596 2.37354C3.85596 2.59912 3.7876 2.80648 3.65088 2.99561C3.51416 3.18473 3.32275 3.33398 3.07666 3.44336C3.35466 3.53906 3.56657 3.6849 3.7124 3.88086C3.86051 4.07454 3.93457 4.31608 3.93457 4.60547C3.93457 5.05208 3.76367 5.40755 3.42188 5.67188C3.08008 5.93392 2.62435 6.06494 2.05469 6.06494C1.70378 6.06494 1.3859 6.00228 1.10107 5.87695C0.818522 5.75163 0.605469 5.58073 0.461914 5.36426C0.320638 5.14779 0.25 4.89941 0.25 4.61914H1.11133C1.11133 4.83333 1.2002 5.01449 1.37793 5.1626C1.55566 5.30843 1.78125 5.38135 2.05469 5.38135C2.36003 5.38135 2.60498 5.30957 2.78955 5.16602C2.9764 5.02246 3.06982 4.83561 3.06982 4.60547C3.06982 4.3252 2.98779 4.1224 2.82373 3.99707C2.66195 3.86947 2.42383 3.80566 2.10938 3.80566H1.5249V3.12207H2.07861C2.68929 3.12207 2.99463 2.87484 2.99463 2.38037Z"
          fill="white"/>
    <path d="M7.52344 4.84131H5.5957L5.19238 6H4.29346L6.17334 1.02344H6.94922L8.83252 6H7.93018L7.52344 4.84131ZM5.83838 4.14404H7.28076L6.55957 2.07959L5.83838 4.14404Z"
          fill="white"/>
    <path d="M9.3999 6V1.02344H11.1055C11.6683 1.02344 12.0967 1.13623 12.3906 1.36182C12.6846 1.5874 12.8315 1.9235 12.8315 2.37012C12.8315 2.59798 12.77 2.80306 12.647 2.98535C12.5239 3.16764 12.3439 3.30892 12.1069 3.40918C12.3758 3.4821 12.5832 3.61995 12.729 3.82275C12.8771 4.02327 12.9512 4.26481 12.9512 4.54736C12.9512 5.01449 12.8008 5.37337 12.5 5.62402C12.2015 5.87467 11.7731 6 11.2148 6H9.3999ZM10.2646 3.75439V5.30957H11.2251C11.4963 5.30957 11.7082 5.24235 11.8608 5.10791C12.0135 4.97347 12.0898 4.78662 12.0898 4.54736C12.0898 4.03011 11.8255 3.76579 11.2969 3.75439H10.2646ZM10.2646 3.11865H11.1123C11.3812 3.11865 11.5908 3.05827 11.7412 2.9375C11.8939 2.81445 11.9702 2.64128 11.9702 2.41797C11.9702 2.17188 11.8996 1.99414 11.7583 1.88477C11.6193 1.77539 11.4017 1.7207 11.1055 1.7207H10.2646V3.11865Z"
          fill="white"/>
    <path d="M16.6016 4.84131H14.6738L14.2705 6H13.3716L15.2515 1.02344H16.0273L17.9106 6H17.0083L16.6016 4.84131ZM14.9165 4.14404H16.3589L15.6377 2.07959L14.9165 4.14404Z"
          fill="white"/>
    <path d="M22.4292 6H21.5679V3.78857H19.3428V6H18.478V1.02344H19.3428V3.09473H21.5679V1.02344H22.4292V6Z"
          fill="white"/>
    <path d="M26.9478 1.7207H25.396V6H24.5381V1.7207H23V1.02344H26.9478V1.7207Z" fill="white"/>
    <path d="M29.9795 4.84131H28.0518L27.6484 6H26.7495L28.6294 1.02344H29.4053L31.2886 6H30.3862L29.9795 4.84131ZM28.2944 4.14404H29.7368L29.0156 2.07959L28.2944 4.14404Z"
          fill="white"/>
    <path d="M35.7217 3.85352H35.1646V6H34.3032V3.85352H33.7222L32.502 6H31.4253L33.0283 3.35107L31.5312 1.02344H32.5771L33.7666 3.10156H34.3032V1.02344H35.1646V3.10156H35.6772L36.8564 1.02344H37.8989L36.4155 3.34424L38.0049 6H36.9316L35.7217 3.85352Z"
          fill="white"/>
    <path d="M41.5835 1.02344H42.4482V6H41.5835V2.45557L39.3994 6H38.5347V1.02344H39.3994V4.57129L41.5835 1.02344Z"
          fill="white"/>
    <path d="M46.9771 1.7207H45.4253V6H44.5674V1.7207H43.0293V1.02344H46.9771V1.7207Z" fill="white"/>
    <path d="M50.6821 1.02344H51.5469V6H50.6821V2.45557L48.498 6H47.6333V1.02344H48.498V4.57129L50.6821 1.02344Z"
          fill="white"/>
    <path d="M56.814 2.38037C56.814 2.15706 56.7297 1.97933 56.561 1.84717C56.3924 1.71501 56.1634 1.64893 55.874 1.64893C55.6257 1.64893 55.4183 1.71501 55.252 1.84717C55.0856 1.97705 55.0024 2.14567 55.0024 2.35303H54.1411C54.1411 2.08187 54.2163 1.84033 54.3667 1.62842C54.5171 1.4165 54.7256 1.25244 54.9922 1.13623C55.2588 1.01774 55.5527 0.958496 55.874 0.958496C56.4437 0.958496 56.8857 1.08268 57.2002 1.33105C57.5169 1.57943 57.6753 1.92692 57.6753 2.37354C57.6753 2.59912 57.6069 2.80648 57.4702 2.99561C57.3335 3.18473 57.1421 3.33398 56.896 3.44336C57.174 3.53906 57.3859 3.6849 57.5317 3.88086C57.6799 4.07454 57.7539 4.31608 57.7539 4.60547C57.7539 5.05208 57.583 5.40755 57.2412 5.67188C56.8994 5.93392 56.4437 6.06494 55.874 6.06494C55.5231 6.06494 55.2052 6.00228 54.9204 5.87695C54.6379 5.75163 54.4248 5.58073 54.2812 5.36426C54.14 5.14779 54.0693 4.89941 54.0693 4.61914H54.9307C54.9307 4.83333 55.0195 5.01449 55.1973 5.1626C55.375 5.30843 55.6006 5.38135 55.874 5.38135C56.1794 5.38135 56.4243 5.30957 56.6089 5.16602C56.7957 5.02246 56.8892 4.83561 56.8892 4.60547C56.8892 4.3252 56.8071 4.1224 56.6431 3.99707C56.4813 3.86947 56.2432 3.80566 55.9287 3.80566H55.3442V3.12207H55.8979C56.5086 3.12207 56.814 2.87484 56.814 2.38037Z"
          fill="white"/>
</svg>
