<svg width="15" height="19" viewBox="0 0 15 19" fill="none" xmlns="http://www.w3.org/2000/svg">
    <path
            d="M12.1928 9.7844C12.2016 9.09858 12.3843 8.42613 12.7238 7.82963C13.0633 7.23313 13.5486 6.73196 14.1346 6.37274C13.7623 5.84262 13.2713 5.40636 12.7004 5.0986C12.1295 4.79084 11.4945 4.62006 10.8459 4.59982C9.46222 4.45499 8.12081 5.42547 7.41572 5.42547C6.69698 5.42547 5.61138 4.6142 4.44237 4.63818C3.68622 4.66254 2.94929 4.88181 2.30338 5.27462C1.65748 5.66743 1.12463 6.22039 0.756743 6.87962C-0.836846 9.63094 0.351827 13.6745 1.87835 15.8984C2.6421 16.9874 3.53471 18.2039 4.70267 18.1608C5.84559 18.1135 6.27245 17.434 7.65205 17.434C9.01884 17.434 9.41932 18.1608 10.611 18.1333C11.8374 18.1135 12.6101 17.0395 13.347 15.9402C13.8958 15.1642 14.3181 14.3066 14.5982 13.3991C13.8857 13.0986 13.2776 12.5956 12.8499 11.9528C12.4221 11.31 12.1936 10.5559 12.1928 9.7844Z"
            fill="white"/>
    <path
            d="M9.94172 3.13721C10.6104 2.33673 10.9398 1.30784 10.8601 0.269043C9.83846 0.376042 8.89479 0.862936 8.21707 1.63271C7.88571 2.00876 7.63192 2.44626 7.47022 2.92018C7.30852 3.3941 7.24207 3.89515 7.27467 4.39469C7.78565 4.39994 8.29117 4.2895 8.75315 4.07168C9.21513 3.85386 9.62152 3.53435 9.94172 3.13721Z"
            fill="white"/>
</svg>
