<svg width="62" height="14" viewBox="0 0 62 14" fill="none" xmlns="http://www.w3.org/2000/svg">
    <path
            d="M6.63928 8.40394H2.73903L1.80239 11.1619H0.150391L3.84465 0.958252H5.56101L9.25527 11.1619H7.57511L6.63928 8.40394ZM3.14297 7.1313H6.23456L4.71051 2.65539H4.66786L3.14297 7.1313Z"
            fill="white"/>
    <path
            d="M17.2333 7.44255C17.2333 9.75433 15.9925 11.2396 14.12 11.2396C13.6457 11.2643 13.174 11.1554 12.7588 10.9252C12.3437 10.695 12.002 10.3529 11.7728 9.93806H11.7373V13.6228H10.2061V3.72252H11.6883V4.95985H11.7165C11.9562 4.54699 12.3037 4.20666 12.722 3.97507C13.1403 3.74348 13.6137 3.6293 14.0918 3.64468C15.9852 3.64469 17.2333 5.13719 17.2333 7.44255ZM15.6594 7.44255C15.6594 5.93641 14.8788 4.94621 13.6879 4.94621C12.5179 4.94621 11.7309 5.95727 11.7309 7.44255C11.7309 8.94147 12.5179 9.9453 13.6879 9.9453C14.8788 9.9453 15.6594 8.96234 15.6594 7.44255Z"
            fill="white"/>
    <path
            d="M25.4442 7.44254C25.4442 9.75432 24.2034 11.2396 22.331 11.2396C21.8566 11.2643 21.3849 11.1554 20.9698 10.9252C20.5547 10.695 20.2129 10.3529 19.9837 9.93806H19.9483V13.6228H18.417V3.72251H19.8992V4.95985H19.9274C20.1671 4.54698 20.5146 4.20665 20.9329 3.97507C21.3512 3.74348 21.8246 3.6293 22.3028 3.64468C24.1962 3.64468 25.4442 5.13718 25.4442 7.44254ZM23.8703 7.44254C23.8703 5.9364 23.0897 4.94621 21.8988 4.94621C20.7288 4.94621 19.9419 5.95726 19.9419 7.44254C19.9419 8.94146 20.7288 9.94529 21.8988 9.94529C23.0898 9.94529 23.8703 8.96233 23.8703 7.44254H23.8703Z"
            fill="white"/>
    <path
            d="M30.8712 8.31885C30.9847 9.33071 31.9704 9.99508 33.3174 9.99508C34.6081 9.99508 35.5367 9.33067 35.5367 8.41831C35.5367 7.62632 34.9767 7.15211 33.6506 6.82712L32.3245 6.50855C30.4456 6.05599 29.5733 5.17974 29.5733 3.75785C29.5733 1.99733 31.1118 0.788086 33.2965 0.788086C35.4587 0.788086 36.9409 1.99733 36.9908 3.75785H35.445C35.3525 2.73957 34.5083 2.12492 33.2748 2.12492C32.0412 2.12492 31.1971 2.7468 31.1971 3.65193C31.1971 4.37331 31.7362 4.79779 33.0551 5.12274L34.1824 5.39877C36.2818 5.89387 37.1541 6.73483 37.1541 8.22731C37.1541 10.1363 35.6292 11.3319 33.204 11.3319C30.9348 11.3319 29.4027 10.1643 29.3037 8.31878L30.8712 8.31885Z"
            fill="white"/>
    <path
            d="M40.4582 1.96204V3.72255H41.8768V4.9318H40.4582V9.03297C40.4582 9.67009 40.7422 9.96699 41.3659 9.96699C41.5343 9.96406 41.7024 9.95227 41.8696 9.93166V11.1337C41.5892 11.1859 41.3042 11.2096 41.019 11.2043C39.5087 11.2043 38.9197 10.6386 38.9197 9.19584V4.9318H37.835V3.72255H38.9196V1.96204H40.4582Z"
            fill="white"/>
    <path
            d="M42.6992 7.4426C42.6992 5.10194 44.0816 3.6311 46.2374 3.6311C48.4003 3.6311 49.7763 5.10191 49.7763 7.4426C49.7763 9.78969 48.4076 11.2541 46.2374 11.2541C44.0679 11.2541 42.6992 9.78968 42.6992 7.4426ZM48.2161 7.4426C48.2161 5.83696 47.4782 4.8893 46.2374 4.8893C44.9966 4.8893 44.2595 5.84418 44.2595 7.4426C44.2595 9.05466 44.9966 9.99511 46.2374 9.99511C47.4782 9.99511 48.216 9.05466 48.216 7.4426H48.2161Z"
            fill="white"/>
    <path
            d="M51.0381 3.72269H52.4986V4.9889H52.534C52.6328 4.59344 52.8651 4.24395 53.1919 3.99919C53.5187 3.75442 53.92 3.6293 54.3284 3.64485C54.5049 3.64423 54.6809 3.66335 54.8531 3.70182V5.13013C54.6303 5.06225 54.3979 5.03108 54.165 5.03786C53.9426 5.02886 53.7208 5.06797 53.5149 5.15251C53.3091 5.23705 53.124 5.36501 52.9724 5.52762C52.8208 5.69022 52.7063 5.88361 52.6367 6.09451C52.5672 6.30541 52.5442 6.52882 52.5694 6.74941V11.1619H51.0381L51.0381 3.72269Z"
            fill="white"/>
    <path
            d="M61.9131 8.97683C61.7071 10.3273 60.3882 11.2541 58.7008 11.2541C56.5306 11.2541 55.1836 9.80412 55.1836 7.47791C55.1836 5.14447 56.5379 3.6311 58.6365 3.6311C60.7004 3.6311 61.9984 5.04497 61.9984 7.30057V7.82375H56.7294V7.91603C56.7051 8.18981 56.7394 8.46562 56.8302 8.72514C56.921 8.98466 57.0661 9.22195 57.2559 9.42125C57.4457 9.62054 57.6759 9.77729 57.9311 9.88107C58.1863 9.98485 58.4608 10.0333 58.7362 10.0232C59.0981 10.057 59.4612 9.97342 59.7716 9.78489C60.0821 9.59637 60.3231 9.31296 60.459 8.97683L61.9131 8.97683ZM56.7366 6.75653H60.4663C60.48 6.51036 60.4426 6.26401 60.3563 6.03295C60.2701 5.80189 60.1369 5.59109 59.9651 5.4138C59.7932 5.23651 59.5865 5.09655 59.3579 5.0027C59.1293 4.90885 58.8836 4.86314 58.6365 4.86844C58.3871 4.86695 58.1399 4.91473 57.9091 5.00901C57.6784 5.10329 57.4687 5.24221 57.292 5.41775C57.1154 5.59329 56.9754 5.80197 56.88 6.03175C56.7847 6.26154 56.736 6.50787 56.7366 6.75654V6.75653Z"
            fill="white"/>
</svg>
